<?xml version="1.0" encoding="utf-8"?>
<!-- Generator: Adobe Illustrator 17.0.0, SVG Export Plug-In . SVG Version: 6.00 Build 0)  -->
<!DOCTYPE svg PUBLIC "-//W3C//DTD SVG 1.1//EN" "http://www.w3.org/Graphics/SVG/1.1/DTD/svg11.dtd">
<svg version="1.1" id="Layer_1" xmlns="http://www.w3.org/2000/svg" xmlns:xlink="http://www.w3.org/1999/xlink" x="0px" y="0px"
	 width="48px" height="48px" viewBox="0 0 48 48" enable-background="new 0 0 48 48" xml:space="preserve">
<g>
	<path fill="#FFFFFF" d="M10.968,23.949c0-6.004,0-12.007,0-18.011c0-3.008,1.93-4.937,4.939-4.937C21.304,1,26.701,1,32.098,1
		c3.008,0,4.935,1.929,4.935,4.94c0.001,12.087,0.001,24.175-0.001,36.262c0,2.274-1.33,4.081-3.422,4.627
		c-0.427,0.111-0.882,0.16-1.324,0.161c-5.525,0.011-11.049,0.011-16.574,0.005c-2.749-0.003-4.74-1.998-4.742-4.749
		C10.964,36.148,10.968,30.048,10.968,23.949z M12.52,8.669c-0.008,0.127-0.018,0.203-0.018,0.28
		c0,11.162-0.005,22.324,0.005,33.486c0.001,1.676,1.345,3.018,3.023,3.022c5.637,0.014,11.274,0.012,16.911,0.002
		c1.512-0.003,2.796-1.02,2.976-2.524c0.14-1.173,0.028-2.377,0.028-3.619c-7.13,0-14.257,0-21.372,0c0-0.537,0-1.021,0-1.538
		c7.155,0,14.271,0,21.426,0c0-0.222,0-0.41,0-0.599c0-4.934,0-9.869,0-14.803c0-5.557,0.003-11.114-0.002-16.671
		c-0.002-1.792-1.294-3.161-3.028-3.166c-5.653-0.014-11.306-0.012-16.959,0c-1.44,0.003-2.668,1.012-2.92,2.428
		c-0.124,0.694-0.084,1.417-0.12,2.18c7.214,0,14.341,0,21.457,0c0,0.537,0,1.021,0,1.521C26.784,8.669,19.679,8.669,12.52,8.669z"
		/>
	<path fill="#FFFFFF" d="M15.59,29.333c0-0.507,0-0.979,0-1.476c5.603,0,11.185,0,16.805,0c0,0.474,0,0.958,0,1.476
		C26.813,29.333,21.221,29.333,15.59,29.333z"/>
	<path fill="#FFFFFF" d="M32.411,30.924c0,0.495,0,0.968,0,1.474c-5.596,0-11.188,0-16.812,0c0-0.481,0-0.965,0-1.474
		C21.192,30.924,26.773,30.924,32.411,30.924z"/>
	<path fill="#FFFFFF" d="M32.411,24.799c0,0.506,0,0.979,0,1.476c-4.07,0-8.118,0-12.205,0c0-0.473,0-0.958,0-1.476
		C24.254,24.799,28.313,24.799,32.411,24.799z"/>
	<path fill="#FFFFFF" d="M24.015,40.1c1.246,0,2.284,1.039,2.283,2.285c-0.001,1.278-1.039,2.315-2.311,2.309
		c-1.25-0.007-2.28-1.037-2.284-2.286C21.699,41.136,22.737,40.1,24.015,40.1z M23.996,43.161c0.411,0.001,0.758-0.338,0.767-0.749
		c0.01-0.429-0.355-0.79-0.784-0.778c-0.411,0.011-0.748,0.362-0.742,0.773C23.242,42.819,23.585,43.16,23.996,43.161z"/>
	<path fill="#FFFFFF" d="M16.142,17.047c1.134-1.132,2.306-2.301,3.5-3.493c0.303,0.341,0.625,0.704,0.966,1.087
		c-0.768,0.74-1.601,1.544-2.455,2.367c0.908,0.903,1.737,1.729,2.584,2.571c-0.412,0.391-0.757,0.717-1.062,1.007
		C18.509,19.418,17.323,18.23,16.142,17.047z"/>
	<path fill="#FFFFFF" d="M29.885,17.158c-0.923-0.915-1.745-1.73-2.587-2.565c0.39-0.364,0.745-0.695,1.078-1.006
		c1.162,1.166,2.339,2.348,3.492,3.505c-1.158,1.148-2.351,2.332-3.557,3.528c-0.288-0.297-0.619-0.638-0.941-0.97
		C28.184,18.844,29.005,18.03,29.885,17.158z"/>
	<path fill="#FFFFFF" d="M26.565,13.902c-1.385,2.399-2.752,4.768-4.145,7.182c-0.449-0.256-0.871-0.497-1.331-0.759
		c1.384-2.398,2.752-4.767,4.146-7.183C25.676,13.394,26.097,13.635,26.565,13.902z"/>
	<path fill="#FFFFFF" d="M26.278,4.1c0,0.507,0,0.979,0,1.476c-1.515,0-3.008,0-4.539,0c0-0.474,0-0.958,0-1.476
		C23.232,4.1,24.736,4.1,26.278,4.1z"/>
	<path fill="#FFFFFF" d="M15.589,26.274c0-0.497,0-0.969,0-1.475c0.998,0,1.991,0,3.015,0c0,0.483,0,0.966,0,1.475
		C17.609,26.274,16.627,26.274,15.589,26.274z"/>
	<path fill="#FFFFFF" d="M29.35,4.105c0,0.492,0,0.964,0,1.465c-0.499,0-0.982,0-1.491,0c0-0.483,0-0.955,0-1.465
		C28.331,4.105,28.815,4.105,29.35,4.105z"/>
</g>
</svg>
