<?xml version="1.0" encoding="utf-8"?>
<!-- Generator: Adobe Illustrator 17.0.0, SVG Export Plug-In . SVG Version: 6.00 Build 0)  -->
<!DOCTYPE svg PUBLIC "-//W3C//DTD SVG 1.1//EN" "http://www.w3.org/Graphics/SVG/1.1/DTD/svg11.dtd">
<svg version="1.1" id="Layer_1" xmlns="http://www.w3.org/2000/svg" xmlns:xlink="http://www.w3.org/1999/xlink" x="0px" y="0px"
	 width="65px" height="65px" viewBox="0 0 65 65" enable-background="new 0 0 65 65" xml:space="preserve">
<g>
	<path fill="#21386D" d="M49.829,14.088c-0.119-0.005-0.223-0.014-0.327-0.014c-7.114-0.001-14.228-0.011-21.342,0.009
		c-1.165,0.003-3.049,0.957-3.127,2.584c-0.035,0.73-0.006,1.464-0.006,2.228c0.463,0,0.844-0.002,1.226,0.001
		c0.631,0.005,0.805,0.177,0.805,0.793c0,2.208,0.005,4.415-0.008,6.623c-0.001,0.199-0.07,0.422-0.176,0.59
		c-0.493,0.785-1.01,1.555-1.519,2.33c-0.052,0.078-0.112,0.151-0.177,0.239c-0.323-0.213-0.632-0.417-0.987-0.651
		c0.294-0.437,0.534-0.895,0.867-1.269c0.693-0.777,0.883-1.677,0.804-2.672c-0.019-0.242-0.038-0.484-0.058-0.739
		c-2.237,0-4.44,0-6.673,0c-0.102,1.143-0.239,2.266,0.626,3.236c0.379,0.425,0.652,0.945,0.989,1.446
		c-0.339,0.224-0.656,0.434-1.001,0.662c-0.488-0.735-0.945-1.465-1.446-2.163c-0.327-0.457-0.443-0.934-0.437-1.491
		c0.023-1.994,0.009-3.989,0.01-5.983c0-0.138,0.011-0.277,0.021-0.414c0.023-0.316,0.197-0.49,0.509-0.507
		c0.351-0.019,0.703-0.02,1.054-0.028c0.126-0.003,0.252,0,0.413,0c0-0.799,0-1.564-0.001-2.328c0-0.085-0.021-0.171-0.012-0.255
		c0.054-0.53-0.218-0.855-0.652-1.105c-0.873-0.502-1.587-1.181-2.162-2.007C14.3,9.255,16.6,3.794,21.338,2.986
		c1.897-0.323,3.6,0.121,5.121,1.259c0.575,0.43,1.17,0.623,1.891,0.622c6.41-0.01,12.82,0.005,19.229,0.011
		c0.511,0,1.023-0.009,1.534-0.022c0.48-0.012,0.875-0.229,1.244-0.519c2.4-1.88,5.737-1.901,8.131-0.058
		c2.919,2.248,3.437,6.432,1.147,9.315c-0.359,0.452-0.532,0.94-0.531,1.529c0.003,9.066-0.005,18.131-0.02,27.197
		c-0.001,0.329,0.023,0.532,0.425,0.565c0.341,0.028,0.516,0.319,0.619,0.624c0.133,0.393,0.239,0.795,0.373,1.188
		c0.367,1.078,0.792,2.138,1.104,3.231c0.51,1.79,0.555,3.631,0.502,5.485c-0.054,1.897-0.029,3.795-0.035,5.693
		c-0.003,0.757,0.01,1.514,0.001,2.272c-0.006,0.511-0.155,0.661-0.658,0.716c-0.137,0.015-0.276,0.022-0.415,0.022
		c-4.341,0.001-8.682,0.001-13.023,0.001c-0.981,0-1.09-0.108-1.09-1.073c0-3.573,0.02-7.146-0.014-10.719
		c-0.009-0.929,0.291-1.757,0.565-2.605c0.434-1.347,0.886-2.688,1.334-4.03c0.225-0.674,0.339-0.762,1.056-0.844
		C49.829,33.268,49.829,23.688,49.829,14.088z M51.116,15.557c0,9.106,0,18.195,0,27.289c2.25,0,4.474,0,6.712,0
		c0-9.109,0-18.202,0-27.284c-1.125,0.163-2.238,0.45-3.351,0.449C53.363,16.011,52.25,15.722,51.116,15.557z M48.147,50.137
		c0,3.577,0,7.131,0,10.696c4.238,0,8.462,0,12.676,0c0-3.579,0-7.133,0-10.696C56.598,50.137,52.398,50.137,48.147,50.137z
		 M48.757,6.14c-6.837,0-13.616,0-20.411,0c0.301,1.122,0.814,2.196,0.705,3.347c-0.107,1.129-0.399,2.241-0.609,3.352
		c6.713,0,13.488,0,20.324,0C47.6,10.599,47.604,8.376,48.757,6.14z M17.064,9.492c0.005,2.975,2.419,5.395,5.388,5.403
		c2.988,0.008,5.432-2.44,5.428-5.436c-0.005-2.961-2.439-5.382-5.41-5.379C19.48,4.081,17.059,6.506,17.064,9.492z M54.505,4.079
		c-2.989-0.003-5.437,2.445-5.43,5.431c0.007,2.933,2.431,5.37,5.346,5.375c3.045,0.005,5.461-2.384,5.469-5.407
		C59.898,6.519,57.468,4.083,54.505,4.079z M60.619,48.87c-0.023-0.094-0.033-0.156-0.053-0.216
		c-0.427-1.283-0.854-2.566-1.285-3.848c-0.168-0.499-0.418-0.682-0.942-0.694c-0.362-0.008-0.725-0.004-1.088-0.004
		c-2.228,0.001-4.457-0.003-6.685,0.009c-0.431,0.002-0.73,0.215-0.872,0.659c-0.411,1.277-0.846,2.546-1.269,3.819
		c-0.028,0.084-0.042,0.173-0.066,0.276C52.458,48.87,56.519,48.87,60.619,48.87z M25.815,20.161c-2.246,0-4.476,0-6.708,0
		c0,0.899,0,1.771,0,2.653c2.247,0,4.476,0,6.708,0C25.815,21.914,25.815,21.043,25.815,20.161z M21.144,16.097
		c0,0.941,0,1.849,0,2.749c0.906,0,1.784,0,2.659,0c0-0.929,0-1.83,0-2.749C22.911,16.097,22.041,16.097,21.144,16.097z"/>
	<path fill="#21386D" d="M15.079,50.852c0.933,0,1.837,0,2.793,0c0-0.481-0.001-0.955,0-1.429c0.006-2.058,0.024-4.115,0.012-6.173
		c-0.005-0.891,0.385-1.526,1.076-2.053c0.86-0.656,1.169-1.762,0.824-2.787c-0.033-0.099-0.152-0.209-0.253-0.24
		c-0.526-0.16-0.69-0.503-0.674-1.038c0.032-1.119,0.008-2.24,0.01-3.36c0.002-0.693,0.181-0.879,0.87-0.881
		c1.824-0.005,3.648-0.005,5.472,0c0.673,0.002,0.852,0.189,0.857,0.86c0.009,1.13,0.015,2.26,0.021,3.39
		c0.004,0.633-0.13,0.808-0.733,1.009c-0.075,0.025-0.162,0.11-0.183,0.184c-0.29,1.04-0.207,2.117,0.759,2.799
		c1.002,0.708,1.184,1.637,1.163,2.757c-0.044,2.292-0.016,4.585-0.016,6.878c0,0.019,0.015,0.038,0.03,0.075
		c0.905,0,1.816,0,2.753,0c0.005-0.105,0.014-0.207,0.014-0.31c-0.003-2.549,0.009-5.098-0.019-7.647
		c-0.008-0.757,0.471-1.175,0.968-1.558c0.963-0.74,1.258-1.677,0.985-2.823c-0.031-0.128-0.152-0.295-0.267-0.332
		c-0.507-0.162-0.682-0.472-0.665-1.007c0.038-1.15,0.009-2.302,0.012-3.453c0.002-0.64,0.168-0.812,0.818-0.821
		c0.736-0.01,1.472-0.002,2.208-0.003c1.077,0,2.155-0.002,3.232,0.001c0.765,0.002,0.92,0.159,0.921,0.917
		c0,1.162-0.013,2.325,0.007,3.487c0.007,0.412-0.134,0.692-0.521,0.808c-0.315,0.094-0.413,0.301-0.466,0.6
		c-0.189,1.058,0.11,1.935,0.986,2.558c0.743,0.528,1.042,1.235,1.028,2.112c-0.014,0.853-0.039,1.705-0.04,2.558
		c-0.003,1.61,0.01,3.22,0.009,4.83c0,0.509,0.2,0.89,0.614,1.193c2.843,2.078,3.208,5.921,0.783,8.475
		c-1.028,1.083-2.327,1.658-3.826,1.661c-8.661,0.018-17.321,0.021-25.982,0.025c-0.906,0-1.815,0.015-2.717-0.049
		c-2.533-0.178-4.704-2.267-5.013-4.779c-0.273-2.222,0.523-3.988,2.302-5.318c0.438-0.327,0.651-0.723,0.648-1.275
		c-0.014-2.602-0.007-5.205-0.02-7.807c-0.002-0.458,0.14-0.815,0.487-1.125c0.381-0.34,0.722-0.725,1.074-1.097
		c0.323-0.342,0.477-0.75,0.45-1.225c-0.008-0.138-0.016-0.278-0.006-0.416c0.037-0.485-0.056-0.87-0.619-0.998
		c-0.252-0.057-0.366-0.277-0.366-0.54c-0.001-1.322-0.012-2.645,0.004-3.967c0.005-0.423,0.161-0.597,0.59-0.602
		c1.993-0.02,3.987-0.02,5.981-0.001c0.427,0.004,0.592,0.2,0.598,0.638c0.018,1.29,0.019,2.581,0.006,3.871
		c-0.004,0.413-0.201,0.622-0.613,0.696c-0.209,0.038-0.276,0.148-0.32,0.328c-0.297,1.218,0.026,2.155,1.041,2.888
		c0.67,0.484,0.921,1.153,0.921,1.938c0,0.756-0.046,1.513-0.046,2.269c-0.002,1.706,0.012,3.412,0.02,5.119
		C15.06,50.718,15.07,50.77,15.079,50.852z M21.297,60.879c0,0.011,0,0.021,0,0.032c3.39,0,6.781,0,10.171,0
		c1.6,0,3.199,0.006,4.799-0.005c0.382-0.003,0.772-0.023,1.143-0.104c2.354-0.518,3.841-2.787,3.397-5.157
		c-0.361-1.93-1.879-3.314-3.836-3.436c-1.152-0.072-2.308-0.093-3.462-0.093c-4.115-0.001-8.231,0.023-12.346,0.025
		c-2.58,0.001-5.16-0.019-7.739-0.03c-1.493-0.006-2.985-0.021-4.478-0.017c-0.425,0.001-0.857,0.011-1.273,0.087
		c-2.491,0.456-4.056,2.836-3.512,5.316c0.395,1.801,1.844,3.15,3.661,3.284c1.32,0.098,2.649,0.09,3.975,0.095
		C14.962,60.887,18.13,60.879,21.297,60.879z M13.824,44.161c-2.245,0-4.468,0-6.704,0c0,0.908,0,1.797,0,2.702
		c2.242,0,4.464,0,6.704,0C13.824,45.961,13.824,45.078,13.824,44.161z M25.819,46.868c0-0.914,0-1.811,0-2.699
		c-2.244,0-4.465,0-6.673,0c0,0.915,0,1.805,0,2.699C21.382,46.868,23.595,46.868,25.819,46.868z M37.824,44.161
		c-2.245,0-4.468,0-6.704,0c0,0.908,0,1.797,0,2.702c2.242,0,4.464,0,6.704,0C37.824,45.961,37.824,45.079,37.824,44.161z
		 M7.099,50.84c2.253,0,4.473,0,6.689,0c0-0.913,0-1.802,0-2.694c-2.242,0-4.462,0-6.689,0C7.099,49.054,7.099,49.937,7.099,50.84z
		 M19.128,50.84c2.255,0,4.477,0,6.697,0c0-0.904,0-1.784,0-2.676c-2.239,0-4.46,0-6.697,0
		C19.128,49.065,19.128,49.945,19.128,50.84z M37.832,48.173c-2.251,0-4.469,0-6.689,0c0,0.909,0,1.789,0,2.675
		c2.24,0,4.46,0,6.689,0C37.832,49.95,37.832,49.077,37.832,48.173z M21.035,38.157c0,0.25-0.007,0.473,0.002,0.695
		c0.012,0.287,0.028,0.574,0.059,0.86c0.087,0.789-0.303,1.358-0.821,1.888c-0.367,0.375-0.698,0.784-1.088,1.226
		c2.224,0,4.361,0,6.572,0c-0.419-0.472-0.77-0.917-1.172-1.308c-0.559-0.543-0.824-1.165-0.736-1.949
		c0.052-0.46,0.049-0.927,0.072-1.412C22.943,38.157,22.011,38.157,21.035,38.157z M8.898,38.154c0.053,0.281,0.108,0.539,0.149,0.8
		c0.198,1.265-0.08,2.327-1.27,3.014c-0.185,0.107-0.327,0.286-0.563,0.498c0.36,0.149,0.644,0.366,0.932,0.371
		c1.78,0.032,3.561,0.016,5.341,0.015c0.065,0,0.131-0.019,0.26-0.039c-0.43-0.479-0.797-0.938-1.215-1.344
		c-0.597-0.58-0.774-1.263-0.681-2.067c0.047-0.406,0.008-0.821,0.008-1.248C10.892,38.154,9.926,38.154,8.898,38.154z
		 M35.962,38.155c-1.037,0-2.045,0-3.084,0c0.04,0.169,0.078,0.321,0.113,0.475c0.131,0.576,0.197,1.156,0.06,1.74
		c-0.179,0.762-0.625,1.34-1.247,1.796c-0.293,0.214-0.581,0.435-0.945,0.708c0.222,0,0.338,0,0.455,0
		c1.748,0,3.496-0.026,5.242,0.015c0.556,0.013,0.829-0.309,1.183-0.624c-0.221-0.119-0.41-0.217-0.596-0.32
		c-0.561-0.312-1.023-0.739-1.162-1.374c-0.11-0.501-0.105-1.03-0.116-1.548C35.858,38.741,35.926,38.457,35.962,38.155z
		 M12.82,36.846c0-0.917,0-1.797,0-2.692c-1.577,0-3.135,0-4.689,0c0,0.915,0,1.803,0,2.692
		C9.704,36.846,11.249,36.846,12.82,36.846z M20.1,34.164c0,0.901,0,1.779,0,2.666c1.578,0,3.139,0,4.709,0c0-0.896,0-1.773,0-2.666
		C23.237,34.164,21.684,34.164,20.1,34.164z M36.823,34.177c-1.585,0-3.153,0-4.724,0c0,0.899,0,1.771,0,2.652
		c1.585,0,3.154,0,4.724,0C36.823,35.929,36.823,35.059,36.823,34.177z"/>
	<path fill="#21386D" d="M22.521,6.895c1.373,0,2.545,1.194,2.542,2.592c-0.002,1.404-1.19,2.595-2.633,2.64
		c-1.315,0.041-2.557-1.258-2.551-2.669C19.885,8.049,21.074,6.896,22.521,6.895z M23.864,9.498
		c0.006-0.775-0.614-1.406-1.388-1.414c-0.769-0.009-1.399,0.619-1.402,1.397c-0.003,0.768,0.623,1.387,1.407,1.393
		C23.238,10.88,23.859,10.262,23.864,9.498z"/>
	<path fill="#21386D" d="M57.074,9.499c-0.003,1.421-1.188,2.587-2.623,2.58c-1.398-0.006-2.568-1.197-2.561-2.609
		c0.007-1.427,1.182-2.581,2.623-2.575C55.92,6.901,57.077,8.077,57.074,9.499z M55.869,9.512c0.006-0.798-0.58-1.411-1.366-1.425
		c-0.777-0.014-1.403,0.601-1.408,1.384c-0.005,0.794,0.592,1.399,1.383,1.402C55.254,10.877,55.863,10.282,55.869,9.512z"/>
</g>
<path fill="#21386D" d="M22.475,52.976c-1.95,0-3.53,1.59-3.53,3.54s1.58,3.53,3.53,3.53c1.95,0,3.53-1.58,3.53-3.53
	S24.425,52.976,22.475,52.976z M22.475,59.016c-1.38,0-2.5-1.12-2.5-2.5s1.12-2.5,2.5-2.5s2.5,1.12,2.5,2.5
	S23.855,59.016,22.475,59.016z"/>
<path fill="#21386D" d="M32.493,52.976c-1.95,0-3.53,1.59-3.53,3.54s1.58,3.53,3.53,3.53c1.95,0,3.53-1.58,3.53-3.53
	S34.443,52.976,32.493,52.976z M32.493,59.016c-1.38,0-2.5-1.12-2.5-2.5s1.12-2.5,2.5-2.5c1.38,0,2.5,1.12,2.5,2.5
	S33.873,59.016,32.493,59.016z"/>
<path fill="#21386D" d="M12.471,52.976c-1.95,0-3.53,1.59-3.53,3.54s1.58,3.53,3.53,3.53c1.95,0,3.53-1.58,3.53-3.53
	S14.421,52.976,12.471,52.976z M12.471,59.016c-1.38,0-2.5-1.12-2.5-2.5s1.12-2.5,2.5-2.5s2.5,1.12,2.5,2.5
	S13.851,59.016,12.471,59.016z"/>
</svg>
