<?xml version="1.0" encoding="utf-8"?>
<!-- Generator: Adobe Illustrator 17.0.0, SVG Export Plug-In . SVG Version: 6.00 Build 0)  -->
<!DOCTYPE svg PUBLIC "-//W3C//DTD SVG 1.1//EN" "http://www.w3.org/Graphics/SVG/1.1/DTD/svg11.dtd">
<svg version="1.1" id="Layer_1" xmlns="http://www.w3.org/2000/svg" xmlns:xlink="http://www.w3.org/1999/xlink" x="0px" y="0px"
	 width="48px" height="48px" viewBox="0 0 48 48" enable-background="new 0 0 48 48" xml:space="preserve">
<g>
	<path fill="#FFFFFF" d="M47,35.588c-0.375,1.03-1.058,1.635-2.205,1.625c-0.079-0.001-0.184,0.118-0.232,0.206
		c-0.078,0.143-0.1,0.317-0.18,0.458c-0.324,0.57-0.43,1.035,0.095,1.639c0.557,0.641,0.389,1.668-0.195,2.317
		c-0.42,0.467-0.866,0.914-1.331,1.336c-0.794,0.721-1.947,0.714-2.727-0.028c-0.24-0.229-0.429-0.267-0.687-0.093
		c-0.012,0.008-0.027,0.013-0.041,0.017c-0.744,0.221-1.286,0.517-1.371,1.473c-0.072,0.814-0.972,1.355-1.828,1.378
		c-0.554,0.015-1.108,0.01-1.662,0.003c-1.126-0.015-1.971-0.78-2.039-1.911c-0.023-0.386-0.176-0.51-0.505-0.647
		c-0.668-0.279-1.213-0.572-1.929,0.077c-0.593,0.537-1.609,0.316-2.232-0.251c-0.465-0.422-0.915-0.865-1.336-1.331
		c-0.724-0.804-0.714-1.94,0.032-2.725c0.23-0.242,0.258-0.421,0.09-0.689c-0.11-0.175-0.174-0.38-0.252-0.574
		c-0.264-0.664-0.263-0.665-1-0.665c-2.246,0-4.492,0.002-6.738-0.002c-0.591-0.001-0.971-0.304-1.024-0.793
		c-0.064-0.59,0.328-1.005,0.977-1.008c1.542-0.006,3.085-0.002,4.627-0.002c0.162,0,0.323,0,0.538,0c0-0.578-0.003-1.112,0-1.646
		c0.008-1.368,0.726-2.13,2.089-2.255c0.135-0.012,0.314-0.145,0.374-0.27c0.205-0.43,0.365-0.881,0.553-1.351
		c-0.094-0.104-0.207-0.221-0.313-0.345c-0.681-0.802-0.67-1.929,0.045-2.701c0.386-0.417,0.794-0.816,1.204-1.21
		c0.829-0.796,1.982-0.823,2.828-0.041c0.229,0.212,0.405,0.262,0.654,0.082c0.083-0.06,0.185-0.105,0.285-0.13
		c0.651-0.16,1.027-0.457,1.087-1.236c0.061-0.806,0.83-1.404,1.648-1.474c0.639-0.055,1.287-0.055,1.929-0.03
		c1.156,0.046,1.921,0.792,2.002,1.951c0.021,0.302,0.108,0.444,0.401,0.532c0.356,0.106,0.685,0.299,1.038,0.419
		c0.123,0.042,0.335,0.032,0.415-0.046c0.491-0.482,1.072-0.693,1.785-0.653c0-3.029,0-6.045,0-9.096c-13.004,0-26.006,0-39.063,0
		c0,0.173,0,0.332,0,0.491c0,5.226-0.01,10.452,0.014,15.677c0.003,0.569,0.109,1.173,0.32,1.699
		c0.433,1.082,1.247,1.665,2.472,1.641c1.587-0.031,3.174-0.009,4.761-0.007c0.688,0.001,1.098,0.346,1.092,0.907
		c-0.006,0.559-0.42,0.896-1.111,0.897c-1.542,0.002-3.087-0.057-4.626,0.013c-2.752,0.125-4.305-1.982-4.642-3.939
		C1.069,33.176,1.029,33.08,1,32.983c0-8.895,0-17.789,0-26.684C1.031,6.186,1.07,6.075,1.091,5.96
		c0.414-2.304,2.156-3.882,4.313-3.883c11.314-0.003,22.628,0,33.942-0.003c1.173,0,2.157,0.425,2.963,1.266
		c1.056,1.103,1.421,2.453,1.419,3.945c-0.007,6.121,0.001,12.242-0.011,18.363c-0.001,0.433,0.108,0.748,0.424,1.061
		c0.857,0.848,0.859,2.003,0.057,2.896c-0.079,0.088-0.156,0.178-0.218,0.25c0.191,0.466,0.353,0.917,0.563,1.344
		c0.067,0.135,0.256,0.283,0.399,0.294c0.511,0.038,1.002,0.144,1.349,0.521c0.284,0.309,0.476,0.702,0.708,1.058
		C47,33.911,47,34.749,47,35.588z M41.905,14.022c0-0.497,0.001-0.945,0-1.392c-0.005-1.991,0.03-3.984-0.028-5.974
		c-0.051-1.73-1.203-2.776-2.918-2.776c-4.747,0-9.493,0-14.24,0c-6.394,0-12.788,0.007-19.181-0.007
		C4.493,3.871,3.722,4.319,3.286,5.218C3.021,5.766,2.842,6.41,2.827,7.016c-0.053,2.23-0.022,4.462-0.02,6.693
		c0,0.1,0.022,0.2,0.036,0.314C15.859,14.022,28.85,14.022,41.905,14.022z M29.008,29.672c-0.133,0.3-0.232,0.514-0.323,0.732
		c-0.276,0.659-0.588,1.307-0.813,1.983c-0.238,0.717-0.459,0.932-1.208,0.939c-0.996,0.009-0.996,0.009-0.996,1.002
		c0,1.061,0,1.061,1.076,1.069c0.677,0.005,0.896,0.218,1.118,0.866c0.241,0.703,0.524,1.396,0.851,2.063
		c0.321,0.654,0.314,0.946-0.208,1.472c-0.709,0.714-0.709,0.714,0.018,1.441c0.729,0.729,0.729,0.729,1.473-0.003
		c0.51-0.501,0.786-0.506,1.439-0.184c0.64,0.316,1.301,0.602,1.978,0.825c0.8,0.265,0.976,0.449,0.98,1.311
		c0.005,1.044-0.106,0.929,0.945,0.925c1.294-0.005,1.118,0.167,1.132-1.107c0.007-0.654,0.212-0.866,0.841-1.087
		c0.715-0.252,1.424-0.535,2.105-0.868c0.653-0.32,0.922-0.32,1.439,0.186c0.749,0.734,0.749,0.734,1.476,0.004
		c0.727-0.73,0.727-0.73-0.01-1.477c-0.499-0.506-0.502-0.787-0.179-1.439c0.317-0.639,0.599-1.301,0.826-1.977
		c0.263-0.784,0.434-0.95,1.277-0.95c1.046-0.001,0.947,0.088,0.948-0.933c0.001-1.112,0-1.112-1.086-1.139
		c-0.64-0.016-0.879-0.241-1.092-0.85c-0.245-0.702-0.518-1.4-0.847-2.066c-0.359-0.723-0.356-0.971,0.208-1.547
		c0.788-0.805,0.783-0.572-0.009-1.377c-0.75-0.762-0.755-0.757-1.537-0.005c-0.472,0.453-0.785,0.463-1.369,0.183
		c-0.683-0.329-1.383-0.634-2.1-0.876c-0.718-0.241-0.927-0.451-0.933-1.211c-0.008-0.972-0.008-0.972-0.98-0.972
		c-1.081,0-1.081,0-1.097,1.086c-0.009,0.647-0.229,0.876-0.843,1.092c-0.715,0.252-1.42,0.543-2.101,0.876
		c-0.618,0.303-0.925,0.302-1.409-0.166c-0.773-0.746-0.773-0.746-1.546,0.026c-0.675,0.674-0.664,0.665-0.016,1.351
		C28.661,29.11,28.822,29.408,29.008,29.672z"/>
	<path fill="#FFFFFF" d="M21.264,25.626c-0.718-0.808-1.403-1.576-2.084-2.347c-0.446-0.505-0.454-1.056-0.028-1.419
		c0.409-0.349,0.937-0.273,1.374,0.214c0.779,0.867,1.555,1.737,2.326,2.611c0.558,0.633,0.56,1.242,0.001,1.878
		c-0.779,0.887-1.564,1.768-2.354,2.646c-0.421,0.468-0.984,0.524-1.38,0.155c-0.385-0.36-0.38-0.894,0.028-1.357
		C19.838,27.222,20.536,26.444,21.264,25.626z"/>
	<path fill="#FFFFFF" d="M8.131,25.626c0.692,0.777,1.36,1.522,2.02,2.274c0.136,0.155,0.277,0.325,0.352,0.513
		c0.157,0.391-0.016,0.836-0.37,1.057c-0.357,0.224-0.83,0.172-1.146-0.165c-0.471-0.502-0.921-1.024-1.379-1.538
		c-0.378-0.425-0.763-0.844-1.131-1.278c-0.47-0.554-0.484-1.17-0.016-1.708c0.815-0.938,1.643-1.864,2.477-2.785
		c0.387-0.427,0.932-0.467,1.316-0.125c0.384,0.341,0.406,0.889,0.035,1.324c-0.349,0.41-0.716,0.806-1.074,1.208
		C8.867,24.795,8.521,25.187,8.131,25.626z"/>
	<path fill="#FFFFFF" d="M16.49,22.005c-0.173,0.722-0.371,1.55-0.568,2.379c-0.398,1.672-0.794,3.345-1.192,5.018
		c-0.014,0.058-0.034,0.115-0.052,0.172c-0.164,0.527-0.61,0.811-1.089,0.693c-0.489-0.12-0.779-0.572-0.656-1.108
		c0.371-1.617,0.761-3.23,1.147-4.844c0.215-0.901,0.421-1.805,0.66-2.701c0.124-0.463,0.568-0.722,0.996-0.644
		C16.191,21.053,16.5,21.43,16.49,22.005z"/>
	<path fill="#FFFFFF" d="M14.591,35.399c0.517-0.003,0.916,0.391,0.912,0.901c-0.004,0.508-0.415,0.909-0.923,0.899
		c-0.479-0.009-0.887-0.412-0.898-0.888C13.671,35.815,14.083,35.402,14.591,35.399z"/>
	<path fill="#FFFFFF" d="M31.977,12.041c-1.377,0-2.755,0.027-4.131-0.007c-1.525-0.038-2.735-1.19-2.925-2.717
		c-0.177-1.428,0.786-2.842,2.216-3.235c0.243-0.067,0.5-0.116,0.751-0.116c2.724-0.008,5.449-0.031,8.172,0.007
		c1.447,0.02,2.566,1,2.884,2.384c0.295,1.281-0.289,2.664-1.48,3.271c-0.475,0.242-1.048,0.377-1.583,0.4
		c-1.3,0.056-2.604,0.018-3.906,0.018C31.977,12.044,31.977,12.042,31.977,12.041z M31.987,7.778c-1.332,0-2.664-0.014-3.995,0.005
		c-0.752,0.011-1.282,0.551-1.272,1.231c0.01,0.669,0.525,1.208,1.251,1.212c2.664,0.017,5.327,0.012,7.991,0.002
		c0.518-0.002,0.921-0.252,1.139-0.738c0.375-0.837-0.219-1.695-1.207-1.71C34.591,7.762,33.289,7.777,31.987,7.778z"/>
	<path fill="#FFFFFF" d="M20.319,9.011c-0.004,1.662-1.362,3.024-3.022,3.031c-1.675,0.007-3.061-1.377-3.054-3.05
		c0.007-1.658,1.371-3.024,3.028-3.033C18.945,5.951,20.323,7.33,20.319,9.011z M17.283,7.783c-0.682-0.001-1.222,0.548-1.215,1.233
		c0.007,0.663,0.537,1.2,1.196,1.213c0.664,0.013,1.24-0.549,1.247-1.217C18.519,8.342,17.96,7.783,17.283,7.783z"/>
	<path fill="#FFFFFF" d="M12.438,8.987c0.007,1.69-1.354,3.059-3.039,3.055c-1.665-0.004-3.016-1.357-3.022-3.026
		C6.371,7.328,7.739,5.952,9.415,5.958C11.079,5.965,12.431,7.319,12.438,8.987z M8.186,8.99c-0.005,0.672,0.553,1.24,1.219,1.24
		c0.669,0,1.222-0.562,1.218-1.239c-0.004-0.665-0.528-1.195-1.194-1.209C8.751,7.77,8.191,8.313,8.186,8.99z"/>
	<path fill="#FFFFFF" d="M29.897,34.354c-0.001-3.059,2.477-5.532,5.538-5.527c3.054,0.005,5.544,2.5,5.532,5.544
		c-0.011,3.018-2.507,5.511-5.526,5.518C32.395,39.896,29.898,37.403,29.897,34.354z M31.713,34.329
		c-0.009,2.07,1.667,3.756,3.724,3.747c2.038-0.009,3.713-1.688,3.714-3.724c0.001-2.044-1.664-3.71-3.713-3.713
		C33.378,30.635,31.721,32.277,31.713,34.329z"/>
</g>
</svg>
