<?xml version="1.0" encoding="utf-8"?>
<!-- Generator: Adobe Illustrator 17.0.0, SVG Export Plug-In . SVG Version: 6.00 Build 0)  -->
<!DOCTYPE svg PUBLIC "-//W3C//DTD SVG 1.1//EN" "http://www.w3.org/Graphics/SVG/1.1/DTD/svg11.dtd">
<svg version="1.1" id="Layer_1" xmlns="http://www.w3.org/2000/svg" xmlns:xlink="http://www.w3.org/1999/xlink" x="0px" y="0px"
	 width="48px" height="48px" viewBox="0 0 48 48" enable-background="new 0 0 48 48" xml:space="preserve">
<g>
	<path fill="#21376D" d="M39.665,14.232c-12.567,0-25.058,0-37.597,0c0,0.182,0,0.341,0,0.499c0,6.004-0.001,12.008,0,18.012
		c0,2.089,1.3,3.396,3.381,3.396c5.792,0.001,11.583,0,17.375,0.001c0.163,0,0.33-0.016,0.488,0.012
		c0.422,0.076,0.676,0.338,0.677,0.77c0,0.433-0.255,0.692-0.676,0.771c-0.142,0.027-0.293,0.012-0.439,0.012
		c-5.808,0-11.616,0.002-17.424,0c-2.938-0.001-4.946-2.009-4.947-4.948c-0.002-7.146-0.002-14.292,0-21.438
		c0.001-2.937,2.01-4.944,4.95-4.944c10.278-0.002,20.557-0.002,30.835,0c2.939,0.001,4.941,2.007,4.944,4.95
		c0.003,2.203,0.01,4.405-0.012,6.607c-0.003,0.265-0.108,0.618-0.296,0.767c-0.184,0.147-0.594,0.196-0.795,0.087
		c-0.219-0.119-0.43-0.464-0.441-0.719c-0.048-1.091-0.021-2.185-0.021-3.278C39.665,14.614,39.665,14.438,39.665,14.232z
		 M39.665,12.618c0-0.414,0-0.801,0-1.189c-0.001-2.227-1.26-3.487-3.485-3.487c-10.211,0-20.423,0-30.634,0
		c-0.163,0-0.326-0.003-0.489,0.004c-1.393,0.059-2.631,1.052-2.885,2.423c-0.134,0.725-0.098,1.481-0.141,2.249
		C14.606,12.618,27.096,12.618,39.665,12.618z"/>
	<path fill="#21376D" d="M36.142,19.691c2.153,0,4.306-0.003,6.459,0.001c2.874,0.005,4.892,2.022,4.895,4.898
		c0.005,4.045,0.005,8.09,0,12.136c-0.004,2.876-2.022,4.893-4.898,4.896c-4.306,0.004-8.612,0.004-12.919,0
		c-2.872-0.003-4.893-2.026-4.896-4.899c-0.004-4.045-0.004-8.09,0-12.136c0.003-2.871,2.026-4.89,4.899-4.895
		C31.836,19.688,33.989,19.691,36.142,19.691z M36.14,40.056c2.169,0,4.338,0.004,6.507-0.001c1.95-0.004,3.281-1.338,3.283-3.295
		c0.004-4.061,0.004-8.122,0-12.182c-0.002-1.993-1.323-3.318-3.307-3.319c-4.322-0.003-8.643-0.003-12.965,0
		c-1.984,0.001-3.306,1.328-3.307,3.319c-0.003,4.044-0.003,8.089,0,12.133c0.001,2.02,1.318,3.342,3.332,3.345
		C31.834,40.059,33.987,40.056,36.14,40.056z"/>
	<path fill="#21376D" d="M12.642,22.824c2.627,0,5.254,0,7.881,0c0.147,0,0.297-0.014,0.44,0.012
		c0.422,0.078,0.676,0.338,0.676,0.771c0,0.433-0.255,0.692-0.677,0.771c-0.142,0.027-0.293,0.012-0.44,0.012
		c-5.254,0-10.508,0-15.763,0c-0.147,0-0.297,0.014-0.44-0.012c-0.421-0.079-0.676-0.338-0.676-0.771
		c0-0.433,0.255-0.692,0.677-0.77c0.142-0.026,0.293-0.012,0.44-0.012C7.387,22.824,10.014,22.824,12.642,22.824z"/>
	<path fill="#21376D" d="M12.592,21.258c-2.611,0-5.221,0-7.832-0.001c-0.163,0-0.331,0.013-0.488-0.019
		C3.867,21.153,3.65,20.88,3.65,20.474c0-0.405,0.216-0.679,0.622-0.764c0.157-0.033,0.325-0.019,0.488-0.019
		c5.254-0.001,10.508-0.001,15.761,0c0.147,0,0.296-0.011,0.44,0.011c0.434,0.068,0.67,0.343,0.669,0.771
		c0,0.428-0.237,0.702-0.67,0.772c-0.143,0.023-0.293,0.012-0.44,0.012C17.878,21.258,15.235,21.258,12.592,21.258z"/>
	<path fill="#21376D" d="M14.608,26.788c-0.034,0.106-0.067,0.249-0.125,0.381c-1.009,2.277-2.021,4.553-3.032,6.83
		c-0.151,0.339-0.399,0.625-0.772,0.549c-0.262-0.053-0.539-0.272-0.699-0.495c-0.1-0.139-0.056-0.452,0.027-0.642
		c1.01-2.312,2.038-4.616,3.065-6.921c0.172-0.386,0.47-0.595,0.897-0.509C14.368,26.061,14.565,26.346,14.608,26.788z"/>
	<path fill="#21376D" d="M7.942,18.125c-1.109,0-2.219,0.003-3.328-0.001c-0.629-0.002-0.969-0.281-0.97-0.782
		c0-0.502,0.338-0.782,0.968-0.782c2.219-0.003,4.438-0.003,6.656,0c0.63,0.001,0.97,0.28,0.97,0.78
		c-0.001,0.502-0.34,0.782-0.968,0.784C10.161,18.127,9.052,18.125,7.942,18.125z"/>
	<path fill="#21376D" d="M7.847,29.879c0.61,0.597,1.163,1.127,1.704,1.669c0.427,0.428,0.46,0.84,0.12,1.198
		c-0.356,0.374-0.787,0.346-1.232-0.094c-0.707-0.7-1.412-1.403-2.11-2.112c-0.463-0.47-0.47-0.853-0.018-1.313
		c0.709-0.722,1.425-1.436,2.145-2.147c0.415-0.41,0.865-0.445,1.207-0.111c0.342,0.335,0.318,0.795-0.088,1.207
		C9.024,28.731,8.462,29.273,7.847,29.879z"/>
	<path fill="#21376D" d="M17.43,29.864c-0.608-0.597-1.158-1.128-1.698-1.669c-0.424-0.425-0.459-0.839-0.12-1.195
		c0.355-0.373,0.788-0.347,1.23,0.09c0.706,0.698,1.409,1.399,2.106,2.106c0.477,0.483,0.478,0.868,0.005,1.348
		c-0.697,0.707-1.4,1.408-2.106,2.106c-0.437,0.432-0.897,0.468-1.24,0.113c-0.34-0.353-0.29-0.795,0.15-1.239
		C16.295,30.985,16.838,30.451,17.43,29.864z"/>
	<path fill="#21376D" d="M5.977,11.07c-0.277,0-0.556,0.018-0.831-0.005c-0.437-0.037-0.721-0.361-0.718-0.78
		c0.003-0.421,0.288-0.747,0.73-0.766c0.553-0.024,1.11-0.025,1.663,0.001c0.437,0.021,0.722,0.358,0.718,0.777
		c-0.004,0.42-0.29,0.735-0.73,0.769C6.533,11.088,6.254,11.07,5.977,11.07z"/>
	<path fill="#21376D" d="M9.936,9.513c0.261-0.001,0.523-0.017,0.782,0.003c0.443,0.033,0.73,0.342,0.737,0.762
		c0.007,0.419-0.277,0.763-0.712,0.784c-0.569,0.027-1.143,0.033-1.711-0.003c-0.435-0.028-0.662-0.327-0.685-0.755
		C8.325,9.885,8.621,9.555,9.056,9.519C9.347,9.495,9.642,9.514,9.936,9.513z"/>
	<path fill="#21376D" d="M13.781,11.071c-0.261,0-0.523,0.016-0.782-0.004c-0.444-0.034-0.73-0.341-0.738-0.762
		c-0.008-0.42,0.276-0.764,0.71-0.784c0.569-0.027,1.143-0.032,1.711,0.003c0.436,0.027,0.663,0.325,0.686,0.753
		c0.022,0.418-0.273,0.75-0.707,0.787c-0.291,0.025-0.587,0.005-0.88,0.005C13.781,11.07,13.781,11.07,13.781,11.071z"/>
	<path fill="#21376D" d="M34.362,35.356c-0.777-0.014-1.114-0.582-0.859-1.172c0.503-1.165,1.029-2.321,1.545-3.481
		c0.509-1.145,1.016-2.292,1.526-3.436c0.154-0.346,0.434-0.598,0.799-0.498c0.258,0.07,0.511,0.311,0.667,0.543
		c0.089,0.131,0.029,0.42-0.05,0.599c-1.013,2.311-2.031,4.62-3.08,6.914C34.793,35.08,34.48,35.246,34.362,35.356z"/>
	<path fill="#21376D" d="M31.332,30.644c0.629,0.618,1.181,1.149,1.721,1.693c0.424,0.427,0.455,0.841,0.111,1.198
		c-0.358,0.371-0.785,0.34-1.232-0.103c-0.707-0.7-1.412-1.403-2.11-2.112c-0.461-0.468-0.465-0.851-0.011-1.312
		c0.721-0.733,1.447-1.46,2.18-2.18c0.398-0.39,0.818-0.402,1.161-0.061c0.344,0.342,0.338,0.766-0.053,1.161
		C32.538,29.493,31.957,30.039,31.332,30.644z"/>
	<path fill="#21376D" d="M40.955,30.67c-0.634-0.62-1.185-1.151-1.726-1.693c-0.425-0.425-0.458-0.84-0.117-1.196
		c0.357-0.372,0.787-0.341,1.231,0.098c0.673,0.664,1.354,1.32,2.01,2.001c0.595,0.617,0.599,0.923,0.009,1.538
		c-0.688,0.718-1.4,1.413-2.114,2.105c-0.371,0.36-0.794,0.353-1.126,0.02c-0.331-0.332-0.329-0.746,0.025-1.126
		c0.278-0.298,0.57-0.583,0.863-0.866C40.304,31.271,40.603,30.999,40.955,30.67z"/>
</g>
</svg>
