<?xml version="1.0" encoding="utf-8"?>
<!-- Generator: Adobe Illustrator 17.0.0, SVG Export Plug-In . SVG Version: 6.00 Build 0)  -->
<!DOCTYPE svg PUBLIC "-//W3C//DTD SVG 1.1//EN" "http://www.w3.org/Graphics/SVG/1.1/DTD/svg11.dtd">
<svg version="1.1" id="Layer_1" xmlns="http://www.w3.org/2000/svg" xmlns:xlink="http://www.w3.org/1999/xlink" x="0px" y="0px"
	 width="48px" height="48px" viewBox="0 0 48 48" enable-background="new 0 0 48 48" xml:space="preserve">
<g>
	<path fill="#21376D" d="M38.846,35.95c0,0.254,0,0.453,0,0.651c0,3.366,0.001,6.732-0.001,10.098c0,0.758-0.045,0.801-0.816,0.801
		c-12.24,0-24.48,0-36.72,0c-0.776,0-0.808-0.032-0.808-0.803c-0.001-5.049,0-10.098,0-15.147c0-1.172-0.001-2.344,0-3.515
		c0.001-0.799,0.045-0.845,0.829-0.846c3.349-0.001,6.698,0,10.047,0c0.201,0,0.402,0,0.672,0c0-0.259,0-0.474,0-0.689
		c0-8.381,0-16.761,0-25.142c0-0.843,0.013-0.857,0.854-0.857c11.254,0,22.508,0,33.762,0c0.808,0,0.835,0.027,0.835,0.828
		c0,11.27,0,22.539,0,33.809c0,0.782-0.03,0.812-0.797,0.812c-2.414,0.001-4.828,0-7.242,0C39.278,35.95,39.095,35.95,38.846,35.95z
		 M1.357,30.948c0,5.26,0,10.47,0,15.687c12.232,0,24.429,0,36.608,0c0-5.25,0-10.461,0-15.687
		C25.741,30.948,13.572,30.948,1.357,30.948z M26.505,27.236c0.152-0.23,0.257-0.381,0.355-0.536
		c2.273-3.643,4.543-7.289,6.822-10.928c0.196-0.314,0.422-0.623,0.689-0.875c0.807-0.764,1.889-0.764,2.697,0.003
		c0.279,0.265,0.509,0.593,0.714,0.921c2.027,3.237,4.043,6.481,6.064,9.722c0.089,0.142,0.188,0.278,0.362,0.534
		c0-0.335,0-0.505,0-0.674c0-4.25,0-8.499,0-12.749c0-1.922-1.001-2.928-2.914-2.928c-7.683-0.001-15.366-0.001-23.049,0
		c-1.881,0-2.91,1.021-2.911,2.887c-0.001,4.606,0,9.213,0,13.819c0,0.162,0,0.324,0,0.625c0.18-0.264,0.286-0.409,0.381-0.56
		c1.143-1.829,2.283-3.66,3.428-5.488c0.144-0.229,0.294-0.461,0.475-0.66c0.748-0.822,1.792-0.81,2.528,0.027
		c0.167,0.19,0.303,0.409,0.438,0.624c1.191,1.9,2.377,3.802,3.566,5.702C26.247,26.856,26.353,27.007,26.505,27.236z
		 M14.514,27.147c0-0.261,0-0.464,0-0.667c0-4.658-0.002-9.316,0.001-13.974c0.001-2.176,1.431-3.601,3.615-3.602
		c7.752-0.003,15.504-0.003,23.256,0c2.255,0.001,3.64,1.402,3.64,3.672c0.002,4.794,0,9.588,0.001,14.382
		c0,1.088,0.027,2.176-0.004,3.263c-0.045,1.577-1.047,2.867-2.597,3.152c-0.939,0.173-1.926,0.086-2.891,0.114
		c-0.212,0.006-0.424,0.001-0.626,0.001c0,0.588,0,1.092,0,1.605c2.6,0,5.171,0,7.745,0c0-9.283,0-18.526,0-27.793
		c-11.266,0-22.507,0-33.747,0c0,6.635,0,13.237,0,19.847C13.448,27.147,13.952,27.147,14.514,27.147z M46.649,1.363
		c-11.287,0-22.515,0-33.747,0c0,1.695,0,3.352,0,5.029c11.261,0,22.49,0,33.747,0C46.649,4.704,46.649,3.047,46.649,1.363z
		 M41.191,22.846c-3.684,2.326-7.305,2.314-10.953,0.002c-0.89,1.425-1.773,2.839-2.696,4.316c0.293,0,0.48,0,0.667,0
		c3.299,0,6.597,0,9.896,0c0.676,0,0.786,0.113,0.787,0.803c0.001,1.377,0,2.755,0,4.132c0,0.179,0,0.358,0,0.562
		c0.993,0,1.91,0.034,2.825-0.009c1.156-0.055,2.185-0.793,2.349-1.84c0.159-1.013,0.096-2.062,0.125-3.095
		c0.002-0.061-0.042-0.127-0.077-0.184C43.145,25.976,42.174,24.421,41.191,22.846z M1.349,30.018c12.239,0,24.418,0,36.6,0
		c0-0.663,0-1.283,0-1.954c-12.211,0-24.392,0-36.6,0C1.349,28.715,1.349,29.353,1.349,30.018z M30.73,22.085
		c2.566,2.197,7.334,2.202,9.973,0c-1.323-2.102-2.621-4.229-3.99-6.308c-0.558-0.848-1.482-0.808-2.053,0.07
		C33.318,17.909,32.034,20.006,30.73,22.085z M25.46,27.143c-1.294-2.065-2.538-4.05-3.783-6.035
		c-0.036-0.057-0.079-0.111-0.123-0.162c-0.439-0.513-0.945-0.515-1.378,0.001c-0.109,0.129-0.199,0.276-0.289,0.419
		c-1.118,1.785-2.234,3.571-3.35,5.358c-0.077,0.123-0.14,0.256-0.228,0.418C19.366,27.143,22.367,27.143,25.46,27.143z"/>
	<path fill="#21376D" d="M19.664,37.297c2.259,0,4.518,0,6.777,0c0.823,0,0.848,0.026,0.849,0.87c0,0.493-0.019,0.986,0.005,1.477
		c0.025,0.492-0.196,0.661-0.667,0.659c-2.123-0.011-4.246-0.005-6.369-0.005c-2.48,0-4.96,0.001-7.439-0.001
		c-0.701,0-0.768-0.067-0.77-0.746c-0.002-0.527-0.003-1.053,0-1.58c0.004-0.585,0.088-0.673,0.684-0.674
		C15.044,37.296,17.354,37.298,19.664,37.297z M26.447,38.152c-4.556,0-9.05,0-13.538,0c0,0.454,0,0.868,0,1.282
		c4.534,0,9.027,0,13.538,0C26.447,38.991,26.447,38.588,26.447,38.152z"/>
	<path fill="#21376D" d="M10.997,35.95c-2.309,0-4.619,0.001-6.928-0.001c-0.615-0.001-0.68-0.066-0.684-0.666
		c-0.003-0.543-0.003-1.087,0-1.63c0.003-0.604,0.073-0.677,0.676-0.677c2.462-0.002,4.925-0.001,7.387-0.001
		c2.157,0,4.313-0.001,6.47,0.001c0.633,0,0.708,0.074,0.713,0.695c0.004,0.543-0.016,1.087,0.006,1.63
		c0.019,0.479-0.17,0.66-0.659,0.657C15.65,35.94,13.324,35.95,10.997,35.95z M4.225,35.103c4.541,0,9.037,0,13.548,0
		c0-0.444,0-0.857,0-1.28c-4.533,0-9.03,0-13.548,0C4.225,34.254,4.225,34.656,4.225,35.103z"/>
	<path fill="#21376D" d="M28.361,41.638c2.296,0,4.591-0.001,6.887,0.001c0.642,0.001,0.7,0.061,0.703,0.702
		c0.003,0.561-0.01,1.123,0.004,1.683c0.01,0.4-0.14,0.596-0.563,0.596c-4.71-0.005-9.42-0.005-14.131-0.001
		c-0.389,0-0.557-0.17-0.552-0.554c0.009-0.595,0.021-1.191-0.004-1.785c-0.021-0.494,0.191-0.652,0.667-0.649
		C23.702,41.646,26.032,41.638,28.361,41.638z M21.553,43.762c4.555,0,9.05,0,13.539,0c0-0.449,0-0.863,0-1.268
		c-4.535,0-9.03,0-13.539,0C21.553,42.931,21.553,43.333,21.553,43.762z"/>
	<path fill="#21376D" d="M12.414,44.617c-1.785,0-3.571,0.001-5.356,0c-0.75,0-0.799-0.051-0.799-0.821
		c-0.001-0.527,0.006-1.054-0.002-1.581c-0.006-0.406,0.175-0.58,0.586-0.58c3.741,0.006,7.482,0.006,11.222,0
		c0.384-0.001,0.568,0.154,0.564,0.542c-0.006,0.612-0.014,1.225,0.003,1.836c0.013,0.475-0.216,0.612-0.659,0.609
		C16.121,44.609,14.268,44.617,12.414,44.617z M17.794,42.494c-3.59,0-7.131,0-10.676,0c0,0.449,0,0.862,0,1.26
		c3.581,0,7.123,0,10.676,0C17.794,43.322,17.794,42.932,17.794,42.494z"/>
	<path fill="#21376D" d="M25.443,35.95c-1.359,0-2.719-0.014-4.078,0.007c-0.485,0.008-0.68-0.167-0.66-0.654
		c0.025-0.594,0.012-1.189,0.004-1.784c-0.005-0.387,0.17-0.548,0.557-0.547c2.787,0.006,5.574,0.006,8.361,0
		c0.391-0.001,0.562,0.178,0.563,0.552c0.001,0.612-0.006,1.224,0.003,1.835c0.006,0.432-0.186,0.602-0.621,0.597
		C28.197,35.94,26.82,35.95,25.443,35.95z M29.343,33.825c-2.624,0-5.197,0-7.775,0c0,0.445,0,0.858,0,1.275
		c2.608,0,5.179,0,7.775,0C29.343,34.666,29.343,34.265,29.343,33.825z"/>
	<path fill="#21376D" d="M8.134,40.298c-0.441,0-0.882,0.001-1.324-0.001c-0.376-0.001-0.557-0.188-0.553-0.569
		c0.006-0.611,0.009-1.222-0.001-1.833c-0.007-0.402,0.166-0.6,0.574-0.599c0.865,0.004,1.731,0.004,2.596,0
		c0.385-0.001,0.553,0.191,0.551,0.567c-0.005,0.628-0.003,1.256-0.001,1.884c0.002,0.385-0.195,0.554-0.569,0.551
		C8.982,40.295,8.558,40.298,8.134,40.298z M9.149,39.448c0-0.382,0.021-0.72-0.012-1.052c-0.01-0.101-0.165-0.264-0.259-0.268
		c-0.585-0.025-1.171-0.012-1.762-0.012c0,0.484,0,0.895,0,1.332C7.788,39.448,8.423,39.448,9.149,39.448z"/>
	<path fill="#21376D" d="M26.805,11.142c2.271,0,4.125,1.849,4.125,4.115c0.001,2.256-1.869,4.125-4.126,4.125
		c-2.258,0-4.124-1.867-4.124-4.126C22.681,12.989,24.533,11.142,26.805,11.142z M26.805,11.96c-1.818,0-3.311,1.495-3.305,3.31
		c0.007,1.79,1.481,3.271,3.279,3.292c1.799,0.022,3.324-1.485,3.331-3.292C30.118,13.457,28.623,11.96,26.805,11.96z"/>
	<path fill="#21376D" d="M21.91,3.365c-2.327,0-4.654,0-6.981-0.001c-0.153,0-0.334,0.042-0.451-0.025
		c-0.153-0.087-0.35-0.263-0.351-0.401c-0.001-0.129,0.214-0.29,0.367-0.378c0.103-0.059,0.265-0.019,0.401-0.019
		c4.688,0,9.376,0,14.063,0c0.136,0,0.294-0.035,0.402,0.021c0.144,0.075,0.357,0.234,0.347,0.34
		c-0.014,0.156-0.172,0.336-0.318,0.43c-0.11,0.072-0.296,0.032-0.449,0.032C26.598,3.366,24.254,3.365,21.91,3.365z"/>
	<path fill="#21376D" d="M19.457,4.398c1.563,0,3.125,0.002,4.688-0.001c0.302-0.001,0.638-0.002,0.644,0.391
		c0.007,0.422-0.342,0.433-0.664,0.433C21,5.219,17.875,5.219,14.749,5.22c-0.3,0-0.629-0.001-0.64-0.401
		c-0.012-0.449,0.349-0.421,0.659-0.421C16.331,4.398,17.894,4.398,19.457,4.398z"/>
	<path fill="#21376D" d="M36.712,2.541c1.419,0.004,1.336-0.145,1.34,1.356c0.004,1.442,0.041,1.325-1.332,1.324
		c-1.415-0.002-1.367,0.135-1.364-1.341C35.359,2.385,35.281,2.547,36.712,2.541z M36.216,3.392c0,0.338,0,0.649,0,0.969
		c0.344,0,0.653,0,0.966,0c0-0.346,0-0.653,0-0.969C36.84,3.392,36.542,3.392,36.216,3.392z"/>
	<path fill="#21376D" d="M41.753,3.899c0.003,1.392,0.126,1.325-1.321,1.323c-1.501-0.002-1.348,0.087-1.346-1.342
		c0.003-1.452-0.17-1.337,1.339-1.339C41.907,2.538,41.749,2.446,41.753,3.899z M40.911,3.406c-0.356,0-0.667,0-0.961,0
		c0,0.351,0,0.661,0,0.962c0.344,0,0.642,0,0.961,0C40.911,4.038,40.911,3.74,40.911,3.406z"/>
	<path fill="#21376D" d="M45.459,3.899c0.002,1.417,0.111,1.322-1.32,1.322c-1.451,0-1.361,0.099-1.358-1.343
		c0.003-1.457-0.111-1.339,1.354-1.337C45.607,2.543,45.452,2.415,45.459,3.899z M43.645,3.389c0,0.365,0,0.673,0,0.981
		c0.34,0,0.638,0,0.958,0c0-0.339,0-0.648,0-0.981C44.271,3.389,43.973,3.389,43.645,3.389z"/>
</g>
</svg>
