<?xml version="1.0" encoding="utf-8"?>
<!-- Generator: Adobe Illustrator 17.0.0, SVG Export Plug-In . SVG Version: 6.00 Build 0)  -->
<!DOCTYPE svg PUBLIC "-//W3C//DTD SVG 1.1//EN" "http://www.w3.org/Graphics/SVG/1.1/DTD/svg11.dtd">
<svg version="1.1" id="Layer_1" xmlns="http://www.w3.org/2000/svg" xmlns:xlink="http://www.w3.org/1999/xlink" x="0px" y="0px"
	 width="48px" height="48px" viewBox="0 0 48 48" enable-background="new 0 0 48 48" xml:space="preserve">
<path fill="#21376D" d="M21.887,42.407H3.803c-1.097,0-1.991-0.894-1.991-1.99V8.986H41.96v11.598c0,0.361,0.294,0.654,0.655,0.654
	c0.362,0,0.656-0.293,0.656-0.654V5.79c0-1.82-1.484-3.301-3.303-3.301H3.802C1.982,2.489,0.5,3.969,0.5,5.79v34.626
	c0,1.82,1.482,3.3,3.302,3.3h18.083c0.361,0,0.654-0.294,0.654-0.653c0-0.363-0.293-0.656-0.654-0.656
	C21.885,42.407,21.887,42.407,21.887,42.407z M3.803,3.798h36.166c1.098,0,1.991,0.894,1.991,1.99v1.885H1.814V5.788
	C1.814,4.69,2.707,3.798,3.803,3.798z M35.909,22.418c-6.61,0-11.593,2.171-11.593,5.046v13.001c0,2.878,4.984,5.045,11.593,5.045
	S47.5,43.341,47.5,40.466v-13C47.5,24.589,42.519,22.418,35.909,22.418z M46.189,33.843c0,1.769-4.221,3.736-10.28,3.736
	s-10.284-1.969-10.284-3.736V29.87c1.9,1.597,5.7,2.641,10.284,2.641c4.583,0,8.383-1.043,10.28-2.641
	C46.189,29.87,46.189,33.843,46.189,33.843z M35.909,23.729c6.059,0,10.28,1.969,10.28,3.736S41.968,31.2,35.909,31.2
	s-10.284-1.969-10.284-3.735C25.625,25.698,29.848,23.729,35.909,23.729z M35.909,44.201c-6.059,0-10.284-1.971-10.284-3.736v-4.217
	c1.9,1.597,5.7,2.642,10.284,2.642c4.583,0,8.383-1.045,10.28-2.642v4.217C46.189,42.232,41.968,44.201,35.909,44.201z
	 M17.773,23.397c-0.168,0-0.336-0.063-0.463-0.191c-0.256-0.256-0.256-0.671,0-0.926l3.877-3.878c0.257-0.257,0.671-0.257,0.926,0
	c0.255,0.256,0.257,0.671,0,0.926l-3.877,3.878C18.109,23.333,17.942,23.397,17.773,23.397z M21.65,19.52
	c-0.168,0-0.336-0.063-0.463-0.192L17.31,15.45c-0.256-0.256-0.256-0.671,0-0.926c0.256-0.255,0.671-0.256,0.927,0l3.878,3.878
	c0.256,0.256,0.256,0.671,0,0.926c-0.128,0.128-0.297,0.192-0.463,0.192H21.65z M8.59,23.397c-0.168,0-0.337-0.063-0.463-0.191
	l-3.877-3.878c-0.256-0.255-0.256-0.67,0-0.926c0.256-0.255,0.671-0.257,0.926,0l3.877,3.878c0.257,0.256,0.257,0.671,0,0.926
	C8.925,23.333,8.759,23.397,8.59,23.397z M4.714,19.52c-0.168,0-0.334-0.063-0.463-0.192c-0.256-0.255-0.256-0.67,0-0.926
	l3.878-3.878c0.255-0.256,0.671-0.256,0.926,0c0.255,0.256,0.257,0.67,0,0.926l-3.877,3.878C5.05,19.457,4.881,19.52,4.714,19.52z
	 M12.202,26.044c-0.037,0-0.076-0.003-0.113-0.009c-0.356-0.061-0.595-0.399-0.533-0.757l2.259-13.046
	c0.062-0.357,0.401-0.595,0.758-0.535c0.357,0.062,0.595,0.402,0.533,0.758l-2.259,13.048c-0.055,0.316-0.332,0.541-0.644,0.541
	L12.202,26.044L12.202,26.044z M20.082,32.851h-8.755c-0.36,0-0.654-0.294-0.654-0.653c0-0.364,0.294-0.656,0.654-0.656h8.755
	c0.361,0,0.655,0.292,0.655,0.656C20.737,32.557,20.443,32.851,20.082,32.851z M9.121,32.851h-2.84
	c-0.361,0-0.654-0.294-0.654-0.653c0-0.364,0.293-0.656,0.654-0.656h2.84c0.361,0,0.655,0.292,0.655,0.656
	C9.776,32.557,9.482,32.851,9.121,32.851z M20.082,35.723h-13.8c-0.361,0-0.654-0.294-0.654-0.655c0-0.36,0.293-0.653,0.654-0.653
	h13.8c0.361,0,0.655,0.294,0.655,0.653C20.737,35.429,20.443,35.723,20.082,35.723z M20.082,38.594h-13.8
	c-0.361,0-0.654-0.294-0.654-0.655s0.293-0.655,0.654-0.655h13.8c0.361,0,0.655,0.294,0.655,0.655S20.443,38.594,20.082,38.594z"/>
</svg>
