<?xml version="1.0" encoding="utf-8"?>
<!-- Generator: Adobe Illustrator 17.0.0, SVG Export Plug-In . SVG Version: 6.00 Build 0)  -->
<!DOCTYPE svg PUBLIC "-//W3C//DTD SVG 1.1//EN" "http://www.w3.org/Graphics/SVG/1.1/DTD/svg11.dtd">
<svg version="1.1" id="Layer_1" xmlns="http://www.w3.org/2000/svg" xmlns:xlink="http://www.w3.org/1999/xlink" x="0px" y="0px"
	 width="48px" height="48px" viewBox="0 0 48 48" enable-background="new 0 0 48 48" xml:space="preserve">
<g>
	<path fill="#21376D" d="M10.781,47.5c-0.73-0.152-1.474-0.256-2.189-0.463c-4.861-1.407-8.125-6.075-7.803-11.126
		c0.349-5.47,5.011-9.942,10.487-10.142c1.927-0.07,3.599,0.578,5.209,1.494c2.654,1.51,4.962,3.458,7.065,5.659
		c0.158,0.165,0.31,0.334,0.533,0.574c0.994-1.016,1.925-2.053,2.945-2.993c1.715-1.582,3.577-2.981,5.742-3.897
		c3.79-1.604,7.286-0.851,10.404,1.616c5.575,4.41,5.336,12.99-0.419,17.167c-1.518,1.102-3.208,1.826-5.095,2.035
		c-0.088,0.01-0.172,0.05-0.258,0.077c-0.52,0-1.04,0-1.561,0c-0.536-0.108-1.077-0.196-1.608-0.327
		c-2.05-0.505-3.75-1.67-5.411-2.905c-2.395-1.781-4.408-3.959-6.406-6.153c-0.358-0.393-0.72-0.783-1.027-1.116
		c-1.734,1.561-3.435,3.093-5.154,4.641c0.692,0.123,1.383,0.245,2.073,0.37c0.585,0.106,0.594,0.123,0.402,0.669
		c-0.142,0.403-0.286,0.805-0.425,1.209c-0.064,0.184-0.118,0.372-0.177,0.558c0.035,0.02,0.07,0.04,0.105,0.059
		c0.586-0.462,1.177-0.916,1.755-1.387c0.414-0.338,0.805-0.705,1.22-1.042c0.071-0.058,0.212-0.03,0.32-0.041
		c-0.017,0.107-0.017,0.222-0.056,0.32c-0.025,0.064-0.108,0.104-0.165,0.155c-2.587,2.31-5.327,4.349-8.855,4.989
		C11.883,47.5,11.332,47.5,10.781,47.5z M26.95,36.622c0.24,0.254,0.456,0.49,0.68,0.716c1.854,1.872,3.771,3.668,6.097,4.957
		c0.82,0.454,1.675,0.819,2.639,0.826c4.323,0.034,7.48-4.236,6.187-8.368c-1.256-4.013-5.336-5.691-9.009-3.673
		C30.991,32.482,28.99,34.554,26.95,36.622z M21.214,36.603c-0.552-0.489-1.013-0.867-1.441-1.281
		c-1.63-1.575-3.298-3.102-5.283-4.229c-0.908-0.515-1.853-0.947-2.931-0.945c-2.664,0.004-5.089,1.718-6.014,4.249
		c-0.927,2.536-0.168,5.44,1.882,7.162c1.704,1.431,4.572,2.436,7.128,0.537c1.507-1.119,3.001-2.259,4.462-3.436
		C19.751,38.07,20.399,37.373,21.214,36.603z M19.136,32.167c0.291,0.951,0.552,1.826,0.832,2.695
		c0.044,0.135,0.165,0.251,0.268,0.361c0.951,1.015,1.918,2.015,2.857,3.04c1.932,2.11,3.9,4.18,6.224,5.873
		c0.287,0.209,0.576,0.414,0.968,0.694c-0.216-0.825-0.399-1.515-0.578-2.207c-0.144-0.554-0.114-0.585,0.461-0.633
		c0.624-0.052,1.246-0.119,1.967-0.189c-0.214-0.171-0.33-0.268-0.449-0.359c-2.251-1.723-4.331-3.626-6.19-5.775
		c-0.969-1.12-2.016-2.172-3.039-3.244c-0.114-0.12-0.298-0.242-0.452-0.246C21.075,32.156,20.143,32.167,19.136,32.167z
		 M3.932,40.346c0.287-0.945,0.552-1.805,0.806-2.667c0.042-0.141,0.054-0.3,0.041-0.448c-0.29-3.171,1.709-6.202,4.727-7.15
		c0.307-0.096,0.621-0.168,1.04-0.281c-0.735-0.313-1.362-0.581-1.991-0.846c-0.563-0.238-0.571-0.27-0.168-0.756
		c0.484-0.585,0.968-1.169,1.505-1.817c-0.205,0.011-0.323,0.005-0.435,0.026c-5.315,0.996-9.19,6.715-8.117,11.987
		c0.025,0.124,0.09,0.277,0.187,0.344C2.304,39.272,3.093,39.788,3.932,40.346z M43.407,41.516c0.757-0.299,1.471-0.603,2.202-0.86
		c0.351-0.123,0.544-0.315,0.655-0.672c0.966-3.091,0.662-6.037-1.002-8.82c-0.753-1.259-1.755-2.294-3.071-3.181
		c0.181,0.828,0.326,1.555,0.504,2.275c0.097,0.393,0.014,0.559-0.422,0.563c-0.633,0.006-1.265,0.07-1.981,0.115
		c0.128,0.116,0.18,0.169,0.237,0.215c2.338,1.859,3.23,4.661,2.406,7.544c-0.04,0.141-0.062,0.304-0.034,0.446
		C43.056,39.916,43.229,40.689,43.407,41.516z M30.566,30.89c-0.7-0.079-1.355-0.11-1.991-0.237c-0.7-0.14-1.231-0.018-1.738,0.538
		c-0.807,0.886-1.698,1.695-2.566,2.548c0.834,0.897,1.61,1.732,2.494,2.684c0.86-0.906,1.689-1.778,2.517-2.651
		c0.042-0.044,0.091-0.087,0.114-0.141C29.78,32.738,30.16,31.842,30.566,30.89z"/>
	<path fill="#21376D" d="M25.836,0.5c0.122,0.608,0.274,1.213,0.355,1.827c0.05,0.377,0.152,0.637,0.561,0.692
		c0.074,0.01,0.154,0.037,0.212,0.082c0.665,0.504,1.179,0.231,1.75-0.235c0.999-0.815,1.024-0.783,1.948,0.142
		c0.508,0.509,1.008,1.025,1.528,1.521c0.222,0.212,0.251,0.393,0.045,0.623c-0.122,0.136-0.223,0.291-0.332,0.438
		c-0.881,1.184-0.886,1.186-0.26,2.505c0.05,0.105,0.217,0.195,0.343,0.218c0.556,0.102,1.115,0.191,1.676,0.255
		c0.294,0.033,0.388,0.169,0.385,0.447c-0.008,1.04-0.011,2.08,0.001,3.12c0.003,0.294-0.122,0.4-0.398,0.433
		c-0.546,0.065-1.093,0.136-1.631,0.248c-0.154,0.032-0.304,0.192-0.406,0.33c-0.096,0.13-0.094,0.332-0.19,0.462
		c-0.446,0.604-0.26,1.088,0.203,1.591c0.303,0.33,0.718,0.755,0.703,1.122c-0.014,0.335-0.531,0.656-0.838,0.972
		c-0.48,0.493-0.981,0.966-1.452,1.467c-0.228,0.243-0.407,0.243-0.659,0.037c-0.414-0.338-0.866-0.629-1.28-0.968
		c-0.201-0.164-0.362-0.176-0.572-0.047c-0.142,0.088-0.297,0.18-0.457,0.207c-0.663,0.115-0.93,0.507-0.933,1.164
		c-0.001,0.379-0.099,0.756-0.147,1.135c-0.03,0.233-0.135,0.344-0.388,0.342c-1.071-0.009-2.141-0.011-3.212,0.001
		c-0.291,0.003-0.363-0.156-0.394-0.39c-0.07-0.53-0.15-1.059-0.215-1.59c-0.03-0.248-0.105-0.434-0.388-0.484
		c-0.148-0.026-0.31-0.071-0.427-0.159c-0.604-0.458-1.088-0.259-1.593,0.2c-0.331,0.301-0.755,0.713-1.121,0.697
		c-0.336-0.014-0.657-0.529-0.971-0.836c-0.471-0.459-0.911-0.951-1.402-1.387c-0.319-0.284-0.302-0.497-0.046-0.801
		c0.325-0.385,0.599-0.812,0.916-1.204c0.158-0.195,0.183-0.354,0.047-0.57c-0.112-0.179-0.221-0.381-0.253-0.586
		c-0.093-0.604-0.482-0.765-1.021-0.798c-0.41-0.025-0.816-0.121-1.226-0.165c-0.244-0.026-0.349-0.133-0.348-0.379
		c0.005-1.071,0.006-2.141,0-3.212c-0.002-0.274,0.129-0.365,0.386-0.395c0.561-0.066,1.122-0.145,1.676-0.256
		c0.139-0.028,0.286-0.178,0.365-0.311c0.116-0.193,0.14-0.445,0.266-0.63c0.318-0.466,0.247-0.841-0.133-1.24
		c-0.293-0.307-0.511-0.686-0.777-1.02c-0.166-0.209-0.147-0.365,0.043-0.551c0.753-0.739,1.5-1.485,2.237-2.24
		c0.195-0.2,0.346-0.183,0.548-0.024c0.445,0.349,0.892,0.698,1.363,1.01c0.129,0.085,0.35,0.066,0.521,0.041
		c0.145-0.021,0.274-0.156,0.419-0.175c0.805-0.107,0.974-0.651,1.023-1.348c0.031-0.447,0.179-0.886,0.275-1.328
		C23.388,0.5,24.612,0.5,25.836,0.5z M29.421,10.578c0.002-3.003-2.422-5.428-5.423-5.426c-2.981,0.002-5.409,2.415-5.418,5.386
		c-0.009,2.996,2.419,5.453,5.401,5.464C26.962,16.013,29.419,13.564,29.421,10.578z"/>
	<path fill="#21376D" d="M47.5,18.033c-0.174,0.334-0.307,0.699-0.53,0.997c-0.471,0.629-1.145,0.893-1.92,0.906
		c-0.472,0.008-0.944,0.001-1.456,0.001c-0.111,1.541-0.515,2.963-1.353,4.361c0.557-0.203,1.007-0.379,1.466-0.524
		c0.121-0.038,0.272,0.019,0.409,0.032c-0.091,0.113-0.159,0.283-0.276,0.33c-0.623,0.25-1.261,0.464-1.889,0.7
		c-0.271,0.102-0.4,0.034-0.424-0.264c-0.049-0.625-0.124-1.248-0.16-1.873c-0.007-0.13,0.11-0.268,0.171-0.402
		c0.074,0.115,0.195,0.223,0.214,0.346c0.064,0.429,0.092,0.864,0.146,1.424c0.806-1.326,1.18-2.642,1.284-4.106
		c-0.176-0.008-0.336-0.022-0.496-0.022c-1.285-0.002-2.57,0.015-3.854-0.008c-1.099-0.02-1.943-0.638-2.278-1.609
		c-0.314-0.91-0.071-1.934,0.686-2.533c0.335-0.265,0.767-0.432,1.18-0.561c0.234-0.073,0.392-0.128,0.508-0.362
		c0.361-0.724,0.96-1.208,1.719-1.551c-1.24-1.26-2.647-2.07-4.412-2.153c-0.12-0.006-0.245-0.015-0.354-0.057
		c-0.041-0.016-0.078-0.178-0.06-0.191c0.09-0.063,0.199-0.136,0.301-0.136c1.161,0,2.241,0.312,3.203,0.955
		c0.531,0.355,0.998,0.805,1.514,1.184c0.162,0.119,0.401,0.226,0.589,0.204c1.379-0.166,2.691,0.498,3.386,1.728
		c0.081,0.143,0.256,0.312,0.402,0.327c1.128,0.119,1.86,0.701,2.202,1.78c0.018,0.056,0.054,0.107,0.082,0.161
		C47.5,17.421,47.5,17.727,47.5,18.033z M41.953,19.519c1.024,0,2.048,0,3.073,0c0.031,0,0.061,0,0.092-0.001
		c1.133-0.028,1.994-0.887,1.983-1.978c-0.011-1.084-0.903-1.966-2.014-1.95c-0.296,0.005-0.419-0.083-0.543-0.346
		c-0.53-1.126-1.431-1.734-2.683-1.732c-1.231,0.003-2.125,0.597-2.657,1.702c-0.122,0.254-0.257,0.351-0.538,0.381
		c-1.167,0.126-1.894,0.984-1.827,2.113c0.061,1.04,0.914,1.8,2.043,1.808C39.905,19.524,40.929,19.518,41.953,19.519z"/>
	<path fill="#21376D" d="M0.5,4.539c0.267-0.697,0.604-1.421,1.355-1.616c0.754-0.195,1.149-0.67,1.611-1.218
		c1.463-1.733,4.25-1.431,5.367,0.544c0.157,0.278,0.313,0.416,0.647,0.446c1.199,0.104,2.128,1.175,2.103,2.371
		c-0.026,1.25-1.024,2.307-2.261,2.32C7.138,7.41,4.953,7.412,2.769,7.384c-0.995-0.013-1.682-0.56-2.089-1.46
		C0.612,5.772,0.56,5.613,0.5,5.457C0.5,5.151,0.5,4.845,0.5,4.539z M6.02,7.007c1.07,0,2.141,0.023,3.21-0.006
		c1.138-0.031,1.956-0.907,1.937-2.018c-0.019-1.077-0.878-1.922-1.988-1.908C8.858,3.08,8.734,2.962,8.609,2.692
		C8.115,1.628,7.251,1.043,6.092,0.982C4.95,0.923,4.024,1.403,3.447,2.398C3.2,2.825,2.972,3.057,2.442,3.134
		C1.474,3.276,0.82,4.233,0.907,5.172c0.097,1.039,0.886,1.803,1.948,1.829C3.91,7.027,4.965,7.007,6.02,7.007z"/>
	<path fill="#21376D" d="M10.649,10.472c-0.368-0.173-0.744-0.33-1.099-0.526C9.436,9.883,9.378,9.719,9.294,9.601
		C9.427,9.595,9.581,9.542,9.691,9.59c0.603,0.26,1.193,0.55,1.792,0.819c0.289,0.13,0.379,0.279,0.143,0.549
		c-0.412,0.473-0.802,0.965-1.22,1.432c-0.076,0.085-0.244,0.088-0.369,0.128c0.027-0.13,0.014-0.289,0.087-0.384
		c0.293-0.385,0.611-0.75,0.983-1.198c-1.041,0.077-1.874,0.418-2.623,0.968c-3.08,2.261-4.42,6.469-3.261,10.215
		c0.023,0.073,0.066,0.147,0.064,0.219c-0.004,0.12-0.038,0.239-0.06,0.359c-0.105-0.078-0.286-0.142-0.304-0.237
		c-0.186-1.002-0.473-2.007-0.489-3.016c-0.05-3.144,1.211-5.723,3.631-7.726C8.808,11.102,9.679,10.739,10.649,10.472z"/>
	<path fill="#21376D" d="M6.104,25.209c-0.13-0.185-0.332-0.356-0.372-0.558c-0.058-0.297,0.152-0.483,0.46-0.489
		c0.31-0.007,0.524,0.182,0.484,0.471c-0.028,0.203-0.232,0.383-0.357,0.572C6.248,25.206,6.176,25.207,6.104,25.209z"/>
	<path fill="#21376D" d="M23.261,41.214c-0.193,0.119-0.376,0.314-0.58,0.339c-0.296,0.036-0.479-0.194-0.467-0.493
		c0.012-0.298,0.208-0.514,0.505-0.449c0.202,0.044,0.368,0.249,0.55,0.381C23.266,41.066,23.263,41.14,23.261,41.214z"/>
	<path fill="#21376D" d="M39.607,36.564c-0.632-0.495-1.215-0.939-1.781-1.405c-0.105-0.087-0.138-0.261-0.204-0.394
		c0.146,0.026,0.325,0.006,0.431,0.085c0.626,0.465,1.23,0.959,1.851,1.431c0.263,0.2,0.28,0.359,0.006,0.566
		c-0.634,0.48-1.251,0.982-1.888,1.457c-0.095,0.07-0.263,0.041-0.398,0.058c0.055-0.124,0.076-0.288,0.169-0.365
		C38.37,37.524,38.963,37.069,39.607,36.564z"/>
	<path fill="#21376D" d="M32.041,36.575c0.541,0.425,1.054,0.827,1.566,1.229c0.096,0.075,0.216,0.135,0.279,0.232
		c0.062,0.095,0.064,0.228,0.093,0.344c-0.11-0.011-0.248,0.017-0.326-0.039c-0.323-0.228-0.629-0.482-0.941-0.726
		c-0.336-0.264-0.667-0.532-1.008-0.79c-0.218-0.165-0.267-0.318-0.026-0.505c0.651-0.504,1.294-1.019,1.951-1.514
		c0.085-0.064,0.236-0.038,0.357-0.054c-0.045,0.126-0.053,0.296-0.141,0.37c-0.503,0.42-1.025,0.816-1.54,1.222
		C32.226,36.408,32.151,36.479,32.041,36.575z"/>
	<path fill="#21376D" d="M35.241,38.209c0.257-1.152,0.491-2.223,0.745-3.289c0.022-0.094,0.175-0.156,0.268-0.233
		c0.037,0.118,0.126,0.247,0.103,0.353c-0.221,1.043-0.456,2.082-0.703,3.119c-0.025,0.107-0.151,0.191-0.23,0.285
		C35.353,38.353,35.282,38.261,35.241,38.209z"/>
	<path fill="#21376D" d="M8.762,36.703c0.856,0.428,0.737,1.137,0.73,1.817c-0.006,0.588,0.2,0.776,0.789,0.825
		c0.139,0.012,0.27,0.121,0.405,0.186c-0.142,0.072-0.284,0.204-0.427,0.207c-0.72,0.012-1.133-0.393-1.174-1.113
		c-0.008-0.137-0.02-0.277-0.001-0.412c0.07-0.495-0.076-0.89-0.482-1.196c-0.174-0.131-0.363-0.334-0.095-0.517
		c0.599-0.408,0.59-0.994,0.583-1.618c-0.009-0.801,0.453-1.247,1.213-1.211c0.131,0.006,0.257,0.137,0.385,0.21
		c-0.119,0.066-0.234,0.179-0.358,0.192c-0.692,0.07-0.837,0.216-0.84,0.912c0,0.031-0.002,0.061,0,0.092
		C9.542,35.705,9.533,36.311,8.762,36.703z"/>
	<path fill="#21376D" d="M15.651,36.71c-0.868-0.413-0.766-1.065-0.759-1.693c0.007-0.711-0.155-0.867-0.867-0.945
		c-0.12-0.013-0.228-0.137-0.342-0.21c0.12-0.067,0.237-0.184,0.361-0.192c0.739-0.048,1.222,0.408,1.24,1.147
		c0.003,0.122,0.017,0.247-0.002,0.367c-0.081,0.496,0.068,0.893,0.477,1.194c0.289,0.212,0.3,0.44,0.005,0.657
		c-0.407,0.3-0.563,0.693-0.483,1.192c0.024,0.149,0.008,0.306,0.001,0.458c-0.037,0.717-0.677,1.212-1.37,1.051
		c-0.086-0.02-0.153-0.118-0.229-0.18c0.082-0.072,0.154-0.166,0.25-0.21c0.076-0.035,0.18-0.008,0.272-0.01
		c0.402-0.01,0.614-0.235,0.678-0.614c0.02-0.119,0.015-0.244,0.011-0.366C14.875,37.741,14.797,37.107,15.651,36.71z"/>
	<path fill="#21376D" d="M11.623,36.585c0.189-0.125,0.367-0.325,0.571-0.358c0.295-0.047,0.483,0.186,0.484,0.474
		c0.001,0.311-0.202,0.547-0.514,0.489c-0.2-0.037-0.366-0.257-0.547-0.396C11.618,36.725,11.62,36.655,11.623,36.585z"/>
	<path fill="#21376D" d="M10.486,36.193c0.158,0.257,0.321,0.405,0.301,0.524c-0.02,0.126-0.214,0.224-0.332,0.334
		c-0.11-0.118-0.295-0.229-0.307-0.357C10.138,36.575,10.311,36.439,10.486,36.193z"/>
	<path fill="#21376D" d="M13.901,36.205c0.169,0.238,0.348,0.38,0.334,0.499c-0.015,0.127-0.212,0.321-0.331,0.321
		c-0.119,0-0.317-0.192-0.333-0.319C13.556,36.588,13.733,36.444,13.901,36.205z"/>
	<path fill="#21376D" d="M24.194,9.194c-0.258,0.857,0.177,1.624,0.959,2.279c0.348,0.292,0.642,0.652,0.938,1
		c0.063,0.074,0.031,0.23,0.042,0.349c-0.105-0.024-0.246-0.012-0.309-0.076c-0.647-0.668-1.286-1.343-1.913-2.03
		c-0.079-0.086-0.099-0.251-0.1-0.379c-0.008-0.854-0.013-1.708,0.005-2.561c0.003-0.127,0.133-0.252,0.204-0.377
		c0.058,0.124,0.16,0.245,0.167,0.371C24.207,8.179,24.194,8.591,24.194,9.194z"/>
	<path fill="#21376D" d="M43.306,16.612c-0.016,0.328-0.172,0.571-0.515,0.57c-0.339-0.001-0.518-0.242-0.516-0.574
		c0.002-0.312,0.177-0.539,0.492-0.551C43.11,16.044,43.282,16.27,43.306,16.612z"/>
	<path fill="#21376D" d="M40.049,16.626c-0.05,0.319-0.201,0.571-0.548,0.556c-0.343-0.015-0.51-0.268-0.497-0.593
		c0.012-0.305,0.188-0.534,0.512-0.532C39.864,16.058,40.009,16.306,40.049,16.626z"/>
	<path fill="#21376D" d="M40.599,17.945c0.195,0.25,0.116,0.813,0.599,0.689c0.22-0.057,0.367-0.4,0.59-0.665
		c0.194,0.23,0.096,0.481-0.067,0.71c-0.23,0.324-0.703,0.373-1.015,0.128C40.412,18.574,40.364,18.254,40.599,17.945z"/>
	<path fill="#21376D" d="M9.006,4.1C8.955,4.42,8.82,4.662,8.457,4.648C8.122,4.635,7.966,4.401,7.963,4.103
		C7.961,3.784,8.123,3.536,8.48,3.534C8.84,3.533,8.964,3.789,9.006,4.1z"/>
	<path fill="#21376D" d="M5.735,4.082c-0.038,0.32-0.171,0.563-0.528,0.566C4.876,4.65,4.712,4.437,4.701,4.125
		C4.688,3.797,4.837,3.552,5.188,3.535C5.544,3.519,5.684,3.764,5.735,4.082z"/>
	<path fill="#21376D" d="M7.5,5.463C7.65,5.755,7.56,6.024,7.318,6.254C7.041,6.517,6.595,6.491,6.327,6.217
		C6.08,5.964,6.063,5.688,6.221,5.52C6.44,5.723,6.633,6.025,6.882,6.083C7.017,6.115,7.249,5.728,7.5,5.463z"/>
</g>
</svg>
