<?xml version="1.0" encoding="utf-8"?>
<!-- Generator: Adobe Illustrator 17.0.0, SVG Export Plug-In . SVG Version: 6.00 Build 0)  -->
<!DOCTYPE svg PUBLIC "-//W3C//DTD SVG 1.1//EN" "http://www.w3.org/Graphics/SVG/1.1/DTD/svg11.dtd">
<svg version="1.1" id="Layer_1" xmlns="http://www.w3.org/2000/svg" xmlns:xlink="http://www.w3.org/1999/xlink" x="0px" y="0px"
	 width="48px" height="48px" viewBox="0 0 48 48" enable-background="new 0 0 48 48" xml:space="preserve">
<g>
	<path fill="#21376D" d="M8.132,8.587c0-0.944,0-1.817,0-2.69c0-0.688-0.011-1.377,0.006-2.065c0.028-1.145,0.912-2.04,2.051-2.098
		c0.109-0.006,0.219-0.006,0.328-0.006c8.994,0,17.989-0.001,26.983,0c1.207,0,2.031,0.561,2.308,1.59
		c0.068,0.252,0.078,0.525,0.08,0.788c0.008,1.283,0.002,2.565,0.006,3.848c0.001,0.199,0.029,0.397,0.047,0.633
		c1.271,0,2.504-0.01,3.737,0.002c1.863,0.019,3.368,1.25,3.741,3.069c0.074,0.363,0.075,0.746,0.075,1.12
		c0.004,7.133,0.003,14.266,0.003,21.399c0,0.688,0.013,1.376-0.012,2.063c-0.07,1.966-1.631,3.539-3.599,3.64
		c-0.328,0.017-0.657,0.013-0.985,0.013c-4.63,0.001-9.26,0.005-13.89-0.009c-0.373-0.001-0.553,0.108-0.685,0.457
		c-0.573,1.518-0.586,3.019,0.036,4.524c0.102,0.248,0.226,0.365,0.514,0.351c0.562-0.026,1.126-0.003,1.689-0.009
		c0.373-0.004,0.673,0.103,0.675,0.53c0.003,0.432-0.301,0.532-0.672,0.531c-1.251-0.003-2.501-0.001-3.752-0.001
		c-3.112,0-6.224-0.001-9.336,0.001c-0.364,0-0.667-0.073-0.7-0.507c-0.027-0.358,0.22-0.549,0.702-0.553
		c0.547-0.005,1.095-0.014,1.642,0.004c0.27,0.009,0.418-0.067,0.527-0.331c0.65-1.572,0.614-3.13-0.015-4.699
		c-0.131-0.327-0.353-0.291-0.6-0.291c-4.834,0-9.667,0.004-14.501-0.002c-2.04-0.002-3.596-1.211-3.943-3.11
		c-0.111-0.609-0.091-1.246-0.091-1.87c0-4.129,0.012-8.259,0.016-12.388c0.003-3.332-0.006-6.664,0.004-9.996
		c0.006-1.976,1.219-3.492,3.086-3.872C3.925,8.592,4.26,8.592,4.587,8.59C5.742,8.583,6.897,8.587,8.132,8.587z M8.127,9.64
		c-1.206,0-2.36-0.001-3.514,0c-1.899,0.003-3.037,1.139-3.037,3.036c-0.001,7.056,0,14.112,0,21.168c0,0.166,0,0.332,0,0.517
		c14.978,0,29.895,0,44.864,0c0-0.788,0-1.55,0-2.312c0-6.493,0.002-12.985-0.001-19.478c-0.001-1.746-1.17-2.918-2.907-2.93
		c-0.61-0.004-1.22-0.001-1.83-0.001c-0.588,0-1.177,0-1.808,0c0,0.246,0,0.43,0,0.615c0,3.128,0,6.257,0,9.385
		c0,3.254-0.048,6.509,0.02,9.762c0.034,1.628-1.033,2.623-2.585,2.61c-6.148-0.053-12.297-0.022-18.445-0.022
		c-2.847,0-5.695,0.005-8.542-0.003c-1.234-0.004-2.195-0.899-2.199-2.092C8.125,24.858,8.13,19.821,8.128,14.783
		C8.127,13.095,8.127,11.407,8.127,9.64z M38.835,15.512c-5.599,0-11.142,0-16.675,0c-0.918,3.077-2.464,4.482-5.02,4.574
		c-1.097,0.04-2.105-0.257-3.012-0.87c-1.317-0.89-2.026-2.166-2.262-3.698c-0.915,0-1.782,0-2.679,0c0,0.178,0,0.317,0,0.456
		c0,4.521-0.001,9.042,0.001,13.564c0,0.981,0.417,1.399,1.398,1.399c8.949,0.001,17.897,0.001,26.846,0
		c0.987,0,1.404-0.414,1.404-1.391c0.001-4.521,0.001-9.042,0.001-13.564C38.835,15.843,38.835,15.703,38.835,15.512z
		 M46.415,35.483c-14.958,0-29.884,0-44.808,0c-0.19,2.032,0.996,3.35,2.993,3.35c12.919,0.001,25.837,0.001,38.756,0
		C45.411,38.834,46.565,37.583,46.415,35.483z M38.82,9.007c-9.89,0-19.734,0-29.597,0c0,1.814,0,3.601,0,5.414
		c0.473,0,0.909,0,1.346,0c0.434,0,0.868,0,1.293,0c0.448-2.917,2.591-4.383,4.627-4.587c1.153-0.115,2.241,0.126,3.227,0.751
		c1.405,0.89,2.175,2.195,2.417,3.801c5.589,0,11.132,0,16.687,0C38.82,12.586,38.82,10.822,38.82,9.007z M9.195,7.89
		c9.911,0,19.758,0,29.64,0c0-1.236,0.001-2.439,0-3.641c-0.001-1.087-0.376-1.461-1.468-1.461c-8.902,0-17.804,0-26.706,0
		c-0.125,0-0.251-0.005-0.375,0.003C9.693,2.829,9.219,3.232,9.205,3.824C9.174,5.166,9.195,6.51,9.195,7.89z M20.674,39.918
		c0.686,1.785,0.693,3.523,0.017,5.263c2.233,0,4.409,0,6.649,0c-0.709-1.765-0.661-3.502,0.01-5.263
		C25.098,39.918,22.933,39.918,20.674,39.918z M20.216,17.426c1.298-1.505,1.112-3.994-0.416-5.425
		c-1.605-1.502-4.078-1.484-5.642,0.043c-1.498,1.462-1.659,3.958-0.37,5.376c0.483-0.385,0.965-0.769,1.447-1.153
		c-0.832-1.259-0.802-2.406,0.096-3.298c0.821-0.815,2.095-0.971,2.992-0.256c0.404,0.322,0.748,0.811,0.934,1.295
		c0.319,0.832,0.011,1.614-0.501,2.254C19.271,16.672,19.744,17.049,20.216,17.426z M14.632,18.237
		c1.294,1.067,3.508,1.059,4.74-0.001C18.253,16.628,15.863,16.616,14.632,18.237z M16.979,15.926
		c0.709,0.011,1.291-0.544,1.312-1.248c0.021-0.728-0.547-1.332-1.267-1.348c-0.71-0.015-1.316,0.586-1.315,1.304
		C15.71,15.343,16.272,15.915,16.979,15.926z"/>
	<path fill="#21376D" d="M30.178,29.268c-1.517,0-3.033,0.004-4.55-0.001c-1.47-0.005-2.437-0.967-2.449-2.434
		c-0.008-0.922-0.009-1.845,0-2.767c0.015-1.437,0.994-2.41,2.427-2.412c3.064-0.003,6.129-0.003,9.193,0
		c1.412,0.002,2.399,0.961,2.424,2.367c0.017,0.953,0.015,1.908,0.001,2.861c-0.021,1.416-0.991,2.377-2.403,2.384
		C33.273,29.274,31.725,29.268,30.178,29.268z M30.178,28.22c1.517,0,3.034,0.003,4.552-0.001c0.916-0.003,1.401-0.471,1.412-1.372
		c0.011-0.923,0.011-1.846,0-2.769c-0.011-0.863-0.47-1.343-1.339-1.346c-3.066-0.013-6.132-0.013-9.197,0
		c-0.886,0.004-1.334,0.489-1.342,1.392c-0.009,0.891-0.008,1.783,0,2.675c0.008,0.961,0.481,1.419,1.458,1.421
		C27.206,28.222,28.692,28.22,30.178,28.22z"/>
	<path fill="#21376D" d="M30.208,18.28c1.625,0,3.25-0.001,4.875,0.001c0.14,0,0.322-0.038,0.411,0.034
		c0.165,0.134,0.381,0.335,0.38,0.508c-0.001,0.169-0.219,0.377-0.393,0.49c-0.125,0.081-0.333,0.044-0.504,0.044
		c-3.188,0.002-6.375,0.001-9.563,0.001c-0.047,0-0.094,0.001-0.141,0c-0.516-0.011-0.78-0.197-0.774-0.548
		c0.006-0.351,0.265-0.529,0.787-0.53C26.927,18.279,28.568,18.28,30.208,18.28z"/>
	<path fill="#21376D" d="M15.941,23.114c-1.421,0-2.843,0.001-4.264-0.001c-0.156,0-0.35,0.038-0.458-0.038
		c-0.171-0.121-0.392-0.323-0.393-0.492c-0.001-0.172,0.218-0.368,0.379-0.509c0.074-0.065,0.24-0.033,0.364-0.033
		c2.921-0.001,5.842-0.001,8.763,0c0.124,0,0.295-0.035,0.364,0.03c0.163,0.155,0.374,0.358,0.38,0.548
		c0.005,0.154-0.235,0.359-0.412,0.463c-0.13,0.076-0.335,0.03-0.506,0.031C18.753,23.114,17.347,23.114,15.941,23.114z"/>
	<path fill="#21376D" d="M15.93,24.931c1.421,0,2.843,0,4.264,0c0.109,0,0.219,0,0.328,0.002c0.347,0.006,0.58,0.159,0.583,0.525
		c0.004,0.367-0.225,0.529-0.575,0.529c-3.046,0.001-6.092,0-9.137,0.001c-0.356,0-0.588-0.173-0.588-0.522
		c0.001-0.377,0.256-0.536,0.626-0.536C12.931,24.933,14.431,24.931,15.93,24.931z"/>
	<path fill="#21376D" d="M15.943,28.88c-1.5,0-2.999,0.013-4.498-0.015c-0.203-0.004-0.448-0.176-0.585-0.343
		c-0.075-0.092-0.019-0.381,0.078-0.498c0.1-0.121,0.321-0.197,0.49-0.197c3.015-0.011,6.029-0.008,9.044-0.009
		c0.355,0,0.633,0.117,0.632,0.521c0,0.425-0.286,0.544-0.662,0.543C18.942,28.879,17.443,28.881,15.943,28.88z"/>
	<path fill="#21376D" d="M28.647,5.882c-1.047,0-2.094-0.006-3.141,0.003c-0.373,0.003-0.66-0.094-0.698-0.514
		c-0.032-0.35,0.222-0.543,0.705-0.544c2.109-0.003,4.219,0.001,6.328-0.003c0.368-0.001,0.664,0.083,0.701,0.508
		c0.03,0.346-0.237,0.548-0.708,0.549C30.772,5.884,29.71,5.882,28.647,5.882z"/>
	<path fill="#21376D" d="M17.027,3.715c0.913-0.002,1.634,0.71,1.641,1.619C18.675,6.257,17.924,7.012,17.014,7
		c-0.89-0.012-1.633-0.768-1.63-1.655C15.388,4.449,16.126,3.717,17.027,3.715z M17.028,5.917c0.354-0.023,0.551-0.216,0.579-0.555
		c0.026-0.308-0.286-0.615-0.594-0.584c-0.337,0.034-0.545,0.229-0.539,0.582C16.48,5.712,16.687,5.89,17.028,5.917z"/>
	<path fill="#21376D" d="M14.25,5.369C14.242,6.266,13.497,7.004,12.604,7c-0.89-0.004-1.636-0.752-1.639-1.643
		c-0.003-0.917,0.749-1.654,1.675-1.642C13.544,3.727,14.257,4.46,14.25,5.369z M12.604,5.916c0.351-0.016,0.546-0.211,0.58-0.548
		c0.031-0.307-0.28-0.618-0.588-0.591c-0.339,0.03-0.55,0.23-0.548,0.577C12.051,5.7,12.255,5.89,12.604,5.916z"/>
	<path fill="#21376D" d="M23.088,5.331c0.008,0.911-0.712,1.656-1.614,1.668c-0.892,0.012-1.653-0.731-1.668-1.628
		c-0.015-0.896,0.726-1.649,1.629-1.656C22.356,3.707,23.079,4.414,23.088,5.331z M21.457,5.917c0.349-0.029,0.547-0.217,0.569-0.56
		c0.02-0.313-0.287-0.614-0.597-0.579c-0.335,0.038-0.544,0.23-0.534,0.586C20.905,5.719,21.117,5.889,21.457,5.917z"/>
	<path fill="#21376D" d="M35.079,4.803c0.048-0.415,0.012-0.867,0.538-0.886c0.587-0.021,0.56,0.466,0.595,0.877
		c0.397,0.051,0.879-0.006,0.869,0.565c-0.01,0.528-0.43,0.53-0.846,0.533c-0.079,0.388-0.013,0.935-0.616,0.908
		c-0.529-0.024-0.513-0.491-0.522-0.897c-0.416-0.025-0.884,0.013-0.895-0.539C34.191,4.801,34.662,4.834,35.079,4.803z"/>
</g>
</svg>
