<?xml version="1.0" encoding="utf-8"?>
<!-- Generator: Adobe Illustrator 17.0.0, SVG Export Plug-In . SVG Version: 6.00 Build 0)  -->
<!DOCTYPE svg PUBLIC "-//W3C//DTD SVG 1.1//EN" "http://www.w3.org/Graphics/SVG/1.1/DTD/svg11.dtd">
<svg version="1.1" id="Layer_1" xmlns="http://www.w3.org/2000/svg" xmlns:xlink="http://www.w3.org/1999/xlink" x="0px" y="0px"
	 width="48px" height="48px" viewBox="0 0 48 48" enable-background="new 0 0 48 48" xml:space="preserve">
<g>
	<path fill="#21376D" d="M34.57,19.715c0.759-0.658,1.597-0.431,2.393-0.317c0.187,0.027,0.393,0.372,0.471,0.61
		c0.16,0.493,0.219,1.02,0.366,1.518c0.049,0.165,0.233,0.298,0.374,0.424c0.068,0.06,0.195,0.05,0.269,0.107
		c0.825,0.627,1.547,0.358,2.244-0.236c0.148-0.126,0.325-0.218,0.491-0.32c0.368-0.226,0.72-0.195,1.027,0.105
		c0.606,0.593,1.205,1.194,1.8,1.799c0.319,0.324,0.339,0.687,0.095,1.067c-0.29,0.453-0.596,0.897-0.859,1.366
		c-0.077,0.138-0.067,0.354-0.031,0.52c0.041,0.186,0.203,0.349,0.232,0.534c0.121,0.781,0.645,0.999,1.344,1.12
		c1.607,0.277,1.549,0.34,1.532,1.899c-0.005,0.506,0.004,1.012-0.002,1.517c-0.007,0.555-0.194,0.781-0.743,0.925
		c-0.079,0.021-0.158,0.041-0.237,0.06c-0.518,0.13-1.15,0.121-1.521,0.428c-0.356,0.295-0.455,0.912-0.636,1.399
		c-0.046,0.124-0.021,0.316,0.048,0.433c0.273,0.463,0.575,0.909,0.868,1.36c0.26,0.401,0.217,0.77-0.115,1.106
		c-0.573,0.58-1.151,1.157-1.724,1.736c-0.352,0.355-0.729,0.386-1.145,0.112c-0.395-0.26-0.795-0.512-1.193-0.767
		c-0.082-0.053-0.162-0.113-0.25-0.153c-0.278-0.127-1.81,0.618-1.877,0.914c-0.112,0.492-0.21,0.988-0.326,1.48
		c-0.135,0.572-0.376,0.76-0.957,0.768c-0.294,0.004-0.593,0.035-0.88-0.008c-0.347-0.052-0.684-0.17-1.059-0.268
		c0,0.806,0.024,1.725-0.005,2.642c-0.052,1.651-0.829,2.868-2.334,3.546c-0.49,0.221-1.069,0.337-1.608,0.339
		c-5.727,0.024-11.454,0.023-17.18,0.01c-2.223-0.005-3.922-1.726-3.929-3.96C9.5,39.958,9.507,36.385,9.509,32.812
		c0-0.617,0.294-0.976,0.782-0.976c0.488,0,0.782,0.359,0.783,0.976c0.002,3.508,0,7.016,0.002,10.523
		c0.001,1.632,0.954,2.593,2.576,2.594c5.596,0.001,11.193,0.002,16.789,0c1.595,0,2.563-0.965,2.563-2.558
		c0.002-7.946,0.001-15.891,0.001-23.837c0-0.114,0-0.228,0-0.343c0-2.695,0.089-3.031,0.796-3.019
		c0.688,0.012,0.77,0.331,0.771,2.995C34.57,19.341,34.57,19.514,34.57,19.715z M34.596,25.569c0.285,0,0.544-0.002,0.803,0
		c2.136,0.016,3.999,1.496,4.517,3.588c0.509,2.052-0.456,4.226-2.325,5.236c-0.58,0.313-1.031,0.239-1.272-0.209
		c-0.235-0.437-0.068-0.839,0.491-1.147c0.901-0.496,1.457-1.25,1.625-2.259c0.189-1.132-0.168-2.104-1.024-2.86
		c-0.808-0.713-1.754-0.941-2.809-0.683c0,4.297,0,8.557,0,12.685c0.467-0.117,0.932-0.234,1.454-0.365
		c0.098-0.446,0.227-0.968,0.324-1.495c0.08-0.434,0.323-0.666,0.736-0.815c0.656-0.235,1.301-0.51,1.932-0.807
		c0.379-0.178,0.707-0.189,1.055,0.047c0.378,0.256,0.761,0.506,1.158,0.729c0.108,0.061,0.318,0.074,0.409,0.009
		c0.302-0.216,0.572-0.478,0.854-0.723c-0.355-0.555-0.631-1.015-0.935-1.455c-0.251-0.363-0.249-0.699-0.06-1.097
		c0.299-0.63,0.565-1.277,0.805-1.932c0.143-0.391,0.358-0.634,0.776-0.715c0.541-0.105,1.076-0.24,1.618-0.363
		c0-0.464,0-0.899,0-1.346c-0.544-0.122-1.066-0.252-1.593-0.352c-0.435-0.083-0.662-0.334-0.809-0.745
		c-0.228-0.642-0.488-1.275-0.783-1.888c-0.189-0.393-0.227-0.734,0.033-1.096c0.143-0.198,0.265-0.411,0.397-0.617
		c0.53-0.828,0.523-0.821-0.201-1.518c-0.187-0.18-0.321-0.215-0.539-0.061c-0.372,0.263-0.769,0.492-1.149,0.744
		c-0.332,0.221-0.65,0.213-1.012,0.045c-0.647-0.301-1.307-0.581-1.977-0.826c-0.394-0.144-0.628-0.365-0.707-0.781
		c-0.102-0.54-0.236-1.073-0.333-1.505c-0.545-0.148-1.008-0.273-1.459-0.396C34.596,22.188,34.596,23.89,34.596,25.569z"/>
	<path fill="#21376D" d="M12.66,30.266c-5.962,0.066-10.979-4.867-10.982-10.96C1.674,13.269,6.588,8.345,12.623,8.338
		c6.058-0.008,10.99,4.923,10.982,10.981C23.597,25.354,18.686,30.266,12.66,30.266z M19.82,25.318
		c3.062-3.516,3.117-9.373-0.922-13.024c-3.841-3.472-9.816-3.132-13.293,0.79c-3.541,3.995-2.699,9.482-0.133,12.198
		c0.048-0.069,0.095-0.134,0.139-0.201c1.115-1.745,2.71-2.628,4.777-2.645c1.5-0.012,3-0.014,4.5,0.004
		c0.453,0.005,0.915,0.049,1.355,0.15C17.824,22.954,18.989,23.89,19.82,25.318z M6.674,26.499
		c3.529,3.029,9.066,2.637,11.947-0.047c-0.68-1.486-1.814-2.374-3.467-2.434c-1.676-0.061-3.356-0.035-5.034-0.007
		C8.586,24.037,7.231,25.036,6.674,26.499z"/>
	<path fill="#21376D" d="M34.581,8.337c1.516,0,3.031-0.004,4.547,0.001c1.878,0.005,3.282,1.363,3.271,3.155
		c-0.01,1.767-1.412,3.105-3.271,3.108c-3.048,0.005-6.095,0.006-9.143,0c-1.846-0.004-3.247-1.363-3.247-3.131
		c0-1.769,1.401-3.125,3.246-3.131C31.517,8.333,33.049,8.337,34.581,8.337z M34.593,9.904c-1.517,0-3.034-0.002-4.551,0.001
		c-1.031,0.002-1.743,0.653-1.737,1.578c0.007,0.904,0.714,1.552,1.713,1.553c3.034,0.003,6.067,0.003,9.101,0
		c0.999-0.001,1.707-0.65,1.713-1.554c0.007-0.923-0.708-1.575-1.738-1.577C37.594,9.901,36.094,9.904,34.593,9.904z"/>
	<path fill="#21376D" d="M22.052,2.072c-2.804,0-5.609-0.002-8.413,0c-1.596,0.001-2.56,0.963-2.564,2.553
		c-0.001,0.456,0.014,0.914-0.007,1.369c-0.022,0.463-0.358,0.777-0.784,0.772c-0.408-0.004-0.76-0.305-0.763-0.738
		C9.516,5.249,9.479,4.454,9.603,3.69c0.299-1.828,1.886-3.171,3.741-3.176c5.804-0.017,11.608-0.021,17.413,0.002
		c2.067,0.008,3.745,1.712,3.807,3.775c0.016,0.521,0.011,1.043,0.004,1.565c-0.007,0.566-0.324,0.921-0.797,0.911
		c-0.456-0.01-0.756-0.352-0.765-0.893c-0.008-0.473,0.004-0.946-0.004-1.418c-0.022-1.371-1.018-2.376-2.39-2.381
		C27.758,2.065,24.905,2.072,22.052,2.072z"/>
	<path fill="#21376D" d="M22.039,33.399c2.235,0,4.47,0,6.705,0c0.147,0,0.297-0.015,0.44,0.012
		c0.421,0.078,0.676,0.338,0.676,0.771c0,0.433-0.256,0.691-0.677,0.771c-0.142,0.027-0.293,0.012-0.439,0.012
		c-4.47,0-8.94,0-13.41,0c-0.147,0-0.297,0.015-0.439-0.012c-0.42-0.08-0.676-0.338-0.676-0.771c0-0.433,0.256-0.692,0.677-0.77
		c0.142-0.027,0.293-0.012,0.44-0.012C17.569,33.399,19.804,33.399,22.039,33.399z"/>
	<path fill="#21376D" d="M20.473,41.23c-1.778,0-3.556,0.003-5.335-0.002c-0.537-0.001-0.865-0.254-0.923-0.683
		c-0.065-0.488,0.304-0.874,0.872-0.878c1.109-0.009,2.219-0.003,3.328-0.003c2.447,0,4.894-0.001,7.341,0.001
		c0.582,0.001,0.912,0.238,0.972,0.683c0.068,0.502-0.315,0.878-0.921,0.88C24.029,41.234,22.251,41.23,20.473,41.23z"/>
	<path fill="#21376D" d="M18.133,36.532c0.979,0,1.958-0.003,2.936,0.001c0.612,0.002,0.972,0.303,0.966,0.792
		c-0.007,0.486-0.365,0.772-0.986,0.773c-1.958,0.002-3.915,0.003-5.873,0c-0.612-0.001-0.972-0.303-0.965-0.792
		c0.007-0.487,0.363-0.77,0.985-0.772C16.175,36.529,17.154,36.532,18.133,36.532z"/>
	<path fill="#21376D" d="M22.086,3.638c0.718,0,1.435-0.004,2.153,0.001c0.576,0.005,0.927,0.306,0.928,0.78
		c0.001,0.473-0.351,0.781-0.925,0.783c-1.468,0.005-2.936,0.005-4.404,0c-0.577-0.002-0.927-0.305-0.928-0.78
		c-0.001-0.476,0.348-0.778,0.924-0.783C20.585,3.634,21.336,3.638,22.086,3.638z"/>
	<path fill="#21376D" d="M4.81,34.066c0.013-0.47,0.344-0.818,0.781-0.819c0.439-0.001,0.799,0.376,0.78,0.816
		c-0.02,0.466-0.406,0.833-0.852,0.81C5.071,34.851,4.797,34.539,4.81,34.066z"/>
	<path fill="#21376D" d="M4.81,37.182c0.019-0.468,0.361-0.812,0.797-0.803c0.439,0.009,0.792,0.394,0.763,0.833
		c-0.029,0.447-0.394,0.801-0.819,0.795C5.083,38.001,4.79,37.675,4.81,37.182z"/>
	<path fill="#21376D" d="M4.81,40.33c0.013-0.47,0.346-0.817,0.783-0.817c0.439,0,0.798,0.378,0.778,0.818
		c-0.021,0.466-0.408,0.832-0.854,0.808C5.069,41.115,4.796,40.803,4.81,40.33z"/>
	<path fill="#21376D" d="M12.623,20.867c-2.155-0.008-3.909-1.784-3.896-3.945c0.013-2.153,1.794-3.901,3.957-3.884
		c2.134,0.018,3.874,1.78,3.872,3.92C16.552,19.115,14.783,20.874,12.623,20.867z M12.625,14.604
		c-1.278,0.007-2.328,1.06-2.332,2.338c-0.004,1.299,1.064,2.365,2.363,2.358c1.278-0.007,2.329-1.061,2.333-2.339
		C14.993,15.661,13.926,14.597,12.625,14.604z"/>
</g>
</svg>
