<?xml version="1.0" encoding="utf-8"?>
<!-- Generator: Adobe Illustrator 17.0.0, SVG Export Plug-In . SVG Version: 6.00 Build 0)  -->
<!DOCTYPE svg PUBLIC "-//W3C//DTD SVG 1.1//EN" "http://www.w3.org/Graphics/SVG/1.1/DTD/svg11.dtd">
<svg version="1.1" id="Layer_1" xmlns="http://www.w3.org/2000/svg" xmlns:xlink="http://www.w3.org/1999/xlink" x="0px" y="0px"
	 width="48px" height="48px" viewBox="0 0 48 48" enable-background="new 0 0 48 48" xml:space="preserve">
<g>
	<path fill="#21376D" d="M0.5,28.488c0.193-0.876,0.314-1.775,0.592-2.623c1.04-3.173,3.133-5.524,5.902-7.305
		c2.501-1.608,5.245-2.528,8.212-2.751c0.456-0.034,0.585-0.192,0.64-0.645c0.366-3.03,1.721-5.584,3.892-7.699
		c2.829-2.755,6.261-4.224,10.175-4.512c5.152-0.379,9.699,1.133,13.505,4.652c2.273,2.101,3.678,4.698,4.009,7.821
		c0.008,0.072,0.048,0.14,0.073,0.21c0,0.673,0,1.346,0,2.02c-0.164,0.806-0.279,1.625-0.501,2.415
		c-0.536,1.914-1.521,3.59-2.825,5.087c-0.16,0.184-0.293,0.438-0.329,0.676c-0.273,1.785,0.202,3.357,1.412,4.702
		c0.031,0.034,0.062,0.068,0.093,0.101c0.28,0.304,0.411,0.645,0.233,1.048c-0.183,0.413-0.517,0.576-0.957,0.566
		c-2.496-0.056-4.689-0.901-6.567-2.543c-0.249-0.218-0.442-0.237-0.764-0.169c-1.402,0.296-2.815,0.538-4.225,0.791
		c-0.268,0.048-0.543,0.054-0.758,0.074c-0.219,0.973-0.352,1.918-0.646,2.809c-1.325,4.013-4.077,6.747-7.847,8.503
		c-3.455,1.61-7.084,1.881-10.802,1.221c-0.824-0.146-1.63-0.399-2.451-0.567c-0.168-0.035-0.417,0.031-0.547,0.144
		c-1.883,1.637-4.062,2.505-6.557,2.589c-0.469,0.016-0.848-0.11-1.048-0.568c-0.195-0.446-0.004-0.79,0.295-1.116
		c1.222-1.333,1.711-2.901,1.449-4.69c-0.035-0.241-0.145-0.506-0.304-0.688c-1.822-2.081-2.971-4.462-3.278-7.228
		c-0.011-0.103-0.051-0.204-0.078-0.305C0.5,29.834,0.5,29.161,0.5,28.488z M5.398,43.003c-0.07-0.042-0.056-0.026-0.044-0.028
		c0.06-0.01,0.119-0.022,0.178-0.039c1.446-0.411,2.684-1.168,3.717-2.255c0.332-0.349,0.705-0.487,1.156-0.319
		c1.633,0.608,3.328,0.916,5.059,1.022c4.233,0.259,8.034-0.845,11.213-3.723c4.895-4.432,5.02-11.456,0.293-16.063
		c-2.51-2.446-5.581-3.717-9.05-3.966c-4.671-0.336-8.807,0.997-12.203,4.284c-2.214,2.143-3.46,4.764-3.369,7.904
		c0.08,2.745,1.163,5.09,2.988,7.116c0.19,0.211,0.422,0.459,0.46,0.715c0.125,0.841,0.284,1.703,0.213,2.539
		C5.931,41.128,5.617,42.046,5.398,43.003z M17.625,15.731c0.202,0.029,0.35,0.059,0.499,0.071c2.08,0.157,4.056,0.697,5.947,1.573
		c0.252,0.117,0.552,0.181,0.83,0.182c4.65,0.011,9.3,0.008,13.951,0.008c0.168,0,0.339-0.01,0.504,0.012
		c0.466,0.064,0.804,0.462,0.797,0.919c-0.007,0.439-0.334,0.82-0.779,0.889c-0.165,0.025-0.336,0.015-0.504,0.015
		C35.198,19.4,31.527,19.4,27.856,19.4c-0.158,0-0.315,0-0.59,0c1.463,1.231,2.596,2.561,3.45,4.121
		c0.854,1.56,1.347,3.232,1.514,5.027c1.713-0.09,3.361-0.317,4.931-0.898c0.745-0.276,1.265-0.197,1.83,0.399
		c1.004,1.058,2.262,1.732,3.747,2.106c-0.079-0.185-0.132-0.305-0.183-0.426c-0.053-0.127-0.115-0.251-0.153-0.383
		c-0.627-2.135-0.841-4.112,0.845-6.032c1.933-2.2,2.691-4.908,2.329-7.856c-0.342-2.789-1.703-5.061-3.794-6.865
		c-3.953-3.412-8.561-4.522-13.648-3.533c-3.489,0.678-6.38,2.419-8.499,5.323C18.488,11.956,17.802,13.716,17.625,15.731z"/>
	<path fill="#21376D" d="M16.421,32.252c2.415,0,4.829,0,7.244,0c0.153,0,0.308-0.009,0.458,0.013
		c0.464,0.067,0.801,0.467,0.792,0.922c-0.009,0.439-0.336,0.817-0.782,0.886c-0.15,0.023-0.305,0.014-0.458,0.014
		c-4.86,0.001-9.719,0.001-14.579,0c-0.107,0-0.214,0.004-0.321-0.002c-0.55-0.032-0.938-0.424-0.928-0.934
		c0.01-0.493,0.388-0.865,0.918-0.897c0.122-0.007,0.244-0.003,0.367-0.003C11.562,32.252,13.992,32.252,16.421,32.252z"/>
	<path fill="#21376D" d="M18.208,28.58c-1.864,0-3.728,0.012-5.591-0.013c-0.281-0.004-0.602-0.12-0.828-0.287
		c-0.286-0.212-0.345-0.566-0.214-0.917c0.142-0.382,0.425-0.595,0.83-0.613c0.412-0.018,0.825-0.007,1.237-0.007
		c3.315,0,6.63,0,9.945,0c0.137,0,0.275-0.006,0.412,0.003c0.526,0.032,0.907,0.409,0.915,0.9c0.008,0.509-0.382,0.919-0.932,0.927
		c-1.023,0.015-2.047,0.005-3.071,0.006C20.011,28.58,19.109,28.58,18.208,28.58z"/>
	<path fill="#21376D" d="M9.676,27.644c0.009,0.506-0.414,0.935-0.921,0.932c-0.488-0.003-0.899-0.409-0.908-0.898
		c-0.01-0.507,0.413-0.934,0.92-0.931C9.256,26.75,9.667,27.156,9.676,27.644z"/>
	<path fill="#21376D" d="M33.502,12.056c1.818,0,3.636,0,5.454,0c0.137,0,0.277-0.007,0.412,0.013
		c0.445,0.068,0.774,0.444,0.785,0.882c0.011,0.456-0.324,0.856-0.788,0.926c-0.15,0.022-0.305,0.014-0.457,0.014
		c-3.636,0.001-7.272,0-10.908,0c-0.107,0-0.214,0.004-0.321-0.002c-0.547-0.033-0.935-0.431-0.921-0.94
		c0.013-0.492,0.393-0.875,0.924-0.888c0.702-0.017,1.405-0.005,2.108-0.005C31.027,12.056,32.265,12.056,33.502,12.056z"/>
	<path fill="#21376D" d="M24.914,12.96c0.007,0.506-0.418,0.934-0.924,0.928c-0.488-0.005-0.897-0.413-0.905-0.902
		c-0.008-0.507,0.416-0.933,0.924-0.928C24.498,12.065,24.907,12.472,24.914,12.96z"/>
</g>
</svg>
