<?xml version="1.0" encoding="utf-8"?>
<!-- Generator: Adobe Illustrator 17.0.0, SVG Export Plug-In . SVG Version: 6.00 Build 0)  -->
<!DOCTYPE svg PUBLIC "-//W3C//DTD SVG 1.1//EN" "http://www.w3.org/Graphics/SVG/1.1/DTD/svg11.dtd">
<svg version="1.1" id="Layer_1" xmlns="http://www.w3.org/2000/svg" xmlns:xlink="http://www.w3.org/1999/xlink" x="0px" y="0px"
	 width="48px" height="48px" viewBox="0 0 48 48" enable-background="new 0 0 48 48" xml:space="preserve">
<path fill="#21376D" d="M45.278,2.071H2.72c-1.224,0-2.22,0.996-2.22,2.22v30.056c0,1.227,0.996,2.223,2.22,2.223h12.692v4.01
	h-4.842c-1.473,0-2.673,1.199-2.673,2.673v1.945c0,0.404,0.327,0.731,0.731,0.731h30.742c0.404,0,0.731-0.327,0.731-0.731v-1.945
	c0-1.473-1.199-2.673-2.674-2.673h-4.839v-4.01h12.689c1.227,0,2.223-0.998,2.223-2.223V4.291c0-1.224-0.998-2.22-2.223-2.22
	C45.277,2.071,45.278,2.071,45.278,2.071z M37.427,42.043c0.669,0,1.216,0.544,1.216,1.211v1.216H9.36v-1.216
	c0-0.667,0.543-1.211,1.212-1.211h26.857H37.427z M16.875,40.583v-4.011h14.254v4.011H16.875z M46.041,30.831H28.157
	c-0.404,0-0.731,0.329-0.731,0.731c0,0.405,0.327,0.732,0.731,0.732h17.884v2.055c0,0.414-0.348,0.763-0.762,0.763H2.722
	c-0.413,0-0.76-0.35-0.76-0.763v-2.055h17.884c0.403,0,0.731-0.327,0.731-0.732c0-0.402-0.327-0.731-0.731-0.731H1.962V4.293
	c0-0.411,0.348-0.76,0.76-0.76H45.28c0.414,0,0.762,0.348,0.762,0.76L46.041,30.831L46.041,30.831z M41.778,20.906H29.233
	c-0.403,0-0.731,0.327-0.731,0.73v5.761c0,0.405,0.327,0.732,0.731,0.732h12.545c0.403,0,0.73-0.327,0.73-0.732v-5.761
	c0-0.194-0.075-0.378-0.212-0.516C42.157,20.981,41.975,20.906,41.778,20.906z M29.965,26.666v-4.299h11.083v4.299H29.965z
	 M24.616,14.516H24.34l-0.042-0.138c-0.175-0.566-0.404-1.119-0.683-1.647l-0.067-0.127l0.193-0.195
	c0.292-0.289,0.453-0.676,0.453-1.088s-0.161-0.798-0.45-1.086l-1.593-1.593c-0.289-0.292-0.674-0.453-1.088-0.453
	c-0.414,0-0.798,0.161-1.086,0.45l-0.194,0.195l-0.127-0.067c-0.526-0.278-1.079-0.507-1.647-0.683l-0.137-0.042V7.77
	c0-0.848-0.689-1.539-1.536-1.539H14.08c-0.848,0-1.536,0.69-1.536,1.539v0.273l-0.137,0.043c-0.568,0.175-1.121,0.404-1.647,0.683
	l-0.128,0.067l-0.195-0.195c-0.291-0.291-0.678-0.45-1.09-0.45c-0.411,0.002-0.795,0.161-1.082,0.45l-1.597,1.596
	c-0.289,0.289-0.448,0.675-0.448,1.086c0,0.41,0.159,0.797,0.448,1.086l0.197,0.197L6.8,12.733
	c-0.278,0.526-0.508,1.077-0.682,1.645l-0.043,0.139H5.799c-0.848,0-1.537,0.689-1.537,1.537v2.256c0,0.848,0.689,1.539,1.537,1.539
	h0.275l0.043,0.138c0.174,0.568,0.404,1.12,0.682,1.643l0.067,0.128l-0.198,0.197c-0.594,0.598-0.592,1.573,0.002,2.171l1.596,1.596
	c0.288,0.287,0.673,0.446,1.084,0.446c0.41,0,0.797-0.159,1.088-0.446l0.195-0.194l0.127,0.067c0.526,0.278,1.079,0.507,1.647,0.681
	l0.139,0.043v0.277c0,0.845,0.689,1.536,1.536,1.536h2.256c0.847,0,1.536-0.691,1.536-1.536v-0.277l0.139-0.043
	c0.568-0.174,1.122-0.403,1.647-0.681l0.128-0.067l0.194,0.194c0.289,0.289,0.674,0.448,1.086,0.448
	c0.411,0,0.797-0.159,1.086-0.448l1.596-1.596c0.29-0.29,0.449-0.676,0.449-1.086s-0.161-0.797-0.449-1.087l-0.196-0.194
	l0.068-0.128c0.277-0.525,0.508-1.079,0.682-1.643l0.043-0.137h0.277c0.846,0,1.536-0.691,1.536-1.539v-2.256
	c0-0.847-0.689-1.536-1.536-1.536L24.616,14.516z M24.691,18.386h-0.917c-0.343,0-0.637,0.235-0.712,0.57
	c-0.201,0.893-0.554,1.743-1.05,2.525c-0.183,0.291-0.143,0.663,0.103,0.907l0.649,0.649l-1.702,1.702l-0.649-0.648
	c-0.138-0.139-0.322-0.213-0.517-0.213c-0.138,0-0.273,0.038-0.39,0.113c-0.78,0.493-1.629,0.844-2.528,1.045
	c-0.336,0.075-0.57,0.37-0.57,0.712v0.918h-2.406v-0.918c0-0.343-0.234-0.637-0.57-0.712c-0.896-0.201-1.748-0.552-2.528-1.045
	c-0.116-0.074-0.251-0.113-0.39-0.113c-0.196,0-0.38,0.075-0.517,0.213L9.349,24.74l-1.705-1.702l0.651-0.648
	c0.246-0.244,0.287-0.618,0.102-0.909c-0.493-0.777-0.846-1.625-1.048-2.524c-0.076-0.335-0.369-0.57-0.713-0.57H5.719v-2.409h0.917
	c0.344,0,0.637-0.235,0.713-0.571c0.202-0.897,0.555-1.747,1.05-2.522c0.185-0.291,0.144-0.665-0.1-0.909l-0.651-0.652L9.35,9.623
	l0.649,0.649c0.139,0.139,0.322,0.214,0.517,0.214c0.139,0,0.273-0.04,0.389-0.113c0.779-0.492,1.629-0.844,2.529-1.049
	c0.334-0.076,0.569-0.369,0.569-0.713V7.695h2.406v0.917c0,0.344,0.235,0.636,0.569,0.713c0.898,0.204,1.749,0.557,2.529,1.05
	c0.117,0.074,0.251,0.113,0.389,0.113c0.197,0,0.38-0.076,0.516-0.214l0.649-0.648l1.701,1.7l-0.65,0.653
	c-0.243,0.243-0.283,0.616-0.1,0.906c0.495,0.783,0.848,1.633,1.049,2.525c0.076,0.336,0.369,0.57,0.713,0.57h0.916v2.41l0,0
	L24.691,18.386z M20.053,13.924l-4.471-2.694c-0.114-0.069-0.244-0.104-0.377-0.104c-0.132,0-0.263,0.035-0.376,0.104l-4.474,2.694
	c-0.215,0.129-0.353,0.375-0.353,0.626v5.266c0,0.255,0.136,0.495,0.353,0.627l4.474,2.694c0.113,0.067,0.242,0.103,0.376,0.103
	s0.266-0.035,0.377-0.103l4.471-2.694c0.217-0.132,0.353-0.372,0.353-0.625v-5.266c0-0.029-0.003-0.059-0.006-0.088
	C20.373,14.241,20.243,14.04,20.053,13.924L20.053,13.924z M14.474,21.216l-3.012-1.814v-3.561l3.012,1.815V21.216z M15.204,16.391
	l-3.057-1.842l3.057-1.842l3.057,1.842L15.204,16.391z M18.945,19.402l-3.01,1.814v-3.56l3.01-1.815V19.402z M41.778,8.159H33.39
	c-0.403,0-0.731,0.328-0.731,0.731s0.328,0.73,0.731,0.73h8.388c0.403,0,0.73-0.327,0.73-0.73
	C42.508,8.487,42.181,8.159,41.778,8.159z M29.235,9.62h0.007c0.401,0,0.727-0.327,0.727-0.73s-0.329-0.732-0.734-0.732
	c-0.403,0-0.73,0.328-0.73,0.731S28.832,9.62,29.235,9.62z M33.387,13.629h8.384c0.404,0,0.731-0.327,0.731-0.731
	c0-0.403-0.327-0.73-0.731-0.73h-8.384c-0.403,0-0.731,0.327-0.731,0.73C32.657,13.301,32.985,13.629,33.387,13.629z M29.232,13.629
	h0.003c0.402,0,0.729-0.327,0.729-0.731c0-0.403-0.327-0.73-0.732-0.73c-0.403,0-0.729,0.327-0.729,0.73
	S28.829,13.629,29.232,13.629z M33.383,17.638h8.386c0.404,0,0.731-0.327,0.731-0.73c0-0.403-0.327-0.732-0.731-0.732h-8.386
	c-0.403,0-0.731,0.328-0.731,0.732C32.652,17.31,32.979,17.638,33.383,17.638z M29.226,17.638h0.005c0.402,0,0.729-0.327,0.729-0.73
	c0-0.403-0.329-0.732-0.734-0.732c-0.403,0-0.731,0.328-0.731,0.732C28.496,17.31,28.824,17.638,29.226,17.638z M23.999,30.831
	c-0.403,0-0.731,0.329-0.731,0.731c0,0.405,0.327,0.732,0.731,0.732h0.005c0.402,0,0.729-0.327,0.729-0.732
	C24.734,31.16,24.404,30.831,23.999,30.831z"/>
</svg>
