<?xml version="1.0" encoding="utf-8"?>
<!-- Generator: Adobe Illustrator 17.0.0, SVG Export Plug-In . SVG Version: 6.00 Build 0)  -->
<!DOCTYPE svg PUBLIC "-//W3C//DTD SVG 1.1//EN" "http://www.w3.org/Graphics/SVG/1.1/DTD/svg11.dtd">
<svg version="1.1" id="Layer_1" xmlns="http://www.w3.org/2000/svg" xmlns:xlink="http://www.w3.org/1999/xlink" x="0px" y="0px"
	 width="48px" height="48px" viewBox="0 0 48 48" enable-background="new 0 0 48 48" xml:space="preserve">
<g>
	<path fill="#21376D" d="M0.501,23.948c0-5.837-0.001-11.673,0-17.51C0.502,2.897,2.878,0.512,6.406,0.51
		c5.557-0.002,11.114,0.012,16.671-0.008c1.798-0.006,3.286,0.612,4.537,1.903c3.028,3.125,6.068,6.237,9.124,9.335
		c1.221,1.238,1.819,2.695,1.81,4.426c-0.012,2.307,0.004,4.613-0.011,6.92c-0.002,0.362,0.11,0.551,0.438,0.724
		c2.155,1.134,4.408,2.013,6.744,2.694c1.178,0.344,1.742,1.13,1.77,2.347c0.058,2.494-0.093,4.955-0.956,7.331
		c-1.211,3.333-3.228,6.054-6.126,8.101c-1.283,0.906-2.6,1.766-3.92,2.619c-0.298,0.193-0.664,0.352-1.012,0.382
		c-1.23,0.104-2.465,0.2-3.698,0.202c-8.493,0.017-16.986,0.011-25.478,0.007c-2.795-0.001-5.025-1.702-5.638-4.321
		c-0.122-0.521-0.153-1.072-0.154-1.61C0.497,35.691,0.501,29.819,0.501,23.948z M36.278,22.202c0-2.237-0.007-4.401,0.006-6.564
		c0.003-0.451-0.154-0.593-0.614-0.587c-1.974,0.025-3.949,0.026-5.924,0.007c-3.021-0.028-5.31-1.974-5.69-4.941
		c-0.15-1.17-0.054-2.372-0.061-3.56c-0.007-1.238-0.001-2.477-0.001-3.757c-0.314-0.022-0.589-0.058-0.864-0.058
		C17.537,2.738,11.945,2.735,6.352,2.74C4.15,2.742,2.732,4.148,2.731,6.339c-0.004,11.778-0.004,23.557,0,35.335
		c0.001,2.163,1.419,3.588,3.578,3.589c8.178,0.006,16.357,0.003,24.535,0.001c0.122,0,0.244-0.025,0.475-0.05
		c-0.342-0.231-0.585-0.397-0.829-0.559c-2.957-1.957-5.096-4.579-6.432-7.865c-1-2.46-1.251-5.029-1.198-7.654
		c0.032-1.59,0.526-2.281,2.059-2.721c2.987-0.858,5.81-2.092,8.434-3.758C34.261,22.082,35.154,21.639,36.278,22.202z
		 M45.257,30.566c0-0.489-0.021-0.979,0.007-1.467c0.019-0.33-0.117-0.454-0.417-0.539c-3.327-0.945-6.447-2.351-9.372-4.198
		c-0.144-0.091-0.446-0.089-0.591,0.003c-2.925,1.848-6.046,3.253-9.37,4.208c-0.29,0.083-0.394,0.203-0.382,0.501
		c0.019,0.488-0.01,0.978-0.009,1.467c0.013,3.955,1.391,7.362,4.129,10.215c1.664,1.734,3.783,2.853,5.74,4.188
		c0.104,0.071,0.362,0.021,0.49-0.062c1.098-0.712,2.193-1.43,3.269-2.174C42.993,39.774,45.104,35.693,45.257,30.566z
		 M34.613,12.784c-2.819-2.883-5.552-5.679-8.359-8.55c0,1.953-0.081,3.77,0.024,5.576c0.094,1.606,1.393,2.895,2.902,2.957
		C30.941,12.839,32.707,12.784,34.613,12.784z"/>
	<path fill="#21376D" d="M17.222,25.13c-2.794,0-5.588,0-8.382,0c-0.157,0-0.315,0.007-0.471-0.005
		c-0.69-0.05-1.148-0.497-1.152-1.116c-0.004-0.62,0.453-1.076,1.139-1.129c0.139-0.011,0.279-0.005,0.419-0.005
		c5.675,0,11.35,0,17.025,0c1.019,0,1.559,0.402,1.546,1.146c-0.013,0.726-0.54,1.108-1.532,1.108
		C22.949,25.13,20.086,25.13,17.222,25.13z"/>
	<path fill="#21376D" d="M16.202,16.163c2.516,0,5.032-0.003,7.549,0.002c0.904,0.002,1.458,0.543,1.341,1.282
		c-0.087,0.547-0.483,0.91-1.083,0.959c-0.313,0.026-0.629,0.011-0.943,0.011c-4.77,0-9.541,0.001-14.311,0
		c-0.999,0-1.521-0.377-1.538-1.103c-0.017-0.745,0.526-1.151,1.542-1.151C11.24,16.162,13.721,16.163,16.202,16.163z"/>
	<path fill="#21376D" d="M13.96,29.587c1.745,0,3.491-0.003,5.236,0.003c0.224,0.001,0.457,0.016,0.671,0.078
		c0.472,0.135,0.787,0.583,0.763,1.068c-0.024,0.501-0.272,0.868-0.756,1.02c-0.227,0.072-0.481,0.082-0.723,0.082
		c-3.491,0.005-6.981,0.005-10.472,0c-0.225,0-0.457-0.015-0.672-0.072c-0.478-0.128-0.789-0.561-0.791-1.048
		C7.215,30.232,7.525,29.793,8,29.664c0.215-0.059,0.447-0.073,0.672-0.074C10.434,29.584,12.197,29.587,13.96,29.587z"/>
	<path fill="#21376D" d="M13.966,36.299c1.798,0,3.595-0.007,5.393,0.003c0.769,0.004,1.259,0.445,1.274,1.099
		c0.015,0.673-0.489,1.127-1.278,1.151c-0.14,0.004-0.279,0.001-0.419,0.001c-2.985,0-5.969,0-8.954,0
		c-0.558,0-1.119,0.021-1.675-0.014c-0.654-0.042-1.092-0.516-1.091-1.116c0.001-0.6,0.441-1.053,1.094-1.117
		c0.156-0.015,0.314-0.008,0.471-0.008C10.51,36.299,12.238,36.299,13.966,36.299z"/>
	<path fill="#21376D" d="M12.784,11.705c-1.38,0-2.76,0.004-4.141-0.003c-0.225-0.001-0.46-0.013-0.671-0.082
		c-0.482-0.158-0.731-0.521-0.753-1.024C7.198,10.11,7.516,9.67,7.986,9.529c0.165-0.05,0.343-0.074,0.515-0.074
		c2.865-0.004,5.73-0.009,8.595,0c0.961,0.003,1.542,0.75,1.214,1.539c-0.224,0.538-0.678,0.714-1.229,0.713
		C15.649,11.704,14.217,11.705,12.784,11.705z"/>
	<path fill="#21376D" d="M34.051,34.74c1.143-1.143,2.239-2.24,3.336-3.336c0.148-0.148,0.29-0.305,0.455-0.433
		c0.453-0.351,1.026-0.32,1.436,0.063c0.401,0.374,0.535,1.027,0.155,1.421c-1.565,1.618-3.159,3.208-4.778,4.772
		c-0.373,0.36-0.936,0.281-1.339-0.103c-0.783-0.747-1.553-1.509-2.296-2.296c-0.445-0.471-0.394-1.128,0.053-1.552
		c0.42-0.398,1.061-0.408,1.521-0.005c0.249,0.218,0.476,0.462,0.71,0.698C33.536,34.205,33.765,34.445,34.051,34.74z"/>
</g>
</svg>
