<?xml version="1.0" encoding="utf-8"?>
<!-- Generator: Adobe Illustrator 17.0.0, SVG Export Plug-In . SVG Version: 6.00 Build 0)  -->
<!DOCTYPE svg PUBLIC "-//W3C//DTD SVG 1.1//EN" "http://www.w3.org/Graphics/SVG/1.1/DTD/svg11.dtd">
<svg version="1.1" id="Layer_1" xmlns="http://www.w3.org/2000/svg" xmlns:xlink="http://www.w3.org/1999/xlink" x="0px" y="0px"
	 width="48px" height="48px" viewBox="0 0 48 48" enable-background="new 0 0 48 48" xml:space="preserve">
<g>
	<path fill="#21376D" d="M18.951,0.5c0.263,0.067,0.528,0.127,0.788,0.202c1.999,0.573,3.403,1.814,4.141,3.764
		c0.127,0.337,0.278,0.425,0.618,0.425c5.767-0.01,11.534-0.01,17.302-0.006c1.599,0.001,2.933,0.81,3.263,2.225
		c0.238,1.021,0.176,2.119,0.185,3.183c0.003,0.369-0.317,0.596-0.707,0.57c-0.384-0.025-0.627-0.257-0.641-0.649
		c-0.021-0.611-0.008-1.224-0.014-1.835c-0.012-1.348-0.765-2.101-2.11-2.101C36.101,6.275,30.426,6.276,24.75,6.276
		c-0.15,0-0.3,0-0.474,0c0.153,1.805,1.242,2.973,2.496,4.081c0.802-0.846,1.745-1.174,2.816-0.639
		c0.997,0.498,1.312,1.391,1.168,2.478c1.081,0.387,1.63,1.151,1.635,2.279c1.427,0.415,2.115,1.332,1.884,2.842
		c0.108,0.054,0.227,0.112,0.345,0.172c0.56,0.288,1.005,0.728,1.092,1.339c0.083,0.578,0.405,0.926,0.778,1.286
		c0.264,0.255,0.528,0.511,0.772,0.785c1.189,1.338,1.124,3.32-0.141,4.561c-1.251,1.228-3.212,1.269-4.53,0.086
		c-0.33-0.296-0.619-0.637-0.957-0.924c-0.101-0.085-0.33-0.122-0.448-0.068c-0.735,0.336-1.429,0.778-2.186,1.045
		c-1.128,0.398-1.984,1.115-2.713,1.987c0.066,0.395,0.184,0.78,0.184,1.165c-0.001,1.172-1.045,2.095-2.214,2.01
		c-0.141-0.01-0.333-0.024-0.421,0.054c-0.417,0.372-0.806,0.776-1.273,1.236c7.165,0,14.22,0,21.324,0c0-0.217,0-0.413,0-0.608
		c0-5.844,0-11.687,0-17.531c0-0.168-0.004-0.337,0.011-0.504c0.036-0.393,0.26-0.617,0.652-0.636
		c0.396-0.019,0.63,0.202,0.712,0.577c0.032,0.147,0.021,0.304,0.021,0.457c0.001,6.991,0.001,13.982,0,20.973
		c0,2.236-1.368,3.606-3.601,3.607c-4.268,0.001-8.536,0-12.804,0c-0.18,0-0.361,0-0.614,0c0.304,1.175,0.592,2.29,0.875,3.384
		c0.79,0.04,1.545,0.015,2.28,0.127c1.929,0.292,3.379,2.062,3.351,4.008c-0.012,0.837-0.511,1.295-1.223,1.593
		c-6.365,0-12.729,0-19.094,0c-1.085-0.537-1.372-1.092-1.177-2.279c0.276-1.675,1.613-3.058,3.303-3.321
		c0.734-0.114,1.49-0.088,2.281-0.128c0.283-1.093,0.571-2.207,0.876-3.384c-0.251,0-0.432,0-0.612,0
		c-4.282,0-8.565,0.002-12.847-0.001c-2.173-0.001-3.559-1.384-3.56-3.554c-0.002-8.809-0.002-17.619,0-26.428
		C2.718,6.255,4.09,4.889,6.249,4.884c1.912-0.004,3.824-0.005,5.735,0.003c0.29,0.001,0.503-0.055,0.713-0.294
		c0.422-0.478,1.164-0.59,1.61-0.154c0.473,0.462,0.987,0.451,1.549,0.445c0.786-0.008,1.571-0.002,2.447-0.002
		c-0.128-0.148-0.181-0.218-0.243-0.28c-0.583-0.585-1.179-1.158-1.747-1.757c-0.772-0.813-0.406-1.979,0.685-2.229
		C17.16,0.58,17.321,0.539,17.482,0.5C17.972,0.5,18.461,0.5,18.951,0.5z M4.113,32.081c0.297,0,0.544-0.033,0.78,0.006
		c0.947,0.154,1.621-0.216,2.259-0.921c1.066-1.178,2.231-2.266,3.359-3.388c0.377-0.375,0.785-0.411,1.087-0.116
		c0.304,0.298,0.275,0.713-0.095,1.086c-0.991,0.999-1.989,1.991-2.982,2.987c-0.089,0.09-0.166,0.192-0.269,0.313
		c0.098,0.016,0.141,0.03,0.185,0.03c3.961,0.001,7.922,0.003,11.883-0.003c0.125,0,0.286-0.037,0.37-0.118
		c0.68-0.658,1.346-1.33,1.989-1.971c-2.079-2.081-4.13-4.133-6.206-6.211c-0.735,0.738-1.49,1.495-2.245,2.252
		c-0.572,0.572-0.925,0.658-1.282,0.314c-0.368-0.355-0.281-0.719,0.312-1.313c0.681-0.681,1.358-1.368,2.048-2.04
		c0.203-0.198,0.283-0.359,0.198-0.671c-0.337-1.228,0.459-2.471,1.706-2.592c0.517-0.05,1.058,0.147,1.701,0.249
		c0.67-0.486,0.9-1.266,0.74-2.209c-0.154-0.908-0.262-1.828,0.058-2.721c0.188-0.526,0.449-1.027,0.689-1.564
		c-0.764-0.558-1.641-0.872-2.605-0.949c-2.741-0.219-4.935-2.171-5.463-4.883c-0.086-0.443-0.113-0.898-0.171-1.373
		c-1.963,0-3.904-0.001-5.845,0C4.843,6.277,4.114,7.002,4.114,8.471c-0.001,7.693-0.001,15.385-0.001,23.078
		C4.113,31.713,4.113,31.877,4.113,32.081z M4.112,33.485c0,0.437,0,0.831,0,1.225c0.001,1.571,0.7,2.273,2.263,2.273
		c11.749,0,23.498,0,35.248,0c0.183,0,0.368,0.001,0.55-0.017c0.737-0.073,1.272-0.461,1.545-1.132
		c0.308-0.756,0.153-1.553,0.141-2.349C30.6,33.485,17.4,33.485,4.112,33.485z M25.307,26.531c-0.006,0.003,0.026-0.003,0.047-0.022
		c0.069-0.061,0.14-0.12,0.198-0.19c0.823-0.994,1.879-1.627,3.082-2.064c1.279-0.464,2.415-1.179,3.4-2.121
		c0.685-0.655,1.352-1.33,2.034-1.988c0.287-0.277,0.45-0.587,0.298-0.983c-0.153-0.399-0.475-0.5-0.882-0.507
		c-0.823-0.015-1.203-0.758-0.748-1.45c0.206-0.314,0.278-0.623,0.058-0.934c-0.249-0.351-0.609-0.451-1.016-0.316
		c-0.348,0.116-0.668,0.118-0.92-0.181c-0.265-0.315-0.208-0.644-0.011-0.976c0.198-0.334,0.207-0.675-0.057-0.978
		c-0.261-0.299-0.589-0.361-0.956-0.202c-0.028,0.012-0.059,0.016-0.088,0.027c-0.349,0.134-0.642,0.036-0.848-0.257
		c-0.219-0.312-0.187-0.632,0.063-0.925c0.099-0.116,0.212-0.223,0.292-0.351c0.227-0.363,0.169-0.775-0.13-1.04
		c-0.302-0.267-0.714-0.274-1.048-0.009c-0.107,0.085-0.201,0.187-0.299,0.284c-1.149,1.144-2.291,2.295-3.448,3.43
		c-0.803,0.788-1.702,0.781-2.512,0.011c-0.097-0.092-0.2-0.178-0.38-0.338c-0.171,0.469-0.403,0.868-0.449,1.286
		c-0.063,0.584-0.042,1.19,0.042,1.773c0.193,1.332-0.077,2.49-1.093,3.425c-0.053,0.049-0.091,0.114-0.099,0.125
		C21.67,22.892,23.483,24.706,25.307,26.531z M13.713,5.773c-0.042,0.063-0.068,0.085-0.072,0.11
		c-0.359,2.636,1.59,5.06,4.241,5.261c1.253,0.095,2.394,0.496,3.387,1.258c0.531,0.407,0.986,0.912,1.499,1.345
		c0.116,0.098,0.418,0.167,0.488,0.098c0.839-0.815,1.651-1.658,2.514-2.539c-0.24-0.22-0.478-0.435-0.713-0.653
		c-1.354-1.249-2.065-2.802-2.248-4.629c-0.203-2.019-1.659-3.621-3.647-4.02c-0.535-0.107-1.096-0.085-1.644-0.123
		c-0.015,0.055-0.031,0.111-0.046,0.166c0.766,0.762,1.54,1.517,2.298,2.289c1.107,1.127,1.13,2.756,0.065,3.813
		c-1.052,1.045-2.655,1.021-3.781-0.071c-0.68-0.66-1.342-1.339-2.013-2.008C13.937,5.968,13.826,5.875,13.713,5.773z
		 M23.976,46.112c2.921,0,5.843,0,8.764,0c0.666,0,0.733-0.088,0.587-0.756c-0.284-1.298-1.358-2.147-2.766-2.155
		c-1.973-0.011-3.946-0.003-5.919-0.003c-2.401,0-4.803-0.008-7.204,0.003c-1.436,0.007-2.564,0.93-2.786,2.244
		c-0.1,0.594-0.04,0.667,0.56,0.667C18.133,46.112,21.055,46.112,23.976,46.112z M27.697,41.797
		c-0.265-1.034-0.531-2.035-0.773-3.041c-0.07-0.291-0.204-0.379-0.502-0.374c-1.162,0.019-2.324,0.008-3.487,0.008
		c-0.578,0-1.157,0-1.755,0c-0.298,1.152-0.585,2.265-0.881,3.407C22.78,41.797,25.193,41.797,27.697,41.797z M25.208,28.688
		c-0.196-0.268-0.328-0.506-0.512-0.692c-2.166-2.178-4.34-4.348-6.513-6.518c-0.108-0.107-0.216-0.223-0.346-0.297
		c-0.303-0.174-0.643-0.15-0.816,0.136c-0.127,0.211-0.122,0.53-0.095,0.793c0.014,0.136,0.196,0.261,0.314,0.379
		c2.149,2.152,4.299,4.301,6.451,6.451c0.108,0.108,0.211,0.261,0.342,0.295c0.221,0.057,0.496,0.111,0.687,0.027
		C24.908,29.179,25.02,28.922,25.208,28.688z M32.675,23.679c0.241,0.235,0.555,0.568,0.897,0.869
		c0.611,0.538,1.473,0.614,2.176,0.217c0.69-0.39,1.046-1.136,0.943-1.933c-0.115-0.898-0.84-1.329-1.419-1.959
		C34.4,21.815,33.562,22.721,32.675,23.679z M16.24,6.301c0.391,0.374,0.694,0.71,1.044,0.986c0.362,0.285,0.793,0.297,1.211,0.108
		c0.456-0.206,0.684-0.575,0.719-1.094C18.244,6.301,17.295,6.301,16.24,6.301z"/>
</g>
</svg>
