<?xml version="1.0" encoding="utf-8"?>
<!-- Generator: Adobe Illustrator 17.0.0, SVG Export Plug-In . SVG Version: 6.00 Build 0)  -->
<!DOCTYPE svg PUBLIC "-//W3C//DTD SVG 1.1//EN" "http://www.w3.org/Graphics/SVG/1.1/DTD/svg11.dtd">
<svg version="1.1" id="Layer_1" xmlns="http://www.w3.org/2000/svg" xmlns:xlink="http://www.w3.org/1999/xlink" x="0px" y="0px"
	 width="48px" height="48px" viewBox="0 0 48 48" enable-background="new 0 0 48 48" xml:space="preserve">
<g>
	<path fill="#1e3b69" d="M0.5,40.432c0.234-0.88,0.383-1.794,0.719-2.632c0.869-2.164,2.421-3.715,4.526-4.712
		c0.082-0.039,0.163-0.082,0.29-0.147c-1.58-1.327-2.371-3-2.202-5.049c0.124-1.51,0.798-2.774,1.939-3.779
		c2.2-1.939,5.543-1.856,7.671,0.21c1.242,1.206,1.828,2.695,1.726,4.425c-0.101,1.708-0.882,3.086-2.131,4.119
		c0.992,0.675,1.97,1.34,2.983,2.029c0.982-1.841,2.484-3.258,4.532-4.147c-1.568-1.317-2.358-2.958-2.222-4.975
		c0.099-1.461,0.711-2.707,1.782-3.713c2.199-2.065,5.58-2.07,7.773,0.002c1.272,1.202,1.882,2.696,1.789,4.444
		c-0.092,1.725-0.867,3.122-2.235,4.237c2.044,0.897,3.551,2.294,4.536,4.158c0.998-0.68,1.985-1.352,2.985-2.033
		c-1.479-1.239-2.265-2.882-2.125-4.899c0.107-1.53,0.773-2.811,1.921-3.835c2.251-2.006,5.727-1.85,7.84,0.324
		c2.074,2.134,2.357,5.984-0.596,8.472c0.464,0.262,0.937,0.494,1.373,0.783c2.295,1.519,3.646,3.645,4.042,6.373
		c0.017,0.117,0.056,0.231,0.085,0.347c0,2.356,0,4.712,0,7.068c-15.667,0-31.333,0-47,0C0.5,45.144,0.5,42.788,0.5,40.432z
		 M31.143,45.644c0-2.393,0.078-4.735-0.018-7.07c-0.146-3.558-3.176-6.499-6.729-6.666c-4.113-0.193-7.495,2.977-7.551,7.11
		c-0.028,2.095-0.006,4.191-0.004,6.286c0,0.115,0.022,0.231,0.033,0.339c3.55,0,7.063,0,10.623,0c0-0.613-0.006-1.205,0.002-1.797
		c0.006-0.427-0.01-0.86,0.061-1.277c0.08-0.475,0.468-0.725,0.934-0.691c0.434,0.031,0.763,0.337,0.822,0.786
		c0.025,0.196,0.017,0.397,0.017,0.595c0.002,0.79,0.001,1.58,0.001,2.386C29.964,45.644,30.538,45.644,31.143,45.644z
		 M15.004,45.655c0-1.121-0.023-2.204,0.005-3.286c0.046-1.724,0.131-3.448,0.183-5.172c0.005-0.159-0.081-0.35-0.185-0.477
		c-1.085-1.329-2.478-2.15-4.16-2.484c-3.992-0.792-7.948,1.984-8.399,6.029c-0.196,1.753-0.076,3.541-0.096,5.313
		c0,0.022,0.037,0.045,0.063,0.077C6.582,45.655,10.756,45.655,15.004,45.655z M45.582,45.655c0-1.824,0.174-3.629-0.039-5.387
		c-0.36-2.978-2.14-4.989-4.994-5.844c-2.917-0.874-5.451-0.048-7.507,2.216c-0.219,0.241-0.263,0.474-0.224,0.785
		c0.083,0.65,0.162,1.306,0.17,1.96c0.022,1.927,0.008,3.854,0.008,5.781c0,0.16,0,0.321,0,0.489
		C37.243,45.655,41.417,45.655,45.582,45.655z M13.347,28.474c0.061-2.079-1.67-3.867-3.795-3.919
		c-2.068-0.051-3.823,1.639-3.906,3.761c-0.081,2.075,1.635,3.868,3.77,3.941C11.494,32.327,13.285,30.603,13.347,28.474z
		 M38.438,32.257c2.08,0.059,3.867-1.673,3.917-3.797c0.049-2.069-1.642-3.823-3.763-3.904c-2.074-0.079-3.868,1.639-3.939,3.773
		C34.585,30.406,36.31,32.197,38.438,32.257z M24.018,22.351c-2.093-0.018-3.864,1.742-3.87,3.845
		c-0.006,2.082,1.711,3.821,3.811,3.859c2.086,0.037,3.866-1.71,3.893-3.822C27.879,24.143,26.127,22.369,24.018,22.351z"/>
	<path fill="#1e3b69" d="M24.275,0.5c0.51,0.284,0.684,0.724,0.649,1.295c-0.03,0.501,0.004,1.006-0.01,1.508
		C24.897,3.908,24.533,4.289,24,4.289c-0.533,0-0.899-0.381-0.914-0.987c-0.015-0.594,0.006-1.189-0.006-1.783
		c-0.01-0.49,0.278-0.776,0.645-1.02C23.908,0.5,24.092,0.5,24.275,0.5z"/>
	<path fill="#1e3b69" d="M19.047,17.97c0.151-0.884,0.305-1.896,0.504-2.899c0.068-0.345-0.008-0.565-0.261-0.798
		c-0.64-0.591-1.245-1.22-1.882-1.816c-0.46-0.43-0.724-0.929-0.539-1.553c0.185-0.626,0.671-0.905,1.303-0.989
		c0.924-0.123,1.842-0.287,2.767-0.398c0.29-0.035,0.419-0.166,0.534-0.407c0.394-0.827,0.815-1.642,1.211-2.468
		c0.273-0.569,0.671-0.947,1.336-0.94c0.645,0.007,1.029,0.383,1.294,0.933c0.404,0.839,0.81,1.678,1.248,2.5
		c0.088,0.164,0.312,0.325,0.496,0.357c0.962,0.172,1.932,0.304,2.899,0.446c0.563,0.083,0.977,0.371,1.157,0.913
		c0.185,0.558,0.03,1.055-0.388,1.466c-0.688,0.674-1.374,1.352-2.074,2.014c-0.197,0.187-0.276,0.364-0.223,0.64
		c0.179,0.93,0.332,1.865,0.496,2.797c0.103,0.588-0.022,1.105-0.518,1.469c-0.478,0.351-0.996,0.344-1.513,0.072
		c-0.852-0.447-1.695-0.913-2.56-1.333c-0.182-0.088-0.479-0.091-0.66-0.003c-0.893,0.433-1.754,0.932-2.646,1.366
		C20.048,19.817,19.028,19.162,19.047,17.97z M26.97,17.273c-0.146-0.859-0.255-1.612-0.406-2.357
		c-0.135-0.666,0.058-1.184,0.549-1.644c0.553-0.518,1.068-1.078,1.635-1.656c-0.523-0.076-1.018-0.137-1.508-0.219
		c-1.986-0.333-1.594,0.043-2.546-1.865c-0.219-0.44-0.439-0.88-0.696-1.395c-0.4,0.808-0.755,1.515-1.1,2.228
		c-0.253,0.522-0.649,0.821-1.234,0.896c-0.795,0.103-1.587,0.236-2.383,0.357c0.484,0.505,0.91,1.029,1.416,1.46
		c0.697,0.595,0.918,1.271,0.688,2.158c-0.165,0.634-0.226,1.295-0.348,2.032c0.774-0.405,1.455-0.745,2.12-1.115
		c0.574-0.319,1.119-0.317,1.692,0.002C25.512,16.527,26.193,16.866,26.97,17.273z"/>
	<path fill="#1e3b69" d="M19.726,7.149c-0.206,0.274-0.34,0.61-0.581,0.729c-0.245,0.12-0.599,0.054-0.897,0.012
		c-0.128-0.018-0.245-0.172-0.352-0.279c-0.941-0.936-1.88-1.874-2.815-2.816c-0.117-0.118-0.234-0.246-0.314-0.39
		c-0.212-0.378-0.148-0.739,0.139-1.052c0.284-0.311,0.725-0.374,1.087-0.163c0.117,0.068,0.227,0.156,0.324,0.252
		c0.973,0.968,1.951,1.933,2.908,2.917C19.414,6.555,19.526,6.828,19.726,7.149z"/>
	<path fill="#1e3b69" d="M28.394,6.961c0.079-0.128,0.188-0.402,0.378-0.598c0.957-0.984,1.931-1.952,2.908-2.916
		c0.482-0.475,1.021-0.501,1.412-0.099c0.384,0.396,0.359,0.907-0.105,1.378c-0.985,1-1.981,1.989-2.977,2.977
		c-0.305,0.303-0.667,0.437-1.082,0.245C28.581,7.787,28.396,7.506,28.394,6.961z"/>
	<path fill="#1e3b69" d="M28.42,40.095c-0.494,0-0.915-0.414-0.915-0.899c0-0.484,0.423-0.898,0.915-0.898
		c0.501,0,0.906,0.401,0.906,0.899C29.327,39.693,28.921,40.095,28.42,40.095z"/>
</g>
</svg>
