<?xml version="1.0" encoding="utf-8"?>
<!-- Generator: Adobe Illustrator 19.2.1, SVG Export Plug-In . SVG Version: 6.00 Build 0)  -->
<svg version="1.1" id="Layer_1" xmlns="http://www.w3.org/2000/svg" xmlns:xlink="http://www.w3.org/1999/xlink" x="0px" y="0px"
	 viewBox="0 0 42 48" style="enable-background:new 0 0 42 48;" xml:space="preserve">
<style type="text/css">
	.st0{fill:#252B33;}
</style>
<g id="Page-1">
	<g id="ic-technology-shopify-plus">
		<path id="Shopify-Copy" class="st0" d="M30.8,7l1.7,1.7c0,0,3.7,0.3,3.8,0.3c0.2,0,0.4,0.2,0.4,0.4c0,0.2,5.2,35.4,5.2,35.4
			l-12.7,2.8L30.8,7L30.8,7z M28.9,5.7c-0.1,0-0.2,0-0.2,0.1l-1.4,0.4c-0.9-2.5-2.4-4.7-5-4.7c-0.1,0-0.2,0-0.2,0
			c-0.8-1-1.7-1.4-2.5-1.4c-6.2,0-9.1,7.7-10,11.7c-2.4,0.7-4.1,1.3-4.3,1.3c-1.3,0.4-1.4,0.5-1.6,1.7C3.5,15.7,0,42.9,0,42.9
			L27.2,48l0,0L28.9,5.7L28.9,5.7z M21.8,7.6l0,0.3L17,9.3c0.9-3.6,2.6-5.3,4.1-5.9C21.6,4.4,21.8,5.7,21.8,7.6z M19.3,1.7
			c0.3,0,0.5,0.1,0.8,0.3c-2,0.9-4.1,3.3-5,8l-3.8,1.2C12.4,7.5,14.9,1.7,19.3,1.7L19.3,1.7z M20.4,22.6c0,0-1.6-0.9-3.5-0.9
			c-2.9,0-3,1.8-3,2.3c0,2.5,6.4,3.4,6.4,9.3c0,4.6-2.9,7.5-6.8,7.5c-4.7,0-7.1-2.9-7.1-2.9l1.3-4.2c0,0,2.5,2.1,4.5,2.1
			c1.4,0,1.9-1.1,1.9-1.9c0-3.2-5.3-3.4-5.3-8.7c0-4.5,3.2-8.8,9.7-8.8c2.5,0,3.7,0.7,3.7,0.7L20.4,22.6L20.4,22.6z M23.4,7.3l0-0.5
			c0-1.5-0.2-2.8-0.5-3.7c1.4,0.2,2.3,1.7,2.9,3.5L23.4,7.3z"/>
	</g>
</g>
</svg>
