<?xml version="1.0" encoding="utf-8"?>
<!-- Generator: Adobe Illustrator 17.0.0, SVG Export Plug-In . SVG Version: 6.00 Build 0)  -->
<!DOCTYPE svg PUBLIC "-//W3C//DTD SVG 1.1//EN" "http://www.w3.org/Graphics/SVG/1.1/DTD/svg11.dtd">
<svg version="1.1" id="Layer_1" xmlns="http://www.w3.org/2000/svg" xmlns:xlink="http://www.w3.org/1999/xlink" x="0px" y="0px"
	 width="48px" height="48px" viewBox="0 0 48 48" enable-background="new 0 0 48 48" xml:space="preserve">
<g>
	<path fill="#21376D" d="M29.508,0.5c0,1.161,0,2.321,0,3.531c1.365,0,2.718,0,4.132,0c0,1.199,0,2.351,0,3.562
		c1.427,0,2.794,0,4.196,0c0,1.201,0,2.344,0,3.544c1.4,0,2.766,0,4.159,0c0,1.548,0,3.038,0,4.556c-0.444,0-0.864,0-1.342,0
		c0-1.046,0-2.078,0-3.135c-8.742,0-17.426,0-26.15,0c0,11.165,0,22.336,0,33.535c5.357,0,10.715,0,16.194,0
		c-0.68-0.394-1.257-0.753-1.858-1.066c-0.3-0.156-0.38-0.346-0.311-0.657c0.046-0.207,0.01-0.439,0.079-0.635
		c0.484-1.372-0.36-2.358-0.979-3.406c-0.069-0.116-0.231-0.192-0.366-0.253c-0.57-0.259-1.142-0.514-1.72-0.753
		c-0.223-0.093-0.33-0.208-0.328-0.471c0.013-1.545-0.001-3.09,0.018-4.635c0.002-0.151,0.162-0.309,0.273-0.444
		c0.052-0.063,0.159-0.092,0.246-0.114c1.404-0.36,2.323-1.255,2.84-2.583c0.079-0.201,0.138-0.433,0.123-0.644
		c-0.044-0.625-0.149-1.245-0.186-1.87c-0.009-0.149,0.111-0.376,0.239-0.452c1.339-0.798,2.687-1.58,4.046-2.344
		c0.129-0.072,0.347,0.001,0.52,0.029c0.067,0.011,0.13,0.079,0.183,0.133c1.027,1.045,2.276,1.399,3.703,1.184
		c0.201-0.03,0.418-0.085,0.583-0.196c0.495-0.332,0.981-0.681,1.443-1.056c0.269-0.218,0.489-0.248,0.766-0.036
		c0.164,0.125,0.361,0.208,0.627,0.357c0-3.07,0-6.055,0-9.06c0.485,0,0.906,0,1.384,0c0,0.201,0,0.379,0,0.558
		c0,2.953,0.006,5.905-0.008,8.858c-0.001,0.331,0.085,0.531,0.387,0.686c0.516,0.265,1.003,0.586,1.515,0.859
		c0.227,0.121,0.292,0.259,0.254,0.51c-0.073,0.468-0.065,0.952-0.174,1.409c-0.141,0.591,0.106,1.038,0.341,1.546
		c0.451,0.976,1.121,1.628,2.16,1.923c0.348,0.099,0.669,0.293,1.002,0.443c0,1.744,0,3.488,0,5.232
		c-0.696,0.312-1.392,0.623-2.088,0.936c-0.353,0.159-1.493,2.003-1.477,2.388c0.001,0.015,0.003,0.03,0.004,0.046
		c0.073,0.638,0.129,1.278,0.226,1.912c0.044,0.287-0.03,0.439-0.284,0.582c-1.251,0.706-2.503,1.411-3.727,2.162
		c-0.406,0.249-0.667,0.223-1.039-0.057c-1.658-1.245-1.667-1.234-3.706-1.165c-0.13,0.004-0.284,0.027-0.384,0.1
		c-0.653,0.474-1.294,0.965-1.938,1.45c-6.671,0-13.341,0-20.012,0c0-1.17,0-2.341,0-3.573c-1.412,0-2.775,0-4.181,0
		c0-1.202,0-2.342,0-3.536c-1.411,0-2.778,0-4.189,0c0-1.208,0-2.362,0-3.539c-1.432,0-2.819,0-4.206,0c0-12.117,0-24.234,0-36.352
		c2.147,0,4.286,0,6.426,0c0,0.452,0,0.904,0,1.394c-1.707,0-3.337,0-4.982,0c0,11.202,0,22.364,0,33.542c0.934,0,1.841,0,2.786,0
		c0-4.798,0-9.565,0-14.348c0.471,0,0.904,0,1.387,0c0,5.985,0,11.941,0,17.892c0.957,0,1.863,0,2.812,0c0-10.473,0-20.901,0-31.395
		c7.804,0,15.563,0,23.318,0c0-0.747,0-1.428,0-2.111c-8.726,0-17.421,0-26.166,0c0,4.751,0,9.469,0,14.182
		c-0.473,0-0.895,0-1.331,0c0-5.203,0-10.381,0-15.612c7.789,0,15.551,0,23.328,0c0-0.748,0-1.443,0-2.179
		c-6.603,0-13.175,0-19.774,0c0-0.484,0-0.924,0-1.365C15.371,0.5,22.439,0.5,29.508,0.5z M29.97,43.955
		c0.046,0.048,0.137,0.195,0.269,0.274c0.76,0.454,1.542,0.874,2.292,1.345c0.337,0.212,0.577,0.212,0.88-0.05
		c0.736-0.637,1.512-1.016,2.581-1.003c1.318,0.016,2.499,0.134,3.473,1.111c0.091,0.092,0.377,0.093,0.511,0.021
		c0.78-0.42,1.532-0.89,2.311-1.311c0.34-0.183,0.497-0.37,0.391-0.783c-0.261-1.021-0.03-1.913,0.513-2.853
		c0.623-1.08,1.305-1.957,2.551-2.273c0.296-0.075,0.352-0.27,0.347-0.548c-0.015-0.826-0.035-1.653,0.006-2.477
		c0.023-0.467-0.101-0.74-0.569-0.869c-1.01-0.278-1.617-0.957-2.154-1.864c-0.64-1.08-1.027-2.118-0.672-3.354
		c0.073-0.254-0.046-0.38-0.263-0.5c-0.76-0.424-1.523-0.848-2.256-1.315c-0.355-0.226-0.62-0.239-0.919,0.06
		c-0.782,0.781-1.723,0.959-2.822,0.968c-1.207,0.01-2.254-0.168-3.119-1.044c-0.218-0.221-0.417-0.216-0.684-0.052
		c-0.729,0.448-1.465,0.886-2.223,1.28c-0.373,0.194-0.51,0.411-0.404,0.822c0.259,1.011,0.018,1.883-0.509,2.808
		c-0.625,1.098-1.316,1.988-2.584,2.302c-0.278,0.069-0.328,0.256-0.325,0.516c0.012,0.917,0.015,1.835-0.001,2.752
		c-0.005,0.272,0.073,0.436,0.34,0.504c1.246,0.317,2.044,1.125,2.52,2.291c0.057,0.14,0.139,0.274,0.231,0.395
		c0.422,0.555,0.571,1.157,0.395,1.845C30.007,43.232,30.013,43.53,29.97,43.955z M10.324,9c0,11.205,0,22.362,0,33.533
		c0.927,0,1.821,0,2.766,0c0-10.464,0-20.902,0-31.386c7.813,0,15.575,0,23.353,0c0-0.739,0-1.431,0-2.148
		C27.73,9,19.048,9,10.324,9z"/>
	<path fill="#21376D" d="M23.601,23.772c-0.526,0-0.934,0-1.39,0c0-1.083,0-2.146,0-3.25c-1.398,0-2.747,0-4.144,0
		c0,1.07,0,2.135,0,3.235c-0.465,0-0.884,0-1.361,0c0-0.261,0.003-0.528,0-0.795c-0.017-1.315-0.092-2.633-0.031-3.944
		c0.037-0.797,0.191-1.615,0.453-2.368c0.45-1.288,1.523-1.925,2.977-1.934c1.468-0.009,2.528,0.602,3.004,1.89
		c0.266,0.719,0.438,1.507,0.471,2.272C23.65,20.493,23.601,22.114,23.601,23.772z M17.989,19.104c1.131,0,2.151,0,3.171,0
		c1.183,0,1.217-0.042,0.995-1.234c-0.199-1.067-0.922-1.736-1.917-1.773c-1.05-0.038-1.829,0.523-2.08,1.559
		C18.053,18.095,18.05,18.557,17.989,19.104z"/>
	<path fill="#21376D" d="M26.336,23.773c-0.494,0-0.902,0-1.351,0c0-3.009,0-6.007,0-9.02c0.063-0.014,0.12-0.037,0.177-0.037
		c1.421,0.001,2.842-0.024,4.262,0.016c1.259,0.035,2.202,0.976,2.362,2.264c0.157,1.269-0.548,2.453-1.709,2.809
		c-0.33,0.101-0.689,0.138-1.036,0.146c-0.884,0.02-1.77,0.007-2.706,0.007C26.336,21.232,26.336,22.478,26.336,23.773z
		 M26.347,18.576c1.014,0,1.974,0.023,2.933-0.008c0.697-0.022,1.184-0.587,1.169-1.27c-0.015-0.664-0.504-1.177-1.191-1.198
		c-0.761-0.023-1.524-0.009-2.286-0.011c-0.205-0.001-0.41,0-0.626,0C26.347,16.953,26.347,17.739,26.347,18.576z"/>
	<path fill="#21376D" d="M34.568,23.77c-0.45,0-0.857,0-1.309,0c0-2.998,0-5.992,0-8.999c0.442,0,0.862,0,1.309,0
		C34.568,17.771,34.568,20.743,34.568,23.77z"/>
	<path fill="#21376D" d="M17.139,28.804c0.443,0,0.862,0,1.317,0c0,0.434,0,0.864,0,1.325c-0.429,0-0.86,0-1.317,0
		C17.139,29.688,17.139,29.257,17.139,28.804z"/>
	<path fill="#21376D" d="M19.906,28.799c0.44,0,0.86,0,1.31,0c0,0.447,0,0.877,0,1.334c-0.431,0-0.851,0-1.31,0
		C19.906,29.713,19.906,29.282,19.906,28.799z"/>
	<path fill="#21376D" d="M32.438,39.242c-0.374,0.295-0.707,0.558-1.078,0.85c-0.93-1.189-1.848-2.364-2.781-3.557
		c0.93-1.189,1.848-2.364,2.78-3.557c0.367,0.288,0.701,0.55,1.081,0.849c-0.704,0.903-1.393,1.787-2.11,2.707
		C31.021,37.421,31.711,38.308,32.438,39.242z"/>
	<path fill="#21376D" d="M41.329,32.978c0.941,1.205,1.852,2.371,2.778,3.557c-0.927,1.186-1.846,2.362-2.777,3.554
		c-0.368-0.288-0.703-0.55-1.082-0.846c0.702-0.901,1.393-1.787,2.108-2.706c-0.693-0.892-1.384-1.779-2.107-2.709
		C40.599,33.552,40.943,33.282,41.329,32.978z"/>
	<path fill="#21376D" d="M38.532,33.983c0.281,0.364,0.54,0.699,0.841,1.088c-1.721,1.329-3.427,2.648-5.176,3.998
		c-0.277-0.35-0.548-0.691-0.856-1.08C35.074,36.652,36.791,35.327,38.532,33.983z"/>
</g>
</svg>
