<?xml version="1.0" encoding="utf-8"?>
<!-- Generator: Adobe Illustrator 17.0.0, SVG Export Plug-In . SVG Version: 6.00 Build 0)  -->
<!DOCTYPE svg PUBLIC "-//W3C//DTD SVG 1.1//EN" "http://www.w3.org/Graphics/SVG/1.1/DTD/svg11.dtd">
<svg version="1.1" id="Layer_1" xmlns="http://www.w3.org/2000/svg" xmlns:xlink="http://www.w3.org/1999/xlink" x="0px" y="0px"
	 width="48px" height="48px" viewBox="0 0 48 48" enable-background="new 0 0 48 48" xml:space="preserve">
<g>
	<path fill="#21376D" d="M1.498,10.373c0.115-0.249,0.205-0.514,0.35-0.745c0.468-0.75,1.173-1.064,2.041-1.062
		c1.465,0.003,2.929,0.001,4.394,0.001c0.174,0,0.349,0,0.592,0c0-0.362-0.003-0.692,0-1.022c0.013-1.301,0.863-2.208,2.161-2.305
		c0.16-0.012,0.322-0.012,0.483-0.012c8.158-0.001,16.316-0.002,24.474,0.004c0.334,0,0.68,0.015,1,0.101
		c0.988,0.266,1.605,1.116,1.609,2.2c0.009,2.299,0.003,4.599,0.003,6.898c0,0.159,0,0.317,0,0.473
		c0.283,0.056,0.531,0.084,0.766,0.156c0.913,0.281,1.52,1.098,1.56,2.119c0.023,0.6,0.014,1.201,0.004,1.801
		c-0.009,0.51-0.276,0.804-0.686,0.789c-0.392-0.015-0.621-0.297-0.627-0.794c-0.007-0.542,0.005-1.084-0.004-1.626
		c-0.012-0.727-0.364-1.081-1.084-1.081c-9.857-0.002-19.714-0.002-29.571,0c-0.777,0-1.089,0.348-1.09,1.202
		c-0.002,5.888-0.004,11.776,0.002,17.663c0.001,0.927,0.014,1.85-0.638,2.729c0.27,0,0.436,0,0.603,0
		c6.591,0,13.182-0.002,19.772,0.006c0.329,0,0.532-0.127,0.792-0.326c0.723-0.551,0.827-1.084,0.368-1.895
		c-0.43-0.759-0.345-0.807-1.272-0.811c-0.953-0.004-1.232-0.28-1.233-1.226c-0.001-0.718-0.007-1.435,0.002-2.153
		c0.008-0.654,0.36-1.074,1.006-0.994c0.908,0.113,1.349-0.191,1.6-1.08c0.237-0.836,0.327-0.811-0.299-1.438
		c-0.706-0.707-0.707-1.101-0.005-1.804c0.486-0.487,0.97-0.977,1.461-1.459c0.5-0.492,0.988-0.491,1.493,0.005
		c0.261,0.256,0.506,0.528,0.749,0.783c0.606-0.238,1.176-0.452,1.734-0.692c0.086-0.037,0.162-0.192,0.17-0.297
		c0.022-0.321,0.003-0.644,0.01-0.966c0.014-0.599,0.35-0.976,0.943-0.992c0.834-0.023,1.67-0.023,2.504,0.001
		c0.572,0.016,0.91,0.386,0.943,0.954c0.007,0.117,0.002,0.234,0.002,0.351c0.001,0.966,0.001,0.966,1.038,1.223
		c0-0.461,0-0.905,0-1.349c0-0.454-0.004-0.908,0.002-1.362c0.007-0.527,0.241-0.808,0.658-0.803
		c0.415,0.005,0.65,0.287,0.656,0.817c0.008,0.732,0.002,1.465,0.004,2.197c0,0.097,0.013,0.194,0.024,0.361
		c0.111-0.094,0.175-0.144,0.233-0.198c0.58-0.54,1.029-0.535,1.593,0.025c0.52,0.516,1.041,1.031,1.553,1.554
		c0.485,0.496,0.484,1.003-0.009,1.495c-0.269,0.268-0.564,0.509-0.797,0.717c0.252,0.633,0.451,1.167,0.683,1.685
		c0.05,0.111,0.215,0.226,0.337,0.239c0.319,0.034,0.644,0.001,0.965,0.015c0.622,0.029,0.967,0.384,0.974,1.008
		c0.009,0.791,0.009,1.582,0,2.373c-0.007,0.631-0.355,1.057-0.969,0.987c-0.927-0.105-1.412,0.19-1.666,1.121
		c-0.217,0.795-0.314,0.769,0.285,1.369c0.749,0.75,0.752,1.131,0.013,1.871c-0.476,0.477-0.948,0.958-1.431,1.428
		c-0.512,0.499-1.036,0.538-1.48-0.013c-0.538-0.667-1.062-0.874-1.807-0.347c-0.23,0.163-0.543,0.208-0.861,0.323
		c0,0.377,0.007,0.77-0.002,1.163c-0.014,0.653-0.346,1.012-1,1.03c-0.79,0.021-1.582,0.02-2.372,0.002
		c-0.687-0.015-1.073-0.371-1.003-1.046c0.086-0.838-0.125-1.306-1.016-1.547c-0.907-0.246-0.881-0.343-1.545,0.318
		c-0.663,0.661-1.073,0.657-1.746-0.012c-0.426-0.423-0.786-1.009-1.3-1.219c-0.53-0.216-1.209-0.073-1.824-0.073
		c-7.235-0.002-14.471-0.001-21.706-0.001c-1.89,0-2.93-0.756-3.512-2.552c-0.008-0.025-0.037-0.042-0.057-0.063
		c0-7.354,0-14.707,0-22.061c0.142-0.117,0.267-0.279,0.431-0.344c0.51-0.201,0.887,0.16,0.887,0.831
		c0.001,6.855,0.001,13.709,0.001,20.564c0,0.146-0.003,0.293,0.001,0.439c0.028,1.021,0.807,1.828,1.796,1.861
		c0.984,0.033,1.826-0.726,1.917-1.737c0.02-0.218,0.021-0.439,0.021-0.658c0.001-6.005,0-12.01,0.002-18.015
		c0-1.207,0.531-2.04,1.513-2.369c0.246-0.082,0.509-0.114,0.779-0.173c0-1.654,0-3.314,0-5.002c-1.753,0-3.478-0.015-5.203,0.01
		c-0.484,0.007-0.792,0.382-0.821,0.871c-0.018,0.307,0.042,0.626-0.026,0.919c-0.05,0.213-0.216,0.496-0.395,0.557
		c-0.203,0.069-0.481-0.066-0.72-0.133c-0.071-0.02-0.122-0.111-0.183-0.17C1.498,11.428,1.498,10.9,1.498,10.373z M37.268,14.933
		c0.008-0.157,0.018-0.272,0.018-0.386c0.001-2.284,0.002-4.568,0-6.852c-0.001-0.824-0.315-1.147-1.14-1.148
		c-8.272-0.003-16.545-0.003-24.817,0c-0.818,0-1.135,0.333-1.135,1.154c-0.002,2.269-0.001,4.539-0.001,6.808
		c0,0.139,0,0.278,0,0.424C19.247,14.933,28.234,14.933,37.268,14.933z M30.777,39.439c0.018-0.004,0.035-0.003,0.043-0.012
		c0.241-0.234,0.481-0.471,0.723-0.704c0.409-0.394,0.769-0.427,1.273-0.196c0.622,0.285,1.255,0.55,1.896,0.787
		c0.559,0.207,0.783,0.468,0.792,1.063c0.005,0.345,0.001,0.69,0.001,1.045c0.612,0,1.163,0,1.759,0c0-0.387-0.005-0.75,0.001-1.111
		c0.01-0.526,0.229-0.783,0.721-0.972c0.666-0.255,1.326-0.529,1.976-0.823c0.481-0.218,0.849-0.186,1.238,0.191
		c0.259,0.251,0.504,0.516,0.684,0.7c0.443-0.435,0.844-0.829,1.257-1.234c0.014,0.03,0.011,0.014,0.002,0.005
		c-0.225-0.23-0.451-0.459-0.675-0.69c-0.421-0.436-0.446-0.764-0.191-1.307c0.285-0.606,0.548-1.225,0.775-1.854
		c0.212-0.588,0.452-0.799,1.09-0.808c0.332-0.005,0.665-0.001,1.004-0.001c0-0.61,0-1.168,0-1.76c-0.384,0-0.734,0.008-1.083-0.002
		c-0.561-0.016-0.806-0.233-0.998-0.749c-0.244-0.655-0.512-1.302-0.803-1.937c-0.231-0.505-0.218-0.842,0.174-1.232
		c0.258-0.256,0.549-0.479,0.79-0.687c-0.481-0.487-0.878-0.888-1.333-1.348c-0.097,0.123-0.199,0.266-0.316,0.397
		c-0.127,0.141-0.264,0.275-0.404,0.404c-0.389,0.357-0.73,0.382-1.205,0.166c-0.636-0.29-1.28-0.566-1.934-0.81
		c-0.548-0.204-0.761-0.447-0.769-1.025c-0.005-0.358-0.001-0.716-0.001-1.069c-0.626,0-1.175,0-1.758,0
		c0,0.364,0.004,0.699-0.001,1.034c-0.009,0.599-0.229,0.856-0.787,1.062c-0.642,0.237-1.275,0.503-1.896,0.79
		c-0.521,0.241-0.856,0.215-1.274-0.184c-0.259-0.248-0.513-0.501-0.753-0.735c-0.433,0.426-0.827,0.814-1.285,1.265
		c0.252,0.223,0.515,0.435,0.752,0.672c0.472,0.469,0.484,0.775,0.194,1.376c-0.278,0.577-0.526,1.171-0.737,1.775
		c-0.215,0.617-0.448,0.826-1.111,0.837c-0.33,0.005-0.661,0.001-0.996,0.001c0,0.618,0,1.167,0,1.758
		c0.361,0,0.695-0.005,1.028,0.001c0.604,0.011,0.866,0.236,1.066,0.788c0.228,0.629,0.481,1.252,0.766,1.857
		c0.27,0.573,0.249,0.879-0.201,1.342c-0.24,0.247-0.485,0.488-0.685,0.689C30.014,38.641,30.396,39.041,30.777,39.439z"/>
	<path fill="#21376D" d="M15.156,30.626c1.23,0,2.459-0.004,3.689,0.001c1.185,0.004,1.776,0.599,1.782,1.787
		c0.003,0.673,0.009,1.347-0.002,2.02c-0.016,1.041-0.635,1.667-1.68,1.671c-2.547,0.009-5.094,0.01-7.641,0
		c-1.046-0.004-1.65-0.63-1.66-1.681c-0.007-0.703-0.006-1.405,0-2.108c0.009-1.08,0.604-1.679,1.693-1.687
		C12.609,30.619,13.883,30.627,15.156,30.626z M15.165,31.945c-1.243,0-2.486,0.009-3.729-0.006
		c-0.36-0.004-0.495,0.115-0.482,0.481c0.022,0.643,0.016,1.287,0.002,1.93c-0.007,0.315,0.105,0.446,0.431,0.445
		c2.501-0.008,5.001-0.006,7.502-0.001c0.298,0.001,0.425-0.118,0.421-0.416c-0.008-0.643-0.019-1.287,0.004-1.93
		c0.014-0.383-0.126-0.514-0.508-0.509C17.593,31.956,16.379,31.945,15.165,31.945z"/>
	<path fill="#21376D" d="M13.771,21.166c1.155,0,2.31-0.008,3.465,0.004c0.415,0.004,0.679,0.284,0.675,0.652
		c-0.004,0.347-0.256,0.607-0.643,0.651c-0.13,0.015-0.263,0.007-0.394,0.007c-1.813,0-3.625,0-5.438,0
		c-0.336,0-0.673,0.006-1.009-0.002c-0.501-0.013-0.764-0.238-0.773-0.646c-0.009-0.432,0.253-0.665,0.785-0.668
		c1.111-0.007,2.222-0.002,3.333-0.002C13.771,21.163,13.771,21.165,13.771,21.166z"/>
	<path fill="#21376D" d="M12.593,18.086c0.732,0,1.464-0.006,2.196,0.002c0.51,0.005,0.768,0.226,0.776,0.637
		c0.009,0.426-0.264,0.674-0.789,0.677c-1.45,0.007-2.899,0.007-4.349,0c-0.502-0.003-0.766-0.237-0.774-0.645
		c-0.009-0.432,0.253-0.662,0.787-0.668C11.157,18.081,11.875,18.086,12.593,18.086z"/>
	<path fill="#21376D" d="M24.23,10.66c0.205-0.709,0.391-1.307,0.55-1.912c0.109-0.413,0.32-0.691,0.773-0.701
		c0.406-0.008,0.659,0.237,0.761,0.753c0.25,1.262,0.493,2.525,0.731,3.789c0.078,0.416-0.146,0.753-0.525,0.828
		c-0.352,0.069-0.672-0.154-0.762-0.557c-0.106-0.479-0.192-0.962-0.358-1.452c-0.128,0.445-0.261,0.888-0.383,1.334
		c-0.11,0.4-0.307,0.706-0.769,0.709c-0.459,0.003-0.667-0.291-0.78-0.694c-0.12-0.431-0.255-0.859-0.481-1.291
		c-0.078,0.435-0.151,0.871-0.237,1.305c-0.103,0.521-0.491,0.776-0.909,0.605c-0.292-0.12-0.455-0.348-0.403-0.656
		c0.234-1.383,0.475-2.766,0.742-4.143c0.068-0.349,0.358-0.536,0.718-0.533c0.361,0.004,0.609,0.203,0.715,0.546
		C23.816,9.241,24.004,9.896,24.23,10.66z"/>
	<path fill="#21376D" d="M29.866,13.45c-0.542-0.019-1.165-0.231-1.657-0.749c-0.305-0.321-0.324-0.654-0.068-0.938
		c0.271-0.3,0.585-0.26,0.979-0.025c0.321,0.192,0.707,0.294,1.078,0.37c0.111,0.023,0.267-0.175,0.402-0.272
		c-0.097-0.127-0.167-0.307-0.296-0.372c-0.351-0.178-0.728-0.303-1.091-0.458c-0.734-0.313-1.056-0.807-1.001-1.522
		c0.049-0.644,0.55-1.219,1.234-1.378c0.76-0.177,1.453,0.005,2.072,0.463c0.332,0.246,0.389,0.626,0.173,0.927
		c-0.207,0.288-0.54,0.323-0.902,0.171c-0.311-0.131-0.65-0.205-0.983-0.269c-0.074-0.014-0.176,0.117-0.265,0.181
		c0.071,0.077,0.129,0.185,0.217,0.225c0.305,0.14,0.622,0.253,0.933,0.382c0.961,0.398,1.395,1.087,1.217,1.926
		C31.739,12.905,30.974,13.448,29.866,13.45z"/>
	<path fill="#21376D" d="M15.537,10.851c-0.004-2.113,2.185-3.458,3.953-2.511c0.514,0.275,0.681,0.633,0.473,1.012
		c-0.205,0.373-0.544,0.427-1.062,0.168c-0.558-0.278-1.177-0.19-1.625,0.232c-0.403,0.379-0.539,0.984-0.336,1.494
		c0.215,0.541,0.775,0.942,1.337,0.878c0.256-0.029,0.522-0.169,0.736-0.324c0.367-0.265,0.718-0.304,0.983-0.037
		c0.288,0.29,0.268,0.661-0.079,1.005c-0.719,0.714-1.583,0.869-2.511,0.541c-1.009-0.356-1.664-1.061-1.848-2.147
		C15.537,11.035,15.54,10.901,15.537,10.851z"/>
	<path fill="#21376D" d="M40.274,32.62c-0.011,2.229-1.671,3.894-3.885,3.9c-2.225,0.006-3.919-1.691-3.916-3.924
		c0.003-2.132,1.794-3.875,3.961-3.856C38.549,28.758,40.284,30.512,40.274,32.62z M38.956,32.655
		c-0.008-1.484-1.114-2.591-2.586-2.587c-1.461,0.003-2.578,1.131-2.579,2.603c-0.001,1.39,1.192,2.567,2.596,2.563
		C37.798,35.23,38.963,34.06,38.956,32.655z"/>
</g>
</svg>
