<?xml version="1.0" encoding="utf-8"?>
<!-- Generator: Adobe Illustrator 17.0.0, SVG Export Plug-In . SVG Version: 6.00 Build 0)  -->
<!DOCTYPE svg PUBLIC "-//W3C//DTD SVG 1.1//EN" "http://www.w3.org/Graphics/SVG/1.1/DTD/svg11.dtd">
<svg version="1.1" id="Layer_1" xmlns="http://www.w3.org/2000/svg" xmlns:xlink="http://www.w3.org/1999/xlink" x="0px" y="0px"
	 width="48px" height="48px" viewBox="0 0 48 48" enable-background="new 0 0 48 48" xml:space="preserve">
<g>
	<path fill="#21376D" d="M45.032,15.307c-14.031,0-28.026,0-42.08,0c0,0.171,0,0.331,0,0.491c0,7.968,0,15.937,0,23.905
		c0,1.167,0.55,1.714,1.725,1.714c10.902,0,21.803,0,32.705,0.001c0.166,0,0.336-0.017,0.498,0.012
		c0.391,0.069,0.627,0.313,0.627,0.713c0,0.401-0.238,0.641-0.627,0.714c-0.132,0.025-0.271,0.011-0.407,0.011
		c-10.947,0-21.894,0.001-32.841,0c-1.929,0-3.13-1.21-3.13-3.151C1.5,29.24,1.5,18.762,1.501,8.284
		c0-1.963,1.199-3.156,3.169-3.156c12.882,0,25.765,0,38.647,0c1.998,0,3.183,1.187,3.183,3.189c0.001,10.448,0,20.896,0,31.344
		c0,2.025-1.184,3.208-3.209,3.209c-0.771,0-1.542,0.001-2.313,0c-0.66-0.001-0.998-0.242-1.005-0.715
		c-0.008-0.477,0.335-0.735,0.983-0.736c0.847-0.001,1.693,0.005,2.54-0.002c0.936-0.007,1.55-0.599,1.551-1.522
		c0.004-8.119,0.002-16.239,0.002-24.358C45.047,15.476,45.039,15.417,45.032,15.307z M2.956,13.837c0.153,0,0.257,0,0.36,0
		c6.697,0,13.394,0.002,20.09-0.01c0.201,0,0.441-0.1,0.597-0.232c1.468-1.237,2.927-2.485,4.374-3.746
		c0.306-0.267,0.621-0.374,1.024-0.374c5.034,0.01,10.068,0.006,15.102,0.006c0.174,0,0.349,0,0.546,0c0-0.426,0-0.787,0-1.149
		c-0.001-1.223-0.538-1.754-1.775-1.754c-12.849,0-25.699,0-38.548,0c-0.136,0-0.273-0.005-0.408,0.004
		C3.594,6.632,2.972,7.205,2.964,7.926C2.94,9.874,2.956,11.823,2.956,13.837z M34.909,13.807c1.94,0,3.848,0,5.75,0
		c0-0.972,0-1.914,0-2.851c-1.933,0-3.83,0-5.75,0C34.909,11.909,34.909,12.84,34.909,13.807z M33.415,10.934
		c-0.984,0-1.937,0.055-2.88-0.016c-0.847-0.064-1.488,0.184-2.092,0.774c-0.749,0.732-1.582,1.379-2.447,2.121
		c2.532,0,4.966,0,7.419,0C33.415,12.859,33.415,11.929,33.415,10.934z M42.177,10.954c0,0.978,0,1.919,0,2.847
		c0.974,0,1.915,0,2.847,0c0-0.967,0-1.897,0-2.847C44.07,10.954,43.14,10.954,42.177,10.954z"/>
	<path fill="#21376D" d="M10.241,19.644c3.159,0.004,5.772,2.62,5.774,5.781c0.003,3.225-2.604,5.838-5.816,5.829
		c-3.219-0.009-5.808-2.621-5.796-5.847C4.416,22.221,7.031,19.64,10.241,19.644z M14.563,25.451
		c0.009-2.372-1.937-4.34-4.306-4.356c-2.428-0.016-4.4,1.933-4.401,4.351c-0.002,2.38,1.937,4.343,4.305,4.357
		C12.584,29.819,14.554,27.871,14.563,25.451z"/>
	<path fill="#21376D" d="M37.788,31.254c-3.221-0.007-5.812-2.614-5.804-5.84c0.009-3.187,2.62-5.772,5.829-5.77
		c3.178,0.001,5.795,2.635,5.782,5.819C43.583,28.664,40.979,31.261,37.788,31.254z M33.436,25.458
		c0.002,2.378,1.948,4.337,4.316,4.347c2.423,0.01,4.388-1.942,4.392-4.364c0.004-2.389-1.967-4.352-4.362-4.345
		C35.379,21.103,33.434,23.056,33.436,25.458z"/>
	<path fill="#21376D" d="M18.194,25.427c0.008-3.049,2.439-5.622,5.456-5.776c3.169-0.162,5.843,2.148,6.139,5.303
		c0.283,3.017-1.892,5.763-4.924,6.232c-1.076,0.166-2.107,0.028-3.107-0.384c-0.569-0.234-0.78-0.606-0.601-1.031
		c0.186-0.44,0.569-0.545,1.152-0.315c2.573,1.015,5.352-0.418,5.934-3.06c0.421-1.912-0.487-3.87-2.22-4.783
		c-1.744-0.919-3.832-0.57-5.196,0.869c-1.332,1.406-1.559,3.522-0.559,5.202c0.054,0.091,0.115,0.178,0.165,0.271
		c0.208,0.391,0.125,0.781-0.208,0.999c-0.35,0.229-0.748,0.135-1.025-0.242C18.586,27.877,18.191,26.586,18.194,25.427z"/>
	<path fill="#21376D" d="M10.164,37.063c-1.633,0-3.266,0.002-4.899-0.001c-0.497-0.001-0.802-0.236-0.854-0.634
		c-0.06-0.453,0.281-0.809,0.809-0.813c1.058-0.008,2.117-0.003,3.175-0.003c2.238,0,4.475-0.001,6.713,0.001
		c0.537,0,0.845,0.222,0.9,0.634c0.062,0.466-0.293,0.814-0.854,0.815C13.49,37.066,11.827,37.063,10.164,37.063z"/>
	<path fill="#21376D" d="M23.99,37.063c-1.648,0-3.296,0.003-4.944-0.002c-0.543-0.002-0.883-0.325-0.848-0.779
		c0.033-0.419,0.345-0.668,0.866-0.669c1.482-0.004,2.963-0.001,4.445-0.001c1.814,0,3.629-0.004,5.443,0.002
		c0.673,0.002,1.093,0.587,0.734,1.063c-0.158,0.21-0.523,0.364-0.798,0.37C27.256,37.08,25.623,37.063,23.99,37.063z"/>
	<path fill="#21376D" d="M37.836,35.611c1.633,0,3.266-0.002,4.899,0.002c0.516,0.001,0.83,0.258,0.857,0.679
		c0.029,0.438-0.304,0.764-0.814,0.768c-1.043,0.008-2.086,0.003-3.13,0.003c-2.238,0-4.475,0.005-6.713-0.008
		c-0.229-0.001-0.539-0.036-0.665-0.182c-0.16-0.186-0.262-0.514-0.226-0.756c0.056-0.369,0.383-0.507,0.756-0.507
		c1.436,0.003,2.873,0.001,4.309,0.001C37.352,35.611,37.594,35.611,37.836,35.611z"/>
	<path fill="#21376D" d="M10.242,32.708c1.134,0,2.268-0.002,3.402,0.001c0.578,0.001,0.908,0.262,0.917,0.712
		c0.009,0.464-0.333,0.738-0.937,0.738c-2.283,0.002-4.566,0.002-6.849,0c-0.578-0.001-0.908-0.262-0.916-0.713
		C5.85,32.98,6.189,32.71,6.795,32.709C7.944,32.707,9.093,32.708,10.242,32.708z"/>
	<path fill="#21376D" d="M23.976,34.16c-1.134,0-2.268,0.002-3.402-0.001c-0.582-0.001-0.911-0.256-0.925-0.704
		c-0.014-0.466,0.328-0.746,0.927-0.746c2.283-0.002,4.566-0.002,6.849,0c0.582,0,0.912,0.255,0.926,0.703
		c0.015,0.464-0.331,0.746-0.928,0.747C26.274,34.161,25.125,34.16,23.976,34.16z"/>
	<path fill="#21376D" d="M37.79,32.708c1.149,0,2.298-0.002,3.447,0.001c0.572,0.002,0.904,0.272,0.904,0.725
		c0,0.452-0.333,0.724-0.905,0.725c-2.298,0.002-4.596,0.002-6.894,0c-0.572-0.001-0.904-0.273-0.903-0.726
		c0-0.453,0.331-0.723,0.904-0.724C35.492,32.706,36.641,32.708,37.79,32.708z"/>
	<path fill="#21376D" d="M23.255,25.897c0.708-0.709,1.366-1.368,2.023-2.027c0.117-0.117,0.229-0.24,0.353-0.35
		c0.352-0.312,0.756-0.316,1.05-0.016c0.293,0.299,0.283,0.697-0.036,1.051c-0.141,0.157-0.297,0.3-0.446,0.45
		c-0.768,0.768-1.532,1.54-2.304,2.303c-0.445,0.439-0.799,0.434-1.248-0.006c-0.42-0.412-0.837-0.827-1.247-1.249
		c-0.374-0.385-0.392-0.802-0.066-1.114c0.313-0.298,0.714-0.276,1.082,0.082C22.695,25.291,22.955,25.581,23.255,25.897z"/>
	<path fill="#21376D" d="M6.59,12.382c-1.204,0.004-2.19-0.985-2.183-2.188c0.007-1.185,0.977-2.152,2.166-2.161
		c1.181-0.009,2.172,0.964,2.183,2.143C8.767,11.384,7.792,12.378,6.59,12.382z M6.562,9.484c-0.389,0.01-0.708,0.341-0.704,0.73
		c0.004,0.391,0.329,0.714,0.718,0.716c0.407,0.002,0.744-0.347,0.727-0.753C7.287,9.789,6.951,9.474,6.562,9.484z"/>
	<path fill="#21376D" d="M20.369,10.196c0.001,1.208-0.983,2.192-2.187,2.186c-1.183-0.006-2.158-0.981-2.163-2.164
		c-0.005-1.204,0.978-2.186,2.187-2.185C19.386,8.034,20.368,9.016,20.369,10.196z M18.916,10.215
		c0.006-0.388-0.314-0.72-0.703-0.731c-0.388-0.011-0.725,0.304-0.742,0.692c-0.018,0.407,0.319,0.757,0.725,0.754
		C18.585,10.928,18.91,10.605,18.916,10.215z"/>
	<path fill="#21376D" d="M14.561,10.227c-0.009,1.151-0.941,2.113-2.088,2.154c-1.152,0.042-2.16-0.845-2.254-1.982
		c-0.041-0.493,0.2-0.847,0.617-0.908c0.415-0.061,0.742,0.22,0.825,0.708c0.082,0.485,0.36,0.752,0.762,0.732
		c0.358-0.018,0.657-0.309,0.686-0.666c0.033-0.403-0.239-0.702-0.709-0.782c-0.502-0.085-0.778-0.389-0.731-0.805
		c0.05-0.435,0.419-0.687,0.933-0.636C13.709,8.15,14.569,9.109,14.561,10.227z"/>
	<path fill="#21376D" d="M9.425,25.96c0.412-0.423,0.723-0.747,1.039-1.065c0.468-0.471,0.929-0.949,1.413-1.402
		c0.322-0.301,0.731-0.279,1.014,0.01c0.273,0.277,0.312,0.68,0.022,0.979c-0.966,0.995-1.948,1.976-2.942,2.944
		c-0.312,0.303-0.689,0.279-1.014-0.031c-0.481-0.457-0.951-0.927-1.407-1.408c-0.323-0.341-0.311-0.756-0.006-1.048
		c0.291-0.279,0.681-0.278,1.018,0.016c0.159,0.138,0.31,0.288,0.448,0.448C9.146,25.561,9.261,25.738,9.425,25.96z"/>
	<path fill="#21376D" d="M37.045,25.897c0.708-0.709,1.366-1.368,2.023-2.027c0.117-0.117,0.229-0.24,0.353-0.35
		c0.352-0.312,0.756-0.316,1.05-0.016c0.293,0.299,0.283,0.697-0.036,1.051c-0.141,0.157-0.297,0.3-0.446,0.45
		c-0.768,0.768-1.532,1.54-2.304,2.303c-0.445,0.439-0.799,0.434-1.248-0.006c-0.42-0.412-0.837-0.827-1.247-1.249
		c-0.374-0.385-0.392-0.802-0.066-1.114c0.313-0.298,0.714-0.276,1.082,0.082C36.486,25.291,36.745,25.581,37.045,25.897z"/>
</g>
</svg>
