<?xml version="1.0" encoding="utf-8"?>
<!-- Generator: Adobe Illustrator 17.0.0, SVG Export Plug-In . SVG Version: 6.00 Build 0)  -->
<!DOCTYPE svg PUBLIC "-//W3C//DTD SVG 1.1//EN" "http://www.w3.org/Graphics/SVG/1.1/DTD/svg11.dtd">
<svg version="1.1" id="Layer_1" xmlns="http://www.w3.org/2000/svg" xmlns:xlink="http://www.w3.org/1999/xlink" x="0px" y="0px"
	 width="65px" height="65px" viewBox="0 0 65 65" enable-background="new 0 0 65 65" xml:space="preserve">
<g>
	<path fill="#21386D" d="M0.533,9.52c0.069,0.067,0.139,0.133,0.206,0.201c1.341,1.371,2.77,2.637,4.352,3.726
		c2.081,1.432,4.348,2.47,6.757,3.209c1.857,0.57,3.752,0.969,5.669,1.271c2.097,0.331,4.204,0.568,6.321,0.712
		c1.826,0.124,3.653,0.241,5.482,0.319c6.053,0.258,12.111,0.26,18.168,0.28c1.812,0.006,3.625,0.054,5.436,0.12
		c1.738,0.064,3.473,0.194,5.198,0.43c1.263,0.173,2.521,0.383,3.728,0.81c0.402,0.142,0.795,0.317,1.175,0.51
		c0.249,0.127,0.482,0.296,0.696,0.477c0.691,0.587,0.917,1.33,0.698,2.211c-0.132,0.528-0.373,1.006-0.658,1.463
		c-0.503,0.808-1.113,1.532-1.758,2.227c-1.296,1.398-2.69,2.696-4.131,3.94c-3.026,2.614-6.071,5.205-9.103,7.813
		c-1.202,1.033-2.388,2.085-3.581,3.128c-0.073,0.064-0.148,0.126-0.259,0.163c0.046-0.083,0.088-0.169,0.138-0.249
		c0.752-1.221,1.632-2.347,2.565-3.433c1.206-1.403,2.505-2.72,3.78-4.059c0.942-0.989,1.87-1.992,2.787-3.005
		c0.526-0.581,1-1.206,1.415-1.873c0.349-0.559,0.649-1.139,0.766-1.797c0.13-0.732-0.051-1.372-0.569-1.909
		c-0.393-0.407-0.873-0.682-1.384-0.909c-0.879-0.391-1.805-0.625-2.744-0.808c-1.522-0.296-3.06-0.456-4.606-0.56
		c-3.22-0.217-6.443-0.235-9.668-0.179c-2.487,0.044-4.974,0.017-7.458-0.109c-1.764-0.089-3.527-0.216-5.285-0.38
		c-2.249-0.209-4.481-0.545-6.691-1.02c-2.614-0.562-5.167-1.315-7.59-2.466c-2.142-1.018-4.079-2.325-5.713-4.058
		c-1.075-1.14-1.96-2.417-2.756-3.76c-0.45-0.76-0.901-1.519-1.351-2.279C0.54,9.634,0.522,9.587,0.5,9.542
		C0.511,9.535,0.522,9.527,0.533,9.52z"/>
	<path fill="#21386D" d="M17.299,46.321c2.54-0.002,4.582,2.046,4.579,4.591c-0.003,2.518-2.059,4.57-4.578,4.568
		c-2.532-0.001-4.573-2.031-4.584-4.56C12.704,48.399,14.773,46.323,17.299,46.321z"/>
	<path fill="#21386D" d="M38.189,46.321c2.54,0,4.578,2.049,4.573,4.595c-0.005,2.519-2.06,4.567-4.581,4.564
		c-2.533-0.003-4.57-2.036-4.575-4.565C33.602,48.386,35.661,46.321,38.189,46.321z"/>
</g>
</svg>
