<?xml version="1.0" encoding="utf-8"?>
<!-- Generator: Adobe Illustrator 17.0.0, SVG Export Plug-In . SVG Version: 6.00 Build 0)  -->
<!DOCTYPE svg PUBLIC "-//W3C//DTD SVG 1.1//EN" "http://www.w3.org/Graphics/SVG/1.1/DTD/svg11.dtd">
<svg version="1.1" id="Layer_1" xmlns="http://www.w3.org/2000/svg" xmlns:xlink="http://www.w3.org/1999/xlink" x="0px" y="0px"
	 width="65px" height="65px" viewBox="0 0 65 65" enable-background="new 0 0 65 65" xml:space="preserve">
<g>
	<path fill="#21386D" d="M40.289,54.593c0.152-0.117,0.396-0.268,0.593-0.465c5.518-5.51,11.045-11.011,16.541-16.543
		c3.89-3.915,2.249-10.347-3.034-11.924c-2.231-0.666-4.324-0.265-6.212,1.095c-0.475,0.342-0.907,0.751-1.323,1.166
		c-6.272,6.263-12.54,12.531-18.801,18.805c-0.215,0.215-0.351,0.509-0.486,0.71c-1.167-1.17-2.17-2.175-3.226-3.234
		c0.131-0.138,0.333-0.362,0.546-0.574c6.426-6.427,12.831-12.874,19.287-19.27c3.403-3.371,7.527-4.289,12.004-2.777
		c4.44,1.499,7.051,4.789,7.698,9.426c0.506,3.632-0.527,6.928-3.127,9.565C55.075,46.325,49.335,52.01,43.622,57.72
		c-0.057,0.057-0.131,0.098-0.138,0.103C42.454,56.782,41.439,55.756,40.289,54.593z"/>
	<path fill="#21386D" d="M21.553,7.177c1.071,1.073,2.075,2.08,3.117,3.124c-0.167,0.177-0.368,0.402-0.582,0.616
		C18.555,16.451,13.016,21.98,7.489,27.522c-2.083,2.089-2.632,5.227-1.43,7.933c1.178,2.653,3.97,4.383,6.88,4.221
		c1.994-0.111,3.627-0.982,5.032-2.394c5.916-5.945,11.856-11.867,17.785-17.8c0.595-0.595,1.175-1.203,1.697-1.739
		c1.055,1.055,2.075,2.075,3.137,3.138c-0.075,0.08-0.254,0.285-0.446,0.477c-6.465,6.467-12.903,12.963-19.41,19.388
		c-3.381,3.339-7.497,4.227-11.936,2.703c-4.455-1.53-7.047-4.81-7.683-9.515c-0.507-3.749,0.676-6.994,3.303-9.653
		c5.578-5.649,11.216-11.238,16.831-16.85C21.346,7.334,21.46,7.254,21.553,7.177z"/>
	<path fill="#21386D" d="M14.236,34.169c-1.14-1.147-2.143-2.158-3.189-3.211c0.102-0.12,0.231-0.295,0.384-0.448
		c6.386-6.39,12.763-12.79,19.168-19.163c4.132-4.112,9.859-4.865,14.612-1.969c0.501,0.305,1.001,0.635,1.428,1.032
		c0.737,0.686,1.416,1.434,2.036,2.07c-0.993,0.998-2.007,2.017-3.137,3.153c-0.318-0.343-0.736-0.827-1.187-1.277
		c-3.043-3.034-7.377-3.05-10.419-0.016c-6.377,6.36-12.74,12.734-19.105,19.106C14.609,33.665,14.434,33.925,14.236,34.169z"/>
	<path fill="#21386D" d="M16.054,52.507c1.125-1.127,2.136-2.138,3.23-3.234c0.437,0.459,0.867,0.928,1.316,1.377
		c3.095,3.096,7.438,3.089,10.549-0.019c6.332-6.328,12.661-12.658,18.986-18.993c0.236-0.237,0.413-0.533,0.592-0.766
		c1.155,1.154,2.184,2.182,3.307,3.305c-0.191,0.149-0.434,0.301-0.632,0.499c-6.334,6.326-12.661,12.659-18.993,18.987
		c-5.001,4.998-12.081,5.001-17.078,0.019C16.935,53.285,16.507,52.922,16.054,52.507z"/>
</g>
</svg>
