<?xml version="1.0" encoding="utf-8"?>
<!-- Generator: Adobe Illustrator 17.0.0, SVG Export Plug-In . SVG Version: 6.00 Build 0)  -->
<!DOCTYPE svg PUBLIC "-//W3C//DTD SVG 1.1//EN" "http://www.w3.org/Graphics/SVG/1.1/DTD/svg11.dtd">
<svg version="1.1" id="Layer_1" xmlns="http://www.w3.org/2000/svg" xmlns:xlink="http://www.w3.org/1999/xlink" x="0px" y="0px"
	 width="48px" height="48px" viewBox="0 0 48 48" enable-background="new 0 0 48 48" xml:space="preserve">
<g>
	<path fill="#21376D" d="M24.001,34.622c-6.881,0-13.762,0-20.642,0c-0.861,0-0.918-0.056-0.918-0.913c0-6.465,0-12.93,0-19.395
		c0-0.855,0.067-0.922,0.914-0.922c13.762,0,27.523,0,41.285,0c0.849,0,0.918,0.069,0.918,0.918c0,6.465,0,12.93,0,19.395
		c0,0.861-0.057,0.917-0.915,0.917C37.763,34.622,30.882,34.622,24.001,34.622z M31.028,24.15c0.007-2.251-0.536-4.403-1.525-6.094
		c-0.72-1.231-1.639-2.279-2.91-2.97c-2.373-1.291-5.122-0.689-7.062,1.533c-3.306,3.786-3.406,10.651-0.199,14.521
		c1.25,1.509,2.789,2.484,4.829,2.434c1.741-0.043,3.121-0.855,4.243-2.12C30.278,29.339,30.973,26.792,31.028,24.15z
		 M17.498,30.328c-2.073-4.247-2.06-8.444-0.009-12.63c-3.608,0-7.186,0-10.761,0c0,4.229,0,8.417,0,12.63
		C10.324,30.328,13.889,30.328,17.498,30.328z M41.259,30.338c0-4.251,0-8.451,0-12.648c-3.603,0-7.161,0-10.782,0
		c1.078,2.008,1.574,4.108,1.572,6.328c-0.002,2.219-0.507,4.316-1.578,6.32C34.103,30.338,37.665,30.338,41.259,30.338z
		 M20.334,33.564c-0.594-0.585-1.214-1.132-1.752-1.75c-0.281-0.322-0.545-0.436-0.961-0.434c-3.692,0.016-7.384,0.01-11.076,0.009
		c-0.771,0-0.864-0.093-0.864-0.868c-0.001-4.333-0.001-8.666,0-13c0-0.809,0.085-0.893,0.893-0.893
		c3.727,0,7.453,0.001,11.18-0.004c0.18,0,0.422,0.002,0.53-0.104c0.695-0.68,1.36-1.39,2.026-2.081c-5.573,0-11.183,0-16.821,0
		c0,6.387,0,12.751,0,19.125C9.135,33.564,14.741,33.564,20.334,33.564z M44.53,14.463c-5.663,0-11.276,0-16.84,0
		c0.598,0.594,1.223,1.166,1.785,1.795c0.246,0.276,0.472,0.379,0.831,0.378c3.726-0.013,7.452-0.008,11.178-0.007
		c0.729,0,0.834,0.108,0.835,0.848c0.001,4.35,0.001,8.7,0,13.05c0,0.782-0.081,0.863-0.863,0.863
		c-3.743,0.001-7.487-0.001-11.23,0.005c-0.177,0-0.412,0.012-0.521,0.119c-0.684,0.671-1.339,1.372-1.981,2.039
		c5.553,0,11.168,0,16.807,0C44.53,27.176,44.53,20.839,44.53,14.463z"/>
	<path fill="#21376D" d="M16.031,42.289c0.959,0.707,1.918,1.412,2.877,2.12c0.557,0.411,0.588,0.592,0.187,1.143
		c-0.397,0.547-0.801,1.088-1.197,1.635c-0.265,0.366-0.558,0.41-0.927,0.137c-3.441-2.541-6.888-5.073-10.32-7.626
		c-0.172-0.128-0.355-0.487-0.29-0.625c0.088-0.189,0.409-0.382,0.63-0.382c11.348-0.018,22.696-0.015,34.045-0.019
		c0.485,0,0.69,0.221,0.681,0.699c-0.013,0.71-0.011,1.421-0.001,2.131c0.007,0.463-0.217,0.665-0.665,0.66
		c-0.416-0.004-0.832,0-1.247,0c-7.71,0-15.42,0-23.13,0c-0.203,0-0.406,0-0.61,0C16.052,42.204,16.042,42.247,16.031,42.289z
		 M40.639,39.74c-10.713,0-21.412,0-32.235,0c3.008,2.218,5.926,4.371,8.873,6.544c0.285-0.388,0.548-0.746,0.838-1.141
		c-0.408-0.305-0.792-0.596-1.179-0.882c-0.962-0.71-1.935-1.406-2.878-2.14c-0.154-0.12-0.284-0.437-0.233-0.604
		c0.049-0.162,0.334-0.282,0.539-0.357c0.153-0.056,0.343-0.013,0.516-0.013c8.355,0,16.709,0,25.064,0c0.221,0,0.442,0,0.696,0
		C40.639,40.651,40.639,40.211,40.639,39.74z"/>
	<path fill="#21376D" d="M31.981,5.717c-0.974-0.718-1.949-1.435-2.922-2.154c-0.505-0.374-0.535-0.557-0.168-1.066
		c0.375-0.52,0.755-1.036,1.136-1.552c0.401-0.544,0.558-0.573,1.096-0.177c3.251,2.392,6.501,4.788,9.75,7.183
		c0.209,0.154,0.451,0.282,0.613,0.476c0.116,0.138,0.208,0.393,0.158,0.546c-0.05,0.152-0.278,0.273-0.453,0.346
		c-0.134,0.056-0.307,0.017-0.463,0.017c-11.163,0-22.325,0-33.488,0c-0.87,0-0.94-0.071-0.941-0.953
		c0-0.624,0.01-1.248-0.003-1.872c-0.01-0.466,0.213-0.666,0.661-0.662c0.347,0.003,0.693,0,1.04,0c7.765,0,15.53,0,23.296,0
		c0.219,0,0.438,0,0.657,0C31.96,5.805,31.97,5.761,31.981,5.717z M7.351,8.252c10.754,0,21.443,0,32.227,0
		c-2.996-2.209-5.908-4.357-8.853-6.528c-0.288,0.398-0.555,0.768-0.838,1.161c0.836,0.617,1.629,1.202,2.422,1.788
		c0.544,0.401,1.106,0.781,1.618,1.219c0.16,0.137,0.282,0.458,0.235,0.65c-0.035,0.146-0.356,0.246-0.566,0.318
		c-0.14,0.048-0.309,0.01-0.465,0.01c-8.373,0-16.745,0-25.118,0c-0.216,0-0.432,0-0.663,0C7.351,7.385,7.351,7.812,7.351,8.252z"/>
	<path fill="#21376D" d="M23.49,28.68c0-1.059,0-2.109,0-3.159c0-0.156-0.019-0.315,0.004-0.467c0.06-0.406-0.085-0.59-0.501-0.718
		c-1.312-0.403-2.167-1.618-2.173-2.981c-0.006-1.37,0.874-2.623,2.202-3.015c0.416-0.123,0.514-0.312,0.472-0.688
		c-0.023-0.205-0.015-0.417,0.002-0.623c0.026-0.316,0.197-0.576,0.521-0.499c0.193,0.046,0.497,0.345,0.471,0.475
		c-0.184,0.934,0.307,1.269,1.079,1.623c1.006,0.461,1.504,1.392,1.583,2.514c0.024,0.34-0.028,0.65-0.443,0.688
		c-0.407,0.037-0.513-0.234-0.56-0.588c-0.144-1.07-0.658-1.69-1.59-1.921c-0.013,0.097-0.037,0.19-0.038,0.282
		c-0.003,1.179,0.002,2.357-0.005,3.536c-0.001,0.246,0.028,0.387,0.325,0.476c1.452,0.436,2.354,1.647,2.34,3.072
		c-0.014,1.416-0.896,2.585-2.332,3.026c-0.284,0.087-0.347,0.217-0.334,0.474c0.014,0.276,0.064,0.577-0.022,0.825
		c-0.068,0.197-0.319,0.458-0.487,0.457c-0.171-0.001-0.507-0.32-0.483-0.446c0.178-0.954-0.326-1.295-1.115-1.657
		c-1.006-0.461-1.492-1.404-1.559-2.527c-0.019-0.323,0.045-0.611,0.426-0.654c0.4-0.045,0.529,0.204,0.578,0.567
		C22.003,27.862,22.554,28.518,23.49,28.68z M23.466,19.33c-0.959,0.196-1.627,1.072-1.604,2.052
		c0.023,0.978,0.698,1.819,1.604,1.973C23.466,22.023,23.466,20.695,23.466,19.33z M24.562,24.645c0,1.365,0,2.7,0,4.045
		c0.962-0.259,1.584-1.08,1.578-2.037C26.134,25.691,25.499,24.874,24.562,24.645z"/>
</g>
</svg>
