<?xml version="1.0" encoding="utf-8"?>
<!-- Generator: Adobe Illustrator 17.0.0, SVG Export Plug-In . SVG Version: 6.00 Build 0)  -->
<!DOCTYPE svg PUBLIC "-//W3C//DTD SVG 1.1//EN" "http://www.w3.org/Graphics/SVG/1.1/DTD/svg11.dtd">
<svg version="1.1" id="Layer_1" xmlns="http://www.w3.org/2000/svg" xmlns:xlink="http://www.w3.org/1999/xlink" x="0px" y="0px"
	 width="48px" height="48px" viewBox="0 0 48 48" enable-background="new 0 0 48 48" xml:space="preserve">
<g>
	<path fill="#21376D" d="M32.93,11.161c0.158,0,0.278,0,0.399,0c2.055,0,4.111-0.016,6.166,0.005
		c1.729,0.018,2.994,0.809,3.745,2.381c0.245,0.512,0.327,1.063,0.327,1.626c0.001,9.844,0,19.687,0.003,29.531
		c0,0.33-0.101,0.601-0.337,0.833c-0.538,0.529-1.065,1.068-1.602,1.597c-0.5,0.492-0.956,0.486-1.452-0.01
		c-0.862-0.862-1.724-1.723-2.584-2.587c-0.079-0.08-0.14-0.178-0.225-0.288c-0.129,0.122-0.211,0.197-0.29,0.276
		c-0.877,0.876-1.753,1.753-2.63,2.629c-0.445,0.445-0.938,0.449-1.387,0.01c-0.959-0.939-1.917-1.879-2.903-2.845
		c-0.045,0.042-0.127,0.113-0.204,0.189c-0.87,0.868-1.738,1.738-2.608,2.607c-0.486,0.485-0.971,0.489-1.455,0.007
		c-0.864-0.86-1.724-1.724-2.586-2.585c-0.079-0.079-0.162-0.155-0.337-0.321c-0.064,0.113-0.102,0.23-0.18,0.309
		c-0.85,0.859-1.706,1.713-2.561,2.566c-0.528,0.527-0.989,0.523-1.522-0.01c-0.489-0.489-0.969-0.989-1.471-1.465
		c-0.308-0.292-0.432-0.623-0.432-1.045c0.006-9.782,0.004-19.563,0.005-29.345c0-0.935-0.406-1.642-1.236-2.057
		c-0.782-0.392-1.568-0.324-2.282,0.193c-0.651,0.471-0.924,1.134-0.922,1.931c0.005,3.037,0.002,6.074,0.002,9.11
		c0,1.973,0,3.946,0,5.919c0,1.545,0,1.545-0.64,2.945c0.283,0,0.543,0,0.802,0c0.31,0,0.62-0.01,0.929,0.004
		c0.487,0.022,0.857,0.422,0.847,0.895c-0.01,0.46-0.38,0.855-0.85,0.857c-1.777,0.007-3.554,0.042-5.329-0.012
		c-2.064-0.063-3.703-1.828-3.704-3.909C4.427,21.237,4.428,11.373,4.429,1.508c0-0.7,0.327-1.007,1.07-1.007
		c8.325,0,16.651,0,24.976,0c0.475,0,0.95-0.002,1.425,0c0.688,0.003,1.03,0.343,1.03,1.027c0.001,3.078,0,6.156,0.001,9.234
		C32.93,10.883,32.93,11.005,32.93,11.161z M17.976,12.94c0.011,0.066,0.007,0.101,0.022,0.124c0.456,0.746,0.607,1.561,0.602,2.427
		c-0.013,2.128-0.004,4.256-0.004,6.384c0,7.427-0.001,14.854,0.002,22.281c0,0.117,0.005,0.267,0.072,0.347
		c0.243,0.29,0.514,0.556,0.822,0.882c0.112-0.146,0.172-0.245,0.252-0.325c0.86-0.864,1.72-1.726,2.585-2.585
		c0.481-0.478,0.954-0.478,1.432-0.002c0.871,0.867,1.741,1.736,2.606,2.61c0.078,0.079,0.113,0.199,0.168,0.3
		c0.052-0.011,0.104-0.022,0.155-0.033c0.064-0.095,0.116-0.203,0.195-0.282c0.853-0.854,1.711-1.705,2.568-2.555
		c0.514-0.509,0.985-0.508,1.501,0.009c0.598,0.599,1.191,1.204,1.788,1.804c0.326,0.328,0.656,0.652,0.997,0.989
		c0.078-0.069,0.149-0.126,0.213-0.19c0.862-0.861,1.724-1.723,2.585-2.586c0.552-0.554,1.01-0.553,1.568,0.006
		c0.854,0.855,1.709,1.709,2.564,2.563c0.07,0.07,0.147,0.132,0.261,0.234c0.213-0.232,0.395-0.459,0.609-0.651
		c0.187-0.167,0.243-0.349,0.242-0.594c-0.006-9.607-0.005-19.213-0.005-28.82c0-1.402-0.927-2.334-2.324-2.334
		c-7.045-0.001-14.09-0.001-21.135-0.001C18.207,12.94,18.097,12.94,17.976,12.94z M31.162,2.26c-0.182,0-0.345,0-0.508,0
		c-8.014,0-16.028,0-24.043,0c-0.435,0-0.436,0-0.436,0.432c0,6.579,0,13.157,0,19.736c0,2.809,0.003,5.618-0.002,8.427
		c-0.001,0.704,0.178,1.334,0.713,1.813C7.6,33.307,8.424,33.471,9.3,33.073c0.869-0.395,1.312-1.105,1.313-2.068
		c0.002-5.257-0.001-10.513,0.005-15.77c0-0.307,0.027-0.622,0.093-0.921c0.426-1.911,2.011-3.151,4.017-3.152
		c5.35-0.002,10.699-0.001,16.049-0.001c0.129,0,0.258,0,0.385,0C31.162,8.171,31.162,5.232,31.162,2.26z"/>
	<path fill="#21376D" d="M30.28,26.762c2.695,0,5.389-0.002,8.084,0.001c0.726,0.001,1.177,0.702,0.814,1.304
		c-0.119,0.198-0.373,0.329-0.589,0.447c-0.115,0.063-0.282,0.043-0.425,0.043c-5.265,0.002-10.531,0.003-15.796-0.003
		c-0.212,0-0.44-0.026-0.631-0.108c-0.385-0.167-0.566-0.607-0.463-1.012c0.103-0.404,0.449-0.671,0.891-0.671
		C24.87,26.761,27.575,26.762,30.28,26.762z"/>
	<path fill="#21376D" d="M30.287,19.656c-2.695,0-5.389,0.001-8.084-0.001c-0.465,0-0.794-0.235-0.916-0.639
		c-0.111-0.368,0.011-0.781,0.341-0.979c0.177-0.106,0.404-0.178,0.609-0.179c5.348-0.009,10.696-0.008,16.044-0.006
		c0.608,0,1.035,0.393,1.022,0.924c-0.012,0.53-0.416,0.879-1.026,0.879C35.615,19.657,32.951,19.656,30.287,19.656z"/>
	<path fill="#21376D" d="M28.019,24.297c-1.951,0-3.902,0.002-5.853-0.001c-0.457-0.001-0.807-0.281-0.899-0.701
		c-0.086-0.392,0.1-0.831,0.468-0.984c0.202-0.084,0.439-0.116,0.661-0.117c2.911-0.007,5.822-0.005,8.732-0.005
		c0.898,0,1.796,0,2.694,0c0.348,0,0.658,0.095,0.864,0.395c0.202,0.296,0.228,0.613,0.054,0.935
		c-0.18,0.332-0.464,0.479-0.837,0.479C31.941,24.297,29.98,24.297,28.019,24.297z"/>
	<path fill="#21376D" d="M32.762,31.6c1.848,0,3.695-0.003,5.543,0.001c0.727,0.002,1.192,0.628,0.926,1.242
		c-0.177,0.408-0.51,0.567-0.943,0.566c-2.364-0.003-4.727-0.001-7.091-0.001c-1.321,0-2.642,0-3.963,0
		c-0.382,0-0.684-0.149-0.862-0.496c-0.16-0.31-0.136-0.621,0.056-0.91c0.201-0.302,0.502-0.404,0.854-0.404
		C29.109,31.602,30.936,31.6,32.762,31.6z"/>
	<path fill="#21376D" d="M30.564,37.646c-1.125,0-2.249,0-3.374-0.001c-0.389,0-0.679-0.176-0.839-0.527
		c-0.148-0.326-0.104-0.646,0.12-0.93c0.21-0.266,0.501-0.336,0.826-0.335c1.403,0.004,2.806,0.001,4.209,0.001
		c0.763,0,1.527-0.001,2.29,0c0.63,0.001,1.039,0.35,1.045,0.889c0.006,0.535-0.409,0.901-1.03,0.902
		C32.731,37.648,31.647,37.646,30.564,37.646z"/>
	<path fill="#21376D" d="M22.929,35.87c0.268,0,0.536-0.007,0.803,0.002c0.445,0.015,0.781,0.322,0.837,0.755
		c0.061,0.475-0.18,0.937-0.634,0.98c-0.67,0.065-1.355,0.063-2.026,0.003c-0.449-0.041-0.708-0.511-0.653-0.974
		c0.052-0.43,0.417-0.755,0.87-0.765C22.394,35.865,22.662,35.87,22.929,35.87z"/>
	<path fill="#21376D" d="M22.909,31.601c0.257,0,0.515-0.007,0.772,0.002c0.524,0.018,0.908,0.404,0.908,0.9
		c0,0.502-0.376,0.889-0.903,0.902c-0.514,0.013-1.03,0.014-1.544,0c-0.521-0.014-0.893-0.409-0.888-0.913
		c0.005-0.5,0.387-0.875,0.914-0.89C22.414,31.595,22.661,31.601,22.909,31.601z"/>
</g>
</svg>
