<?xml version="1.0" encoding="utf-8"?>
<!-- Generator: Adobe Illustrator 17.0.0, SVG Export Plug-In . SVG Version: 6.00 Build 0)  -->
<!DOCTYPE svg PUBLIC "-//W3C//DTD SVG 1.1//EN" "http://www.w3.org/Graphics/SVG/1.1/DTD/svg11.dtd">
<svg version="1.1" id="Layer_1" xmlns="http://www.w3.org/2000/svg" xmlns:xlink="http://www.w3.org/1999/xlink" x="0px" y="0px"
	 width="48px" height="48px" viewBox="0 0 48 48" enable-background="new 0 0 48 48" xml:space="preserve">
<g>
	<path fill="#21376D" d="M0.5,32.542c0.228-0.882,0.379-1.794,0.701-2.64c0.757-1.993,2.097-3.533,3.917-4.647
		c0.208-0.127,0.339-0.244,0.338-0.527c-0.012-3.121-0.008-6.241-0.009-9.362c0-0.089-0.014-0.179-0.026-0.333
		c-0.478,0-0.947-0.01-1.416,0.003C3.56,15.047,3.182,14.94,2.971,14.51c-0.205-0.42-0.093-0.79,0.183-1.147
		c2.029-2.626,4.05-5.258,6.078-7.884c0.541-0.701,1.2-0.699,1.743,0.004c2.019,2.614,4.031,5.234,6.051,7.848
		c0.284,0.368,0.422,0.747,0.202,1.186c-0.213,0.426-0.592,0.532-1.038,0.518c-0.47-0.014-0.941-0.003-1.463-0.003
		c0,1.006,0.001,1.965-0.001,2.924c0,0.183,0.019,0.372-0.016,0.549c-0.075,0.378-0.319,0.591-0.713,0.571
		c-0.372-0.019-0.627-0.242-0.633-0.603c-0.022-1.315-0.025-2.631,0.002-3.946c0.01-0.499,0.411-0.826,0.965-0.861
		c0.361-0.023,0.725-0.004,1.205-0.004c-1.842-2.393-3.617-4.699-5.433-7.059c-1.804,2.342-3.58,4.647-5.433,7.053
		c0.368,0,0.646-0.002,0.924,0c0.874,0.009,1.229,0.359,1.23,1.225c0.002,2.983,0.001,5.966,0.001,8.949c0,0.167,0,0.334,0,0.578
		c2.174-0.73,4.315-0.758,6.526,0c0-0.682,0-1.313,0-1.944c0-0.245-0.004-0.49,0.001-0.734c0.011-0.499,0.274-0.794,0.696-0.788
		c0.416,0.006,0.674,0.304,0.678,0.809c0.006,0.857,0.036,1.715-0.011,2.569c-0.029,0.52,0.095,0.858,0.593,1.079
		c0.364,0.162,0.633,0.559,1.19,0.368c0-0.141,0-0.317,0-0.493c0-2.539,0-5.079,0-7.618c0-1.168,0.375-1.548,1.524-1.548
		c2.799,0,5.599,0,8.398,0c1.08,0,1.451,0.375,1.452,1.469c0.001,2.555,0,5.109,0,7.664c0,0.167,0,0.334,0,0.543
		c0.352,0,0.679,0,1.084,0c0-0.156,0-0.331,0-0.506c0-2.585-0.001-5.171,0-7.756c0-1.004,0.412-1.414,1.42-1.414
		c2.845-0.001,5.691-0.001,8.536,0c1.006,0,1.419,0.413,1.422,1.416c0.002,0.765,0.005,1.53-0.001,2.295
		c-0.005,0.528-0.277,0.835-0.712,0.823c-0.419-0.012-0.659-0.302-0.662-0.819c-0.005-0.761-0.001-1.523-0.001-2.311
		c-0.645,0-1.25,0-1.926,0c0,0.627,0,1.263,0,1.898c0,0.214,0.007,0.429-0.002,0.642c-0.026,0.616-0.401,1-1.016,1.008
		c-0.902,0.013-1.805,0.011-2.708,0.001c-0.671-0.007-1.039-0.386-1.045-1.067c-0.007-0.822-0.002-1.643-0.002-2.487
		c-0.652,0-1.258,0-1.895,0c0,2.751,0,5.497,0,8.28c2.84,0,5.689,0,8.593,0c0-0.846-0.007-1.682,0.002-2.518
		c0.006-0.546,0.375-0.864,0.849-0.742c0.387,0.099,0.524,0.387,0.525,0.761c0.001,0.688,0,1.377,0,2.065c0,0.149,0,0.299,0,0.468
		c1.388,0.123,2.645,0.517,3.764,1.285c1.862,1.278,2.979,3.031,3.321,5.27c0.014,0.088,0.053,0.173,0.08,0.259
		c0,0.551,0,1.102,0,1.652c-0.025,0.054-0.062,0.106-0.072,0.163c-0.676,4.039-3.724,6.63-7.808,6.63
		c-7.706,0.001-15.412,0.002-23.118-0.006c-0.383,0-0.693,0.085-1.014,0.305c-5.404,3.695-12.872,0.961-14.627-5.351
		c-0.15-0.541-0.243-1.099-0.362-1.649C0.5,33.766,0.5,33.154,0.5,32.542z M17.473,27.201c0.319,0.687,0.718,0.984,1.489,0.98
		c6.807-0.038,13.615-0.023,20.422-0.02c0.321,0,0.643,0.013,0.962,0.042c2.6,0.238,4.655,2.352,4.781,4.914
		c0.133,2.696-1.642,5.069-4.268,5.476c-1.256,0.195-2.56,0.096-3.843,0.102c-0.326,0.001-0.519-0.245-0.556-0.572
		c-0.039-0.344,0.102-0.606,0.437-0.716c0.17-0.056,0.36-0.063,0.542-0.065c0.887-0.009,1.775,0.018,2.661-0.017
		c2.354-0.094,4.091-2.377,3.581-4.678c-0.425-1.917-1.98-3.108-4.092-3.109c-6.731-0.004-13.462-0.002-20.193,0
		c-0.146,0-0.291,0.017-0.498,0.03c1.065,2.596,1.068,5.155-0.007,7.772c0.25,0,0.428,0,0.605,0c4.666,0,9.331-0.001,13.997,0.002
		c0.197,0,0.402-0.001,0.591,0.047c0.362,0.091,0.531,0.352,0.497,0.719c-0.032,0.347-0.236,0.557-0.587,0.598
		c-0.166,0.019-0.336,0.011-0.504,0.011c-4.849,0-9.699,0.029-14.548-0.027c-0.832-0.01-1.136,0.412-1.508,1.014
		c1.296,0,2.533,0,3.77,0c6.241,0,12.483,0.016,18.724-0.006c3.998-0.014,6.935-3.777,6.026-7.661
		c-0.67-2.862-3.141-4.827-6.127-4.83c-7.312-0.009-14.624-0.003-21.937-0.003C17.769,27.201,17.648,27.201,17.473,27.201z
		 M10.098,41.668c4.549-0.002,8.226-3.684,8.22-8.23c-0.005-4.543-3.704-8.235-8.237-8.222c-4.513,0.013-8.199,3.705-8.204,8.216
		C1.872,37.973,5.562,41.67,10.098,41.668z M19.799,17.507c-0.661,0-1.265,0-1.886,0c0,2.777,0,5.531,0,8.286
		c2.873,0,5.708,0,8.558,0c0-2.775,0-5.518,0-8.273c-0.639,0-1.253,0-1.9,0c0,0.812,0.003,1.589-0.001,2.367
		c-0.004,0.838-0.338,1.175-1.162,1.177c-0.81,0.003-1.62,0.003-2.43,0c-0.809-0.003-1.173-0.362-1.179-1.173
		C19.794,19.112,19.799,18.333,19.799,17.507z M21.209,17.509c0,0.732,0,1.439,0,2.154c0.668,0,1.303,0,1.953,0
		c0-0.732,0-1.438,0-2.154C22.495,17.509,21.861,17.509,21.209,17.509z M35.625,19.677c0-0.749,0-1.455,0-2.159
		c-0.676,0-1.321,0-1.951,0c0,0.74,0,1.447,0,2.159C34.335,19.677,34.958,19.677,35.625,19.677z"/>
	<path fill="#21376D" d="M23.661,30.976c1.377-0.006,2.481,1.08,2.495,2.454c0.014,1.36-1.097,2.49-2.458,2.501
		c-1.362,0.011-2.481-1.095-2.493-2.464C21.193,32.096,22.292,30.981,23.661,30.976z M24.773,33.461
		c0.008-0.615-0.476-1.107-1.091-1.108c-0.597-0.001-1.077,0.463-1.094,1.059c-0.018,0.613,0.46,1.124,1.067,1.14
		C24.255,34.567,24.764,34.071,24.773,33.461z"/>
	<path fill="#21376D" d="M39.645,30.976c1.377,0,2.472,1.095,2.473,2.472c0.001,1.369-1.107,2.483-2.471,2.484
		c-1.356,0.001-2.481-1.125-2.481-2.482C37.165,32.084,38.277,30.975,39.645,30.976z M40.736,33.434
		c-0.006-0.618-0.495-1.092-1.116-1.08c-0.592,0.011-1.069,0.493-1.073,1.084c-0.004,0.605,0.499,1.115,1.1,1.114
		C40.253,34.551,40.742,34.049,40.736,33.434z"/>
	<path fill="#21376D" d="M31.671,30.975c1.374,0.003,2.47,1.106,2.465,2.481c-0.005,1.368-1.119,2.479-2.482,2.474
		c-1.358-0.005-2.476-1.132-2.47-2.491C29.191,32.07,30.299,30.972,31.671,30.975z M30.568,33.466
		c0.011,0.61,0.523,1.104,1.124,1.085c0.608-0.019,1.082-0.53,1.062-1.144c-0.02-0.598-0.498-1.057-1.098-1.054
		C31.043,32.357,30.557,32.854,30.568,33.466z"/>
	<path fill="#21376D" d="M10.787,28.813c0,0.845-0.02,1.655,0.018,2.463c0.007,0.147,0.226,0.316,0.383,0.418
		c0.766,0.497,1.139,1.403,0.907,2.266c-0.236,0.881-0.962,1.488-1.84,1.538c-0.95,0.054-1.762-0.464-2.086-1.332
		c-0.351-0.94,0.013-2.002,0.904-2.488c0.279-0.152,0.349-0.315,0.341-0.602c-0.019-0.718-0.01-1.437-0.013-2.156
		c0-0.029-0.017-0.058-0.026-0.087c-1.837,0.115-3.637,1.894-3.925,3.85c-0.175,1.186,0.05,2.276,0.673,3.293
		c0.296,0.483,0.243,0.898-0.132,1.117c-0.362,0.212-0.731,0.075-1.027-0.382c-2.299-3.547-0.247-8.384,3.913-9.225
		c0.164-0.033,0.327-0.066,0.486-0.098c0.136-0.903,0.312-1.172,0.753-1.161c0.434,0.011,0.594,0.268,0.694,1.018
		c0.853,0.348,1.704,0.583,2.441,1.014c2.91,1.702,3.81,5.541,2.023,8.398c-0.032,0.052-0.062,0.105-0.098,0.155
		c-0.27,0.379-0.652,0.482-0.988,0.267c-0.331-0.212-0.416-0.619-0.167-1.009c0.55-0.864,0.828-1.797,0.791-2.822
		C14.733,31.025,12.991,29.084,10.787,28.813z M10.783,33.442c-0.003-0.367-0.298-0.669-0.663-0.679
		c-0.376-0.011-0.707,0.313-0.705,0.688c0.002,0.38,0.325,0.683,0.714,0.67C10.501,34.108,10.785,33.812,10.783,33.442z"/>
	<path fill="#21376D" d="M10.119,36.281c0.489,0,0.979-0.029,1.465,0.006c0.973,0.069,1.693,0.85,1.715,1.816
		c0.022,0.98-0.688,1.832-1.68,1.888c-1.004,0.057-2.016,0.058-3.02,0.001c-1.003-0.056-1.699-0.883-1.688-1.877
		c0.01-0.983,0.743-1.769,1.744-1.833c0.487-0.031,0.977-0.005,1.466-0.005C10.119,36.278,10.119,36.28,10.119,36.281z
		 M10.133,37.646c0,0,0-0.001,0-0.001c-0.428,0-0.857-0.005-1.285,0.002c-0.31,0.005-0.544,0.128-0.555,0.476
		c-0.011,0.373,0.23,0.519,0.559,0.523c0.841,0.009,1.683,0.009,2.524-0.002c0.313-0.004,0.536-0.16,0.534-0.502
		c-0.002-0.341-0.22-0.488-0.538-0.494C10.959,37.641,10.546,37.646,10.133,37.646z"/>
</g>
</svg>
