<?xml version="1.0" encoding="utf-8"?>
<!-- Generator: Adobe Illustrator 17.0.0, SVG Export Plug-In . SVG Version: 6.00 Build 0)  -->
<!DOCTYPE svg PUBLIC "-//W3C//DTD SVG 1.1//EN" "http://www.w3.org/Graphics/SVG/1.1/DTD/svg11.dtd">
<svg version="1.1" id="Layer_1" xmlns="http://www.w3.org/2000/svg" xmlns:xlink="http://www.w3.org/1999/xlink" x="0px" y="0px"
	 width="48px" height="48px" viewBox="0 0 48 48" enable-background="new 0 0 48 48" xml:space="preserve">
<g>
	<path fill="#21376D" d="M31.436,0.5c0.612,0,1.224,0,1.836,0c0.069,0.026,0.137,0.067,0.208,0.077
		c6.374,0.916,9.852,7.616,6.921,13.347c-0.117,0.229-0.126,0.393,0.006,0.621c1.339,2.319,2.175,4.807,2.426,7.476
		c0.087,0.923,0.097,1.852,0.143,2.785c0.111,0.028,0.229,0.058,0.347,0.086c1.99,0.485,3.298,1.709,3.945,3.644
		c0.096,0.287,0.155,0.585,0.232,0.878c0,0.428,0,0.857,0,1.285c-0.045,0.176-0.094,0.352-0.134,0.529
		c-0.196,0.884-0.634,1.643-1.175,2.358c-1.327,1.752-2.642,3.513-3.997,5.317c-0.955-1.271-1.886-2.51-2.838-3.776
		c-0.1,0.116-0.165,0.196-0.235,0.272c-0.825,0.9-1.636,1.815-2.486,2.69c-0.228,0.235-0.297,0.421-0.194,0.716
		c0.47,1.338,0.485,2.726,0.437,4.12c-0.032,0.929-0.642,1.526-1.583,1.542c-0.55,0.009-1.102-0.018-1.65,0.015
		c-0.157,0.009-0.336,0.141-0.451,0.266c-0.523,0.569-0.982,1.206-1.549,1.724c-0.668,0.609-1.555,0.806-2.413,1.027
		c-0.459,0-0.918,0-1.377,0c-0.039-0.023-0.075-0.059-0.116-0.066c-1.721-0.3-2.996-1.22-3.867-2.731
		c-0.073-0.126-0.311-0.222-0.473-0.223c-2.629-0.014-5.259-0.005-7.888-0.017c-0.288-0.001-0.421,0.103-0.558,0.344
		c-0.695,1.222-1.725,2.041-3.067,2.464c-0.273,0.086-0.552,0.153-0.829,0.229c-0.459,0-0.918,0-1.377,0
		c-0.025-0.017-0.048-0.045-0.075-0.05c-1.752-0.3-3.06-1.224-3.943-2.77c-0.066-0.116-0.29-0.197-0.442-0.2
		c-0.932-0.018-1.865-0.04-2.796,0c-0.94,0.04-1.598-0.298-1.925-1.202c0-0.734,0-1.469,0-2.203
		c0.219-0.484,0.494-0.959,1.047-1.063c0.428-0.08,0.477-0.28,0.477-0.646c-0.01-4.755-0.007-9.51-0.006-14.265
		c0-1.327,0.53-1.85,1.868-1.851c0.392,0,0.783,0,1.186,0c0.165-3.384,1.11-6.461,2.861-9.285c-0.16-0.227-0.313-0.436-0.458-0.651
		c-0.571-0.844-0.875-1.781-0.905-2.796C6.505,8.34,7.772,6.357,9.762,5.486c1.967-0.861,4.249-0.442,5.812,1.091
		c0.231,0.227,0.395,0.275,0.702,0.137c2.474-1.109,5.07-1.663,7.783-1.64c0.299,0.003,0.458-0.092,0.618-0.343
		c1.077-1.688,2.543-2.926,4.427-3.615C29.856,0.841,30.657,0.701,31.436,0.5z M24.75,27.78c0.231,0,0.398,0,0.564,0
		c2.126,0,4.252-0.003,6.378,0.001c1.338,0.003,2.158,0.643,2.48,1.928c0.286,1.14,0.565,2.283,0.85,3.423
		c0.292,1.166,0.587,2.332,0.921,3.659c0.74-0.874,1.38-1.662,2.059-2.416c0.352-0.392,0.311-0.663-0.001-1.083
		c-1.854-2.497-1.347-5.834,1.168-7.553c0.654-0.447,1.442-0.698,2.252-1.077c0.127-3.113-0.575-6.147-2.131-9.039
		c-2.33,2.964-4.631,5.891-6.958,8.85c-2.511-3.21-5.022-6.333-7.432-9.531c-1.453-1.928-1.882-4.182-1.56-6.567
		c0.081-0.596,0.241-1.182,0.371-1.803c-2.453,0.053-4.769,0.56-6.967,1.586c0.011,0.082,0.008,0.13,0.024,0.171
		c0.771,1.988,0.429,3.797-0.847,5.474c-1.25,1.642-2.479,3.301-3.718,4.952c-0.099,0.131-0.205,0.257-0.342,0.427
		c-0.99-1.318-1.955-2.602-2.946-3.921c-1.425,2.51-2.197,5.125-2.313,7.987c0.233,0,0.413,0,0.593,0
		c5.277,0,10.554-0.001,15.83,0.001c1.152,0,1.72,0.568,1.724,1.714C24.753,25.878,24.75,26.794,24.75,27.78z M3.557,39.911
		c0.541,0,1.057-0.015,1.573,0.006c0.307,0.012,0.479-0.081,0.645-0.365c2.058-3.541,7.092-3.545,9.155-0.01
		c0.158,0.271,0.321,0.379,0.639,0.377c2.401-0.014,4.802-0.007,7.203-0.009c0.147,0,0.293-0.018,0.438-0.028
		c0-5.063,0-10.083,0-15.1c-2.021,0-4.003,0-6.04,0c0,1.914,0,3.797,0,5.743c-1.189-0.593-2.312-1.142-3.421-1.716
		c-0.262-0.136-0.466-0.133-0.722,0.003c-0.661,0.351-1.335,0.676-2.005,1.01c-0.459,0.229-0.918,0.454-1.449,0.717
		c0-1.977,0-3.864,0-5.764c-2.027,0-4.009,0-6.016,0C3.557,29.821,3.557,34.843,3.557,39.911z M32.35,22.046
		c0.07-0.115,0.097-0.171,0.135-0.218c1.963-2.502,3.948-4.986,5.884-7.509c1.433-1.867,1.845-4.011,1.378-6.293
		c-0.615-3.007-3.054-5.358-5.986-5.874c-3.122-0.55-6.129,0.747-7.812,3.369c-1.638,2.553-1.645,6.06,0.144,8.476
		C28.093,16.699,30.215,19.311,32.35,22.046z M24.785,29.313c0,3.059,0,6.059,0,9.062c0.454-0.305,0.86-0.635,1.314-0.872
		c2.549-1.33,5.581-0.435,7.047,2.051c0.079,0.133,0.203,0.33,0.317,0.337c0.543,0.036,1.089,0.016,1.654,0.016
		c-0.019-0.152-0.022-0.244-0.044-0.331c-0.319-1.274-0.653-2.545-0.952-3.823c-0.071-0.304-0.194-0.386-0.49-0.383
		c-1.422,0.014-2.845,0.015-4.268,0.003c-0.905-0.008-1.535-0.615-1.576-1.512c-0.023-0.504-0.021-1.01-0.001-1.514
		c0.036-0.883,0.635-1.48,1.518-1.526c0.305-0.016,0.612-0.004,0.918-0.004c0.868,0,1.735,0,2.64,0
		c-0.062-0.282-0.104-0.506-0.16-0.726c-0.155-0.613-0.363-0.774-0.998-0.777c-0.612-0.003-1.224-0.001-1.836-0.001
		C28.188,29.313,26.507,29.313,24.785,29.313z M11.887,16.715c1.164-1.62,2.393-3.112,3.37-4.754
		c0.925-1.555,0.323-3.568-1.137-4.652c-1.44-1.07-3.429-0.977-4.772,0.225c-1.338,1.197-1.719,3.215-0.737,4.709
		C9.605,13.755,10.747,15.17,11.887,16.715z M42.17,36.445c1.162-1.583,2.33-3.005,3.302-4.551c0.846-1.346,0.703-2.8-0.256-4.086
		c-0.959-1.285-2.285-1.764-3.85-1.429c-2.632,0.562-3.83,3.647-2.269,5.854c0.944,1.335,1.955,2.624,2.933,3.935
		C42.077,36.229,42.101,36.305,42.17,36.445z M28.555,45.976c2.092-0.004,3.798-1.716,3.787-3.801
		c-0.011-2.086-1.725-3.774-3.823-3.765c-2.065,0.009-3.763,1.712-3.766,3.778C24.751,44.271,26.465,45.98,28.555,45.976z
		 M10.299,45.975c2.087,0.038,3.805-1.631,3.848-3.738c0.042-2.029-1.643-3.786-3.668-3.826c-2.134-0.043-3.883,1.617-3.915,3.715
		C6.532,44.22,8.197,45.937,10.299,45.975z M11.147,28.059c0.579-0.287,1.119-0.506,1.606-0.811
		c0.461-0.289,0.842-0.262,1.294,0.011c0.497,0.3,1.038,0.527,1.578,0.795c0-1.136,0-2.198,0-3.275c-1.504,0-2.977,0-4.478,0
		C11.147,25.866,11.147,26.929,11.147,28.059z M15.652,42.918c2.561,0,5.074,0,7.603,0c0-0.498,0-0.964,0-1.454
		c-2.542,0-5.067,0-7.603,0C15.652,41.957,15.652,42.423,15.652,42.918z M29.346,32.365c0,0.517,0,0.983,0,1.44
		c1.44,0,2.847,0,4.285,0c-0.132-0.513-0.252-0.98-0.37-1.44C31.932,32.365,30.652,32.365,29.346,32.365z M5.059,42.925
		c0-0.502,0-0.979,0-1.45c-1.023,0-2.019,0-3.005,0c0,0.503,0,0.968,0,1.45C3.074,42.925,4.059,42.925,5.059,42.925z M33.833,42.911
		c0.527,0,1.018,0,1.515,0c0-0.504,0-0.969,0-1.441c-0.522,0-1.016,0-1.515,0C33.833,41.957,33.833,42.412,33.833,42.911z"/>
	<path fill="#21376D" d="M20.198,20.256c0,0.482,0,0.934,0,1.424c-0.489,0-0.966,0-1.478,0c0-0.457,0-0.921,0-1.424
		C19.193,20.256,19.671,20.256,20.198,20.256z"/>
	<path fill="#21376D" d="M26.264,20.253c0,0.492,0,0.944,0,1.431c-0.495,0-0.973,0-1.482,0c0-0.467,0-0.931,0-1.431
		C25.265,20.253,25.742,20.253,26.264,20.253z"/>
	<path fill="#21376D" d="M21.737,21.681c0-0.482,0-0.934,0-1.425c0.489,0,0.967,0,1.479,0c0,0.458,0,0.922,0,1.425
		C22.741,21.681,22.264,21.681,21.737,21.681z"/>
	<path fill="#21376D" d="M32.318,15.653c-3.354-0.006-6.048-2.726-6.035-6.09c0.013-3.351,2.736-6.043,6.1-6.031
		c3.312,0.012,6.027,2.749,6.023,6.073C38.402,12.951,35.675,15.66,32.318,15.653z M32.359,5.058
		c-2.508-0.014-4.565,2.023-4.573,4.53c-0.008,2.493,2.056,4.56,4.554,4.56c2.487,0,4.516-2.021,4.536-4.518
		C36.897,7.109,34.884,5.072,32.359,5.058z"/>
	<path fill="#21376D" d="M11.884,8.091c1.257,0.006,2.276,1.031,2.265,2.277c-0.012,1.251-1.037,2.259-2.291,2.254
		c-1.251-0.005-2.269-1.031-2.262-2.28C9.602,9.093,10.627,8.085,11.884,8.091z M12.62,10.37c0.008-0.418-0.329-0.769-0.744-0.772
		c-0.419-0.003-0.752,0.335-0.75,0.762c0.002,0.406,0.315,0.733,0.717,0.749C12.256,11.125,12.612,10.787,12.62,10.37z"/>
	<path fill="#21376D" d="M44.467,30.063c0.001,1.244-1.03,2.278-2.273,2.279c-1.242,0.001-2.274-1.032-2.275-2.277
		c-0.002-1.243,1.03-2.277,2.274-2.279C43.434,27.784,44.467,28.819,44.467,30.063z M42.938,30.062
		c-0.001-0.427-0.332-0.752-0.76-0.744c-0.424,0.008-0.75,0.348-0.736,0.771c0.013,0.405,0.331,0.714,0.74,0.72
		C42.611,30.814,42.939,30.49,42.938,30.062z"/>
	<path fill="#21376D" d="M30.811,42.189c0.001,1.259-1.008,2.276-2.259,2.278c-1.252,0.002-2.266-1.013-2.268-2.27
		c-0.002-1.26,1.008-2.277,2.26-2.279C29.798,39.916,30.81,40.93,30.811,42.189z M28.525,42.938c0.419,0.011,0.768-0.31,0.782-0.722
		c0.014-0.401-0.329-0.762-0.736-0.774c-0.409-0.013-0.766,0.32-0.781,0.728C27.776,42.579,28.108,42.927,28.525,42.938z"/>
	<path fill="#21376D" d="M12.622,42.203c-0.004,1.254-1.023,2.268-2.276,2.264c-1.25-0.004-2.258-1.025-2.255-2.283
		c0.004-1.258,1.021-2.272,2.273-2.266C11.615,39.924,12.626,40.946,12.622,42.203z M10.368,41.441
		c-0.414-0.007-0.769,0.337-0.77,0.748c-0.002,0.416,0.342,0.754,0.765,0.75c0.404-0.003,0.732-0.321,0.746-0.721
		C11.123,41.806,10.782,41.448,10.368,41.441z"/>
</g>
</svg>
