<?xml version="1.0" encoding="utf-8"?>
<!-- Generator: Adobe Illustrator 17.0.0, SVG Export Plug-In . SVG Version: 6.00 Build 0)  -->
<!DOCTYPE svg PUBLIC "-//W3C//DTD SVG 1.1//EN" "http://www.w3.org/Graphics/SVG/1.1/DTD/svg11.dtd">
<svg version="1.1" id="Layer_1" xmlns="http://www.w3.org/2000/svg" xmlns:xlink="http://www.w3.org/1999/xlink" x="0px" y="0px"
	 width="48px" height="48px" viewBox="0 0 48 48" enable-background="new 0 0 48 48" xml:space="preserve">
<g>
	<path fill="#21376D" d="M47.5,28.402c-0.243,0.702-0.545,1.399-1.24,1.739c-0.492,0.24-1.065,0.439-1.603,0.441
		c-8.119,0.027-16.239,0.022-24.359,0.016c-1.705-0.001-2.821-1.102-2.839-2.805c-0.019-1.819-0.018-3.639,0-5.459
		c0.017-1.704,1.12-2.815,2.828-2.817c8.12-0.01,16.239-0.008,24.359-0.001c1.408,0.001,2.317,0.691,2.766,2.032
		c0.018,0.054,0.058,0.102,0.088,0.152C47.5,23.934,47.5,26.168,47.5,28.402z M32.444,29.223c4.039,0,8.077,0.001,12.116-0.001
		c1.074,0,1.562-0.493,1.563-1.574c0.001-1.729,0.001-3.457,0-5.186c-0.001-1.074-0.494-1.572-1.57-1.572
		c-8.046-0.002-16.093-0.001-24.139,0c-1.108,0-1.579,0.479-1.58,1.602c-0.002,1.698-0.002,3.396,0,5.094
		c0.001,1.181,0.455,1.636,1.634,1.636C24.459,29.224,28.452,29.223,32.444,29.223z"/>
	<path fill="#21376D" d="M47.5,15.275c-0.201,0.632-0.462,1.22-1.002,1.653c-0.569,0.456-1.223,0.601-1.927,0.601
		c-8.06,0.001-16.121,0.004-24.181-0.002c-1.856-0.001-2.927-1.088-2.933-2.942c-0.006-1.728-0.006-3.457,0-5.185
		c0.006-1.875,1.087-2.941,2.975-2.942c3.365-0.001,6.73-0.001,10.095,0c0.138,0,0.278-0.01,0.412,0.013
		c0.358,0.062,0.581,0.268,0.597,0.644c0.015,0.377-0.192,0.605-0.545,0.688c-0.161,0.038-0.334,0.03-0.501,0.03
		c-3.365,0.002-6.73,0-10.095,0.002c-1.092,0-1.559,0.466-1.561,1.563c-0.003,1.744-0.004,3.487,0.001,5.231
		c0.003,1.034,0.479,1.521,1.515,1.521c8.076,0.004,16.152,0.003,24.227,0c1.058,0,1.545-0.495,1.546-1.544
		c0.002-1.759,0.003-3.518,0-5.277c-0.002-0.993-0.502-1.494-1.496-1.494c-3.35-0.002-6.699-0.001-10.049-0.001
		c-0.122,0-0.245,0.004-0.367-0.001c-0.501-0.02-0.811-0.284-0.811-0.691c-0.001-0.409,0.307-0.68,0.811-0.682
		c1.392-0.006,2.784-0.002,4.176-0.002c1.912,0,3.824,0,5.736,0c2.028,0,2.611,0.381,3.38,2.208
		C47.5,10.869,47.5,13.072,47.5,15.275z"/>
	<path fill="#21376D" d="M47.5,41.437c-0.163,0.359-0.278,0.752-0.498,1.072c-0.563,0.818-1.378,1.156-2.366,1.151
		c-2.295-0.012-4.59-0.004-6.884-0.004c-1.025,0-2.05,0-3.075,0c-0.943,0-1.27-0.173-1.275-0.674
		c-0.005-0.512,0.351-0.703,1.308-0.703c3.075,0,6.15,0,9.225,0c0.291,0,0.582,0.006,0.872-0.003
		c0.768-0.025,1.305-0.538,1.311-1.303c0.014-1.897,0.013-3.794,0-5.691c-0.005-0.746-0.525-1.256-1.268-1.301
		c-0.107-0.006-0.214-0.006-0.321-0.006c-8.032,0-16.064,0-24.096,0c-0.122,0-0.245,0-0.367,0.008
		c-0.708,0.05-1.213,0.526-1.221,1.239c-0.02,1.927-0.021,3.855-0.002,5.783c0.008,0.811,0.547,1.271,1.423,1.272
		c3.396,0.004,6.793,0.001,10.189,0.005c0.212,0,0.434,0.007,0.633,0.069c0.334,0.103,0.536,0.385,0.423,0.705
		c-0.081,0.23-0.341,0.41-0.55,0.577c-0.077,0.061-0.237,0.024-0.359,0.024c-3.427,0.001-6.854,0.004-10.281-0.001
		c-1.442-0.002-2.469-0.755-2.786-2.045c-0.068-0.278-0.076-0.576-0.077-0.864c-0.007-1.744-0.009-3.488-0.002-5.232
		c0.007-1.831,1.081-2.912,2.909-2.913c8.062-0.005,16.125-0.003,24.187-0.001c1.564,0.001,2.265,0.539,2.947,2.229
		C47.5,37.031,47.5,39.234,47.5,41.437z"/>
	<path fill="#21376D" d="M0.5,21.701c0.209-0.401,0.369-0.838,0.637-1.195c0.544-0.725,1.335-0.988,2.217-0.991
		c1.789-0.006,3.579-0.037,5.367,0.017c0.617,0.019,1.228,0.259,1.932,0.419c0.415-0.484,0.912-1.083,1.43-1.664
		c1.273-1.428,3.421-1.065,4.043,0.68c0.283,0.795,0.171,1.555-0.36,2.202c-0.98,1.193-1.946,2.405-3.013,3.517
		c-0.851,0.888-1.27,1.802-1.206,3.075c0.087,1.742-1.124,2.833-2.882,2.838C6.936,30.604,5.208,30.602,3.48,30.6
		c-1.544-0.002-2.412-0.628-2.906-2.087c-0.014-0.041-0.049-0.074-0.075-0.111C0.5,26.168,0.5,23.934,0.5,21.701z M10.169,27.771
		C9.975,27.97,9.841,28.114,9.7,28.25c-1.077,1.042-2.547,1.006-3.501-0.145c-0.828-0.999-1.625-2.029-2.364-3.095
		c-0.714-1.032-0.414-2.39,0.601-3.129c1.004-0.731,2.373-0.55,3.165,0.418c0.161,0.197,0.324,0.393,0.513,0.622
		c0.523-0.611,1.012-1.185,1.565-1.831c-0.265-0.061-0.434-0.131-0.605-0.134c-1.971-0.026-3.942-0.063-5.912-0.051
		c-0.773,0.005-1.276,0.567-1.281,1.337c-0.011,1.88-0.011,3.761,0.001,5.641c0.005,0.766,0.531,1.324,1.287,1.331
		c1.911,0.019,3.822,0.02,5.732,0C9.686,29.206,10.161,28.659,10.169,27.771z M8.009,27.726c0.314-0.22,0.654-0.371,0.876-0.627
		c1.875-2.16,3.729-4.338,5.586-6.513c0.118-0.139,0.235-0.286,0.315-0.448c0.188-0.378,0.083-0.865-0.241-1.123
		c-0.343-0.273-0.727-0.329-1.105-0.088c-0.177,0.112-0.326,0.276-0.465,0.437c-1.406,1.635-2.806,3.276-4.21,4.913
		c-0.494,0.576-0.908,0.563-1.38-0.037c-0.265-0.337-0.515-0.685-0.789-1.014c-0.398-0.476-0.934-0.551-1.374-0.21
		c-0.447,0.346-0.526,0.875-0.151,1.38c0.712,0.957,1.439,1.903,2.187,2.831C7.416,27.424,7.694,27.523,8.009,27.726z"/>
	<path fill="#21376D" d="M0.5,8.666c0.081-0.211,0.147-0.431,0.247-0.633c0.492-0.988,1.288-1.551,2.396-1.565
		C5.085,6.443,7.027,6.433,8.967,6.48c0.526,0.013,1.046,0.256,1.67,0.42c0.423-0.493,0.926-1.102,1.452-1.69
		c0.857-0.956,2.113-1.153,3.099-0.504c1.225,0.807,1.438,2.369,0.459,3.551c-0.858,1.035-1.706,2.084-2.63,3.059
		c-0.951,1.004-1.585,2.01-1.489,3.525c0.099,1.563-0.995,2.599-2.552,2.654c-1.969,0.07-3.943,0.05-5.913-0.001
		c-1.272-0.033-2.079-0.766-2.467-1.968c-0.028-0.086-0.063-0.169-0.095-0.253C0.5,13.072,0.5,10.869,0.5,8.666z M9.702,7.997
		C9.301,7.934,9.01,7.85,8.718,7.848c-1.85-0.014-3.7-0.018-5.55-0.007c-0.717,0.005-1.273,0.527-1.28,1.235
		c-0.021,1.941-0.018,3.883-0.002,5.825c0.005,0.623,0.458,1.189,1.053,1.2c2.062,0.039,4.125,0.016,6.188,0.014
		c0.06,0,0.121-0.017,0.179-0.036c0.584-0.188,0.947-0.778,0.801-1.324c-0.087,0.097-0.166,0.188-0.248,0.277
		c-1.122,1.225-2.73,1.188-3.764-0.107c-0.725-0.907-1.436-1.827-2.124-2.762c-0.831-1.129-0.633-2.52,0.441-3.334
		c1.016-0.77,2.45-0.548,3.302,0.513c0.128,0.159,0.254,0.32,0.403,0.507C8.65,9.225,9.134,8.66,9.702,7.997z M5.779,9.603
		c-0.318,0.255-0.632,0.42-0.818,0.678c-0.248,0.344-0.138,0.733,0.114,1.063c0.686,0.899,1.372,1.799,2.066,2.692
		c0.526,0.677,1.163,0.687,1.726,0.031c1.871-2.182,3.74-4.366,5.607-6.552c0.118-0.138,0.233-0.287,0.312-0.449
		c0.187-0.385,0.076-0.854-0.243-1.123c-0.325-0.274-0.788-0.305-1.147-0.051c-0.159,0.113-0.299,0.261-0.427,0.41
		c-1.405,1.635-2.804,3.275-4.211,4.909c-0.504,0.585-0.897,0.569-1.381-0.041c-0.256-0.323-0.481-0.677-0.766-0.971
		C6.402,9.982,6.117,9.839,5.779,9.603z"/>
	<path fill="#21376D" d="M0.5,34.001c0.387-1.073,1.166-1.442,2.279-1.419c2.231,0.047,4.463,0.012,6.695,0.015
		c1.424,0.002,2.103,0.683,2.105,2.11c0.003,2.278,0.002,4.555,0,6.833c-0.001,1.431-0.68,2.114-2.098,2.115
		c-2.232,0.002-4.464-0.034-6.695,0.015c-1.112,0.024-1.892-0.339-2.287-1.407C0.5,39.509,0.5,36.755,0.5,34.001z M6.052,42.278
		c1.178,0,2.355-0.01,3.533,0.005c0.427,0.005,0.62-0.165,0.619-0.592c-0.004-2.371-0.004-4.741,0.001-7.112
		c0.001-0.419-0.171-0.61-0.605-0.609c-2.371,0.009-4.741,0.002-7.112,0.006c-0.508,0.001-0.609,0.111-0.61,0.634
		c-0.003,2.34-0.002,4.68,0,7.02c0.001,0.544,0.1,0.645,0.641,0.646C3.697,42.281,4.874,42.278,6.052,42.278z"/>
	<path fill="#21376D" d="M32.437,11.31c3.317,0,6.634,0,9.95,0.001c0.183,0,0.411-0.053,0.539,0.034
		c0.215,0.147,0.447,0.36,0.526,0.594c0.101,0.3-0.095,0.569-0.408,0.671c-0.184,0.06-0.39,0.073-0.586,0.073
		c-6.664,0.004-13.328,0.004-19.993,0c-0.196,0-0.446,0.019-0.574-0.088c-0.189-0.158-0.42-0.435-0.397-0.634
		c0.026-0.225,0.286-0.459,0.499-0.613c0.124-0.09,0.355-0.038,0.538-0.038C25.834,11.309,29.136,11.31,32.437,11.31z"/>
	<path fill="#21376D" d="M32.438,38.811c-3.301,0-6.603,0-9.904,0c-0.742,0-1.084-0.224-1.074-0.696
		c0.01-0.47,0.348-0.681,1.098-0.681c6.618,0,13.236,0,19.854,0c0.747,0,1.07,0.216,1.063,0.705
		c-0.007,0.473-0.311,0.672-1.041,0.672C39.102,38.811,35.77,38.811,32.438,38.811z"/>
	<path fill="#21376D" d="M32.431,25.744c-3.302,0-6.604,0-9.905,0c-0.153,0-0.308,0.009-0.458-0.013
		c-0.367-0.054-0.584-0.287-0.599-0.646c-0.015-0.361,0.189-0.607,0.548-0.689c0.147-0.033,0.304-0.027,0.456-0.027
		c6.665-0.001,13.33-0.001,19.994,0c0.137,0,0.278-0.01,0.411,0.016c0.374,0.074,0.608,0.293,0.595,0.693
		c-0.013,0.396-0.25,0.609-0.632,0.657c-0.151,0.019-0.305,0.009-0.458,0.009C39.065,25.745,35.748,25.744,32.431,25.744z"/>
</g>
</svg>
