<?xml version="1.0" encoding="utf-8"?>
<!-- Generator: Adobe Illustrator 17.0.0, SVG Export Plug-In . SVG Version: 6.00 Build 0)  -->
<!DOCTYPE svg PUBLIC "-//W3C//DTD SVG 1.1//EN" "http://www.w3.org/Graphics/SVG/1.1/DTD/svg11.dtd">
<svg version="1.1" id="Layer_1" xmlns="http://www.w3.org/2000/svg" xmlns:xlink="http://www.w3.org/1999/xlink" x="0px" y="0px"
	 width="48px" height="48px" viewBox="0 0 48 48" enable-background="new 0 0 48 48" xml:space="preserve">
<g>
	<path fill="#21376D" d="M13.713,27.928c0,1.094,0,2.117,0,3.141c0,1.943,0.001,3.886-0.001,5.828
		c-0.001,0.721-0.247,0.969-0.961,0.969c-3.518,0.001-7.037,0.001-10.555,0c-0.721,0-0.964-0.243-0.964-0.962
		c-0.001-3.794-0.002-7.587,0-11.381c0.001-2.105,1.034-3.572,3.012-4.286c0.055-0.02,0.105-0.055,0.191-0.101
		c-1.194-1.143-1.802-2.513-1.7-4.152c0.084-1.337,0.619-2.481,1.597-3.403c1.94-1.83,4.885-1.901,6.888-0.155
		c1.142,0.996,1.733,2.266,1.771,3.787c0.038,1.506-0.556,2.756-1.617,3.852c0.132,0.044,0.213,0.077,0.297,0.097
		c0.979,0.234,1.878,0.643,2.675,1.26c0.769,0.595,1.63,0.865,2.602,0.852c2.478-0.033,4.956-0.047,7.433-0.064
		c0.213-0.001,0.43,0.005,0.637,0.048c1.033,0.216,1.516,1.325,0.939,2.207c-0.368,0.562-0.756,1.125-1.224,1.599
		c-0.264,0.267-0.72,0.516-1.072,0.494c-1.436-0.091-2.807,0.31-4.21,0.444c-0.882,0.084-1.761,0.284-2.641,0.288
		c-0.817,0.004-1.636-0.183-2.454-0.284C14.161,27.979,13.966,27.958,13.713,27.928z M2.701,36.363c3.212,0,6.367,0,9.544,0
		c0-0.202,0-0.369,0-0.536c0-2.784,0-5.567,0-8.351c0-1,0.218-1.198,1.192-1.085c0.121,0.014,0.242,0.04,0.363,0.05
		c1.212,0.103,2.395,0.495,3.635,0.32c0.951-0.134,1.908-0.234,2.855-0.349c0-0.579,0-1.12,0-1.676c-1.198,0-2.36,0.002-3.522,0
		c-1.151-0.002-2.194-0.338-3.128-1.016c-0.272-0.197-0.548-0.393-0.84-0.556c-1.052-0.588-2.179-0.808-3.395-0.686
		c0.101,0.94,0.194,1.836,0.293,2.731C9.797,26.106,9.92,27,9.994,27.898c0.026,0.307-0.004,0.645-0.111,0.932
		c-0.405,1.087-0.858,2.156-1.28,3.237c-0.145,0.371-0.343,0.661-0.78,0.653c-0.413-0.008-0.602-0.288-0.741-0.642
		c-0.429-1.095-0.885-2.179-1.301-3.278c-0.098-0.259-0.131-0.567-0.105-0.844c0.119-1.232,0.273-2.461,0.41-3.691
		c0.065-0.583,0.121-1.168,0.181-1.751c-2.2-0.222-3.568,1.001-3.568,3.134c0,2.524,0,5.047,0,7.571
		C2.701,34.256,2.701,35.295,2.701,36.363z M4.308,18.039c0.221,1.692,1.911,3.008,3.736,2.933c1.65-0.068,3.271-1.473,3.35-2.93
		c-1.315,0.037-2.49-0.366-3.533-1.188C6.81,17.683,5.616,18.042,4.308,18.039z M11.414,16.559
		c-0.277-1.758-2.006-3.047-3.834-2.917c-1.623,0.115-3.203,1.527-3.24,2.917c1.083,0.06,2.006-0.299,2.791-1.033
		c0.619-0.578,0.845-0.575,1.461,0.003C9.377,16.263,10.305,16.611,11.414,16.559z M7.907,22.48
		c-0.048,0.002-0.097,0.003-0.145,0.005c-0.189,1.699-0.339,3.403-0.581,5.094c-0.129,0.9,0.383,1.545,0.654,2.428
		C8.049,29.485,8.24,29.103,8.36,28.7c0.092-0.309,0.156-0.65,0.129-0.968c-0.107-1.233-0.252-2.463-0.388-3.693
		C8.043,23.518,7.972,23,7.907,22.48z M21.814,26.117c0.432,0,0.813,0.003,1.194-0.001c0.212-0.003,0.516,0.068,0.621-0.043
		c0.384-0.407,0.701-0.877,1.054-1.336c-1.019,0-1.942,0-2.869,0C21.814,25.221,21.814,25.644,21.814,26.117z"/>
	<path fill="#21376D" d="M36.574,21.026c-2.499-2.691-1.629-5.946,0.106-7.5c2.035-1.823,5.01-1.812,6.996,0.041
		c1.78,1.661,2.489,4.907,0.013,7.499c0.128,0.04,0.238,0.077,0.35,0.11c1.575,0.467,2.696,1.97,2.711,3.806
		c0.032,4.022,0.015,8.045,0.011,12.068c0,0.52-0.279,0.811-0.787,0.813c-2.126,0.008-4.252,0.003-6.378,0.001
		c-0.043,0-0.086-0.018-0.151-0.033c0-0.456,0-0.909,0-1.413c1.926,0,3.858,0,5.85,0c0-0.211,0-0.373,0-0.535
		c0-3.503,0.01-7.005-0.011-10.508c-0.003-0.493-0.09-1.012-0.261-1.473c-0.334-0.897-1.015-1.391-2-1.404
		c-0.411-0.005-0.822-0.001-1.278-0.001c0,0.108-0.01,0.208,0.001,0.306c0.196,1.747,0.401,3.492,0.585,5.24
		c0.024,0.233-0.012,0.494-0.096,0.713c-0.428,1.111-0.886,2.211-1.321,3.319c-0.139,0.354-0.328,0.634-0.741,0.643
		c-0.437,0.009-0.636-0.28-0.78-0.652c-0.422-1.081-0.875-2.15-1.28-3.237c-0.107-0.286-0.144-0.626-0.113-0.931
		c0.181-1.793,0.391-3.584,0.605-5.495c-0.729,0.054-1.439,0.018-2.102,0.176c-0.917,0.218-1.485,1.115-1.486,2.133
		c-0.004,2.707-0.002,5.415-0.002,8.122c0,0.183,0,0.367,0,0.588c-0.476,0-0.94,0-1.469,0c0-0.148,0-0.309,0-0.471
		c0-2.631,0-5.262,0-7.892C33.545,22.852,34.427,21.668,36.574,21.026z M40.156,16.85c-1.052,0.844-2.246,1.221-3.568,1.198
		c0.351,1.812,2.037,3.066,3.867,2.919c1.619-0.13,3.166-1.522,3.229-2.926C42.385,18.076,41.223,17.687,40.156,16.85z
		 M43.713,16.56c-0.306-1.759-1.96-3.016-3.783-2.921c-1.632,0.085-3.203,1.46-3.31,2.918c1.084,0.065,2.009-0.29,2.796-1.024
		c0.605-0.565,0.876-0.567,1.47-0.008C41.669,16.264,42.598,16.609,43.713,16.56z M40.148,29.997c0.18-0.435,0.302-0.758,0.447-1.07
		c0.203-0.438,0.279-0.872,0.214-1.368c-0.199-1.513-0.346-3.033-0.517-4.55c-0.02-0.178-0.059-0.354-0.089-0.531
		c-0.116,0.084-0.14,0.154-0.148,0.225c-0.183,1.623-0.368,3.246-0.543,4.87c-0.029,0.267-0.07,0.558,0.004,0.805
		C39.671,28.887,39.899,29.372,40.148,29.997z"/>
	<path fill="#21376D" d="M29.976,43.76c-1.31,0-2.576,0-3.872,0c0.259,1.118-0.031,2.031-1.019,2.619
		c-0.778,0.463-1.585,0.409-2.338-0.097c-0.783-0.526-1.049-1.311-0.86-2.541c-0.258,0-0.509,0.007-0.759-0.002
		c-0.515-0.018-0.793-0.287-0.799-0.802c-0.011-0.918-0.009-1.836-0.001-2.754c0.005-0.572,0.275-0.838,0.847-0.847
		c0.459-0.007,0.918-0.002,1.377-0.002c0.458,0,0.916,0,1.446,0c0-0.238,0-0.46,0-0.682c0-0.949-0.004-1.897,0.002-2.846
		c0.004-0.605,0.267-0.867,0.864-0.877c0.413-0.007,0.826-0.008,1.239-0.013c0.013,0,0.026-0.012,0.099-0.046
		c0-0.315,0-0.662,0-1.008c0-0.826-0.005-1.652,0.002-2.478c0.005-0.578,0.27-0.856,0.834-0.859
		c1.407-0.007,2.815-0.008,4.223,0.001c0.537,0.003,0.809,0.286,0.814,0.833c0.008,1.025,0.003,2.05,0.003,3.075
		c0,0.149,0,0.298,0,0.495c0.479,0,0.919-0.006,1.358,0.002c0.569,0.01,0.839,0.278,0.843,0.852
		c0.007,1.161,0.002,2.323,0.002,3.518c0.302,0,0.583,0,0.902,0c0.401-1.599,0.807-3.209,1.208-4.821
		c0.236-0.947,0.324-1.02,1.308-1.02c0.55,0,1.1,0,1.687,0c0,0.479,0,0.943,0,1.456c-0.518,0-1.046,0-1.588,0
		c-0.474,1.891-0.938,3.741-1.401,5.591c-0.2,0.8-0.396,1.601-0.599,2.401c-0.18,0.709-0.346,0.832-1.087,0.834
		c-0.166,0-0.333,0-0.528,0c0.26,1.138-0.029,2.049-1.018,2.639c-0.761,0.453-1.565,0.423-2.298-0.078
		C29.981,45.7,29.718,44.837,29.976,43.76z M21.816,42.258c4.222,0,8.408,0,12.625,0c0.117-0.473,0.233-0.94,0.355-1.43
		c-4.349,0-8.653,0-12.979,0C21.816,41.304,21.816,41.757,21.816,42.258z M30.575,34.91c0-0.989,0-1.941,0-2.881
		c-0.985,0-1.938,0-2.88,0c0,0.978,0,1.919,0,2.881C28.66,34.91,29.601,34.91,30.575,34.91z M25.492,36.42c0,0.974,0,1.926,0,2.886
		c0.978,0,1.93,0,2.878,0c0-0.982,0-1.935,0-2.886C27.395,36.42,26.454,36.42,25.492,36.42z M29.895,36.417c0,0.992,0,1.933,0,2.893
		c0.974,0,1.926,0,2.885,0c0-0.979,0-1.931,0-2.893C31.809,36.417,30.867,36.417,29.895,36.417z M24.002,45.207
		c0.397-0.003,0.729-0.339,0.726-0.735c-0.003-0.398-0.338-0.729-0.735-0.726c-0.398,0.003-0.729,0.337-0.726,0.735
		C23.27,44.879,23.605,45.21,24.002,45.207z M32.806,44.464c-0.007-0.398-0.346-0.725-0.743-0.718
		c-0.398,0.007-0.725,0.346-0.718,0.743c0.007,0.398,0.346,0.726,0.743,0.719C32.485,45.2,32.813,44.86,32.806,44.464z"/>
	<path fill="#21376D" d="M23.29,7.024c4.031,0.009,7.318,3.309,7.316,7.347c-0.001,4.053-3.312,7.35-7.371,7.34
		c-4.05-0.01-7.333-3.329-7.316-7.394C15.938,10.289,19.247,7.015,23.29,7.024z M23.242,20.242c3.231,0.008,5.882-2.619,5.896-5.842
		c0.014-3.232-2.611-5.891-5.831-5.907c-3.254-0.016-5.915,2.621-5.919,5.865C17.385,17.586,20.02,20.234,23.242,20.242z"/>
	<path fill="#21376D" d="M32.947,4.918c0.328,0.248,0.655,0.497,1.035,0.784c-0.288,0.386-0.566,0.758-0.875,1.171
		c-0.82-0.613-1.603-1.245-2.432-1.808c-1.086-0.737-1.04-1.25-0.016-1.945c0.831-0.564,1.615-1.198,2.446-1.821
		c0.303,0.403,0.583,0.776,0.877,1.168c-0.373,0.284-0.708,0.54-1.13,0.862c3.705,0,7.302,0,10.937,0c0,0.501,0,0.965,0,1.482
		c-3.6,0-7.21,0-10.821,0C32.961,4.846,32.954,4.882,32.947,4.918z"/>
	<path fill="#21376D" d="M4.192,43.766c0-0.542,0-0.995,0-1.482c3.624,0,7.226,0,10.981,0c-0.445-0.348-0.782-0.612-1.153-0.902
		c0.289-0.386,0.569-0.76,0.873-1.166c1.004,0.756,1.988,1.476,2.947,2.229c0.403,0.317,0.391,0.823-0.021,1.144
		c-0.95,0.741-1.923,1.455-2.923,2.207c-0.298-0.396-0.579-0.767-0.88-1.167c0.364-0.279,0.7-0.536,1.128-0.864
		C11.438,43.766,7.832,43.766,4.192,43.766z"/>
	<path fill="#21376D" d="M46.728,4.803c-0.475,0-0.927,0-1.406,0c0-0.48,0-0.942,0-1.428c0.466,0,0.918,0,1.406,0
		C46.728,3.831,46.728,4.294,46.728,4.803z"/>
	<path fill="#21376D" d="M2.692,42.303c0,0.482,0,0.923,0,1.402c-0.466,0-0.929,0-1.426,0c0-0.446,0-0.909,0-1.402
		C1.725,42.303,2.187,42.303,2.692,42.303z"/>
	<path fill="#21376D" d="M22.515,9.984c0.507,0,0.96,0,1.416,0c0.017,0.02,0.054,0.045,0.051,0.065
		c-0.06,0.509,0.101,0.84,0.587,1.119c0.6,0.344,0.85,0.971,0.901,1.699c-0.486,0-0.952,0-1.435,0
		c-0.04-0.094-0.076-0.21-0.135-0.313c-0.182-0.314-0.463-0.453-0.813-0.362c-0.344,0.09-0.551,0.336-0.551,0.701
		c0,0.386,0.218,0.63,0.586,0.719c0.221,0.053,0.458,0.041,0.677,0.099c0.879,0.234,1.428,0.81,1.614,1.693
		c0.18,0.853-0.081,1.613-0.781,2.111c-0.457,0.324-0.804,0.607-0.617,1.235c-0.512,0-0.966,0-1.422,0
		c-0.016-0.02-0.053-0.044-0.051-0.065c0.056-0.507-0.097-0.841-0.586-1.121c-0.598-0.342-0.861-0.965-0.896-1.698
		c0.48,0,0.946,0,1.429,0c0.04,0.094,0.076,0.21,0.135,0.312c0.182,0.314,0.463,0.453,0.813,0.362
		c0.345-0.09,0.551-0.337,0.551-0.701c0-0.385-0.219-0.63-0.586-0.719c-0.221-0.053-0.458-0.041-0.677-0.099
		c-0.878-0.235-1.429-0.81-1.615-1.693c-0.179-0.853,0.112-1.567,0.772-2.124c0.194-0.164,0.504-0.244,0.609-0.443
		C22.598,10.562,22.515,10.262,22.515,9.984z"/>
</g>
</svg>
