<?xml version="1.0" encoding="utf-8"?>
<!-- Generator: Adobe Illustrator 17.0.0, SVG Export Plug-In . SVG Version: 6.00 Build 0)  -->
<!DOCTYPE svg PUBLIC "-//W3C//DTD SVG 1.1//EN" "http://www.w3.org/Graphics/SVG/1.1/DTD/svg11.dtd">
<svg version="1.1" id="Layer_1" xmlns="http://www.w3.org/2000/svg" xmlns:xlink="http://www.w3.org/1999/xlink" x="0px" y="0px"
	 width="48px" height="48px" viewBox="0 0 48 48" enable-background="new 0 0 48 48" xml:space="preserve">
<g>
	<path fill="#21376D" d="M12.688,5.25c0.031-0.819,0.246-1.026,1.011-1.03c0.474-0.002,0.948-0.013,1.421,0.004
		c0.26,0.01,0.396-0.067,0.479-0.33c0.167-0.525,0.343-1.052,0.575-1.55C16.66,1.3,17.383,0.503,18.634,0.5
		c1.184-0.003,1.91,0.726,2.398,1.717c0.264,0.536,0.477,1.099,0.679,1.662c0.098,0.271,0.244,0.357,0.52,0.347
		c0.504-0.019,1.01-0.008,1.515-0.005c0.751,0.004,0.977,0.23,1.001,1.03c0.185,0,0.372,0,0.559,0c2.115,0,4.231,0,6.346,0
		c2.488,0,3.965,1.482,3.966,3.983c0.001,5.415,0,10.829,0,16.244c0,0.201,0,0.401,0,0.569c0.87,0.138,1.689,0.212,2.48,0.404
		c4.727,1.146,8.184,5.735,8.011,10.595c-0.192,5.372-3.991,9.606-9.3,10.305c-0.948,0.125-1.921,0.087-2.882,0.09
		c-9.424,0.025-18.848,0.044-28.272,0.06c-2.258,0.004-3.765-1.522-3.768-3.831c-0.007-5.036-0.002-10.072-0.003-15.107
		c0-6.472-0.002-12.945,0.001-19.417c0.001-1.805,0.846-3.13,2.376-3.656C4.701,5.338,5.186,5.265,5.651,5.26
		c2.162-0.023,4.325-0.01,6.488-0.01C12.311,5.25,12.483,5.25,12.688,5.25z M6.235,9.64c0,9.307,0,18.597,0,27.928
		c0.189,0.008,0.358,0.022,0.528,0.022c1.373,0.002,2.746-0.003,4.119,0.003c0.674,0.003,0.912,0.244,0.914,0.912
		c0.004,1.373,0.001,2.746,0.001,4.119c0,0.167,0,0.334,0,0.497c5.056,0,10.042,0,15.087,0c-0.105-0.163-0.17-0.267-0.238-0.369
		c-3.659-5.491-1.669-12.779,4.281-15.614c0.338-0.161,0.361-0.365,0.361-0.663c-0.004-5.445-0.003-10.89-0.003-16.336
		c0-0.168,0-0.336,0-0.523c-0.18-0.008-0.304-0.019-0.427-0.018c-2.557,0.02-5.113,0.058-7.67,0.048
		c-0.572-0.002-1.002,0.104-1.286,0.629c-0.079,0.146-0.234,0.255-0.366,0.366c-1.934,1.632-4.672,1.373-6.317-0.619
		c-0.229-0.278-0.454-0.372-0.796-0.364c-0.662,0.015-1.325-0.017-1.988-0.018C10.385,9.638,8.335,9.64,6.235,9.64z M35.496,45.964
		c4.934,0.064,9.088-4.022,9.154-9.003c0.067-5.078-3.995-9.304-9.002-9.367c-5.134-0.065-9.248,3.885-9.364,8.979
		C26.167,41.783,30.392,45.964,35.496,45.964z M14.131,8.155c-0.165-0.353-0.335-0.67-0.461-1.003
		c-0.123-0.328-0.316-0.433-0.672-0.431c-2.415,0.017-4.831,0.006-7.246,0.01C4.189,6.734,3.355,7.571,3.355,9.128
		c-0.001,11.508-0.001,23.017,0,34.525c0,1.519,0.86,2.395,2.368,2.392c7.94-0.02,15.88-0.045,23.82-0.07
		c0.126,0,0.251-0.02,0.431-0.036c-0.495-0.367-0.912-0.709-1.362-0.996c-0.234-0.149-0.528-0.287-0.795-0.288
		c-5.509-0.016-11.019-0.008-16.528-0.026c-0.281-0.001-0.635-0.12-0.831-0.312c-1.681-1.645-3.31-3.343-5.008-4.97
		c-0.529-0.507-0.708-1.012-0.706-1.731C4.767,28.128,4.759,18.641,4.76,9.153c0-0.826,0.206-1.034,1.038-1.03
		c1.026,0.005,2.052,0.028,3.078,0.031C10.608,8.159,12.341,8.155,14.131,8.155z M34.112,26.189
		c0.012-0.085,0.028-0.146,0.028-0.207c0.001-5.731,0.006-11.461-0.006-17.192c-0.002-1.119-0.892-2.032-2.014-2.044
		c-2.636-0.029-5.273-0.015-7.909-0.01c-0.124,0-0.308,0.054-0.361,0.144c-0.237,0.402-0.436,0.826-0.678,1.297
		c0.233,0,0.389,0.001,0.545,0c2.636-0.019,5.272-0.039,7.909-0.056c0.933-0.006,1.115,0.177,1.115,1.096c0,5.557,0,11.114,0,16.671
		c0,0.179,0,0.358,0,0.566C33.249,26.356,33.679,26.273,34.112,26.189z M14.57,5.719c0.539,1.046,1.041,2.005,1.53,2.97
		c0.547,1.079,1.92,1.754,3.095,1.507c0.934-0.197,1.628-0.707,2.068-1.567c0.491-0.961,1-1.912,1.524-2.911
		C20.028,5.719,17.351,5.719,14.57,5.719z M20.253,4.183c-0.191-0.474-0.352-0.882-0.521-1.287C19.684,2.781,19.62,2.67,19.55,2.566
		c-0.54-0.803-1.305-0.83-1.808-0.01c-0.299,0.486-0.474,1.048-0.726,1.627C18.138,4.183,19.16,4.183,20.253,4.183z M7.464,39.078
		c0.947,0.947,1.909,1.909,2.853,2.853c0-0.902,0-1.865,0-2.853C9.324,39.078,8.358,39.078,7.464,39.078z"/>
	<path fill="#21376D" d="M22.635,15.181c-1.704,0-3.407,0.005-5.111-0.003c-0.626-0.003-0.995-0.448-0.821-0.967
		c0.131-0.39,0.442-0.508,0.818-0.509c0.852-0.002,1.704-0.001,2.556-0.001c2.445,0,4.89,0,7.335,0c0.11,0,0.221-0.003,0.331,0.001
		c0.556,0.017,0.906,0.318,0.891,0.763c-0.015,0.433-0.351,0.712-0.888,0.715c-1.23,0.006-2.461,0.002-3.691,0.002
		C23.581,15.181,23.108,15.181,22.635,15.181z"/>
	<path fill="#21376D" d="M22.681,21.717c1.703,0,3.407,0.002,5.11-0.001c0.389-0.001,0.733,0.137,0.782,0.528
		c0.032,0.25-0.1,0.572-0.264,0.777c-0.105,0.132-0.401,0.154-0.612,0.155c-3.375,0.009-6.751,0.008-10.126,0.004
		c-0.583-0.001-0.91-0.274-0.91-0.73c0-0.454,0.337-0.731,0.909-0.732C19.274,21.715,20.977,21.717,22.681,21.717z"/>
	<path fill="#21376D" d="M10.965,24.78c0.987-0.996,1.96-1.981,2.94-2.961c0.132-0.132,0.277-0.274,0.444-0.34
		c0.326-0.128,0.632-0.04,0.835,0.254c0.225,0.327,0.192,0.664-0.079,0.95c-0.401,0.423-0.821,0.829-1.233,1.242
		c-0.758,0.759-1.513,1.52-2.274,2.275c-0.5,0.496-0.84,0.497-1.332,0.011c-0.382-0.377-0.761-0.755-1.137-1.138
		c-0.401-0.408-0.438-0.839-0.108-1.16c0.324-0.315,0.749-0.265,1.16,0.136c0.226,0.22,0.449,0.442,0.675,0.663
		C10.866,24.721,10.881,24.727,10.965,24.78z"/>
	<path fill="#21376D" d="M10.895,32.979c1.006-1.006,1.94-1.941,2.875-2.876c0.111-0.111,0.218-0.23,0.339-0.329
		c0.327-0.265,0.664-0.271,0.983,0.011c0.292,0.258,0.323,0.711,0.041,1.019c-0.394,0.43-0.818,0.831-1.23,1.244
		c-0.78,0.781-1.557,1.564-2.342,2.34c-0.452,0.447-0.814,0.447-1.263,0.008c-0.417-0.408-0.832-0.818-1.236-1.238
		c-0.343-0.357-0.35-0.792-0.04-1.091c0.301-0.29,0.713-0.287,1.055,0.04C10.351,32.367,10.595,32.657,10.895,32.979z"/>
	<path fill="#21376D" d="M10.936,16.738c0.962-0.976,1.912-1.941,2.864-2.904c0.122-0.123,0.24-0.257,0.382-0.351
		c0.312-0.207,0.64-0.194,0.911,0.064c0.288,0.274,0.305,0.611,0.095,0.946c-0.066,0.105-0.163,0.192-0.252,0.281
		c-1.104,1.106-2.207,2.211-3.314,3.314c-0.536,0.534-0.844,0.533-1.403,0.006c-0.379-0.357-0.76-0.712-1.131-1.078
		c-0.358-0.354-0.387-0.777-0.092-1.09c0.299-0.316,0.712-0.313,1.094,0.024C10.362,16.188,10.62,16.442,10.936,16.738z"/>
	<path fill="#21376D" d="M20.684,29.869c1.039,0,2.079-0.002,3.118,0.001c0.576,0.002,0.92,0.266,0.937,0.71
		c0.018,0.457-0.342,0.765-0.934,0.767c-2.079,0.006-4.158,0.006-6.237-0.001c-0.575-0.002-0.907-0.287-0.908-0.739
		c0-0.454,0.338-0.735,0.905-0.737C18.606,29.867,19.645,29.869,20.684,29.869z"/>
	<path fill="#21376D" d="M20.595,16.712c0.978,0,1.956-0.004,2.934,0.001c0.565,0.003,0.912,0.29,0.914,0.737
		c0.002,0.447-0.345,0.744-0.908,0.746c-1.987,0.005-3.975,0.005-5.962,0c-0.57-0.001-0.909-0.288-0.911-0.739
		c-0.002-0.453,0.339-0.74,0.904-0.743C18.576,16.708,19.585,16.712,20.595,16.712z"/>
	<path fill="#21376D" d="M20.572,26.27c-1.009,0-2.019,0.003-3.028-0.001c-0.541-0.002-0.869-0.273-0.882-0.711
		c-0.014-0.459,0.314-0.749,0.888-0.75c2.003-0.006,4.006-0.006,6.009,0c0.566,0.002,0.904,0.304,0.886,0.756
		c-0.018,0.434-0.349,0.702-0.891,0.705C22.559,26.273,21.565,26.27,20.572,26.27z"/>
	<path fill="#21376D" d="M19.974,34.42c-0.818,0-1.637,0.004-2.455-0.001c-0.535-0.003-0.86-0.285-0.859-0.727
		c0.001-0.444,0.318-0.719,0.862-0.721c1.653-0.005,3.305-0.005,4.958,0c0.536,0.002,0.86,0.286,0.859,0.725
		c-0.001,0.44-0.328,0.72-0.862,0.723C21.643,34.423,20.809,34.42,19.974,34.42z"/>
	<path fill="#21376D" d="M36.217,35.064c0,0.567,0.03,1.136-0.013,1.7c-0.02,0.258-0.122,0.563-0.294,0.748
		c-0.643,0.692-1.327,1.344-2,2.008c-0.41,0.404-0.836,0.448-1.159,0.128c-0.328-0.325-0.291-0.749,0.112-1.157
		c0.531-0.538,1.082-1.057,1.595-1.612c0.142-0.153,0.249-0.401,0.255-0.608c0.026-1.007,0.006-2.015,0.014-3.023
		c0.005-0.553,0.318-0.892,0.774-0.87c0.407,0.019,0.692,0.324,0.703,0.797c0.015,0.63,0.004,1.26,0.004,1.89
		C36.211,35.064,36.214,35.064,36.217,35.064z"/>
	<path fill="#21376D" d="M31.548,42.336c-0.121,0.153-0.241,0.443-0.442,0.52c-0.228,0.088-0.575,0.066-0.787-0.054
		c-0.321-0.181-0.591-0.469-0.845-0.747c-0.264-0.289-0.293-0.684-0.027-0.94c0.187-0.18,0.628-0.336,0.805-0.236
		c0.437,0.247,0.796,0.639,1.166,0.993C31.494,41.944,31.487,42.104,31.548,42.336z"/>
	<path fill="#21376D" d="M41.054,32.813c-0.667-0.016-1.652-0.926-1.602-1.382c0.026-0.233,0.17-0.547,0.355-0.643
		c0.206-0.107,0.567-0.094,0.774,0.022c0.335,0.189,0.657,0.464,0.872,0.78c0.142,0.208,0.181,0.583,0.094,0.821
		C41.47,32.618,41.154,32.738,41.054,32.813z"/>
	<path fill="#21376D" d="M39.337,42.234c0.142-0.253,0.21-0.451,0.34-0.59c0.225-0.241,0.48-0.456,0.738-0.662
		c0.336-0.268,0.8-0.227,1.059,0.073c0.24,0.279,0.236,0.75-0.041,1.034c-0.253,0.258-0.505,0.542-0.814,0.711
		c-0.217,0.118-0.568,0.152-0.787,0.057C39.623,42.766,39.506,42.461,39.337,42.234z"/>
	<path fill="#21376D" d="M29.834,32.807c-0.087-0.071-0.365-0.193-0.451-0.396c-0.089-0.212-0.087-0.576,0.042-0.743
		c0.274-0.354,0.626-0.677,1.01-0.904c0.187-0.11,0.589-0.064,0.766,0.074c0.178,0.139,0.274,0.482,0.271,0.733
		C31.465,31.993,30.436,32.817,29.834,32.807z"/>
	<path fill="#21376D" d="M35.508,28.919c0.142,0,0.283-0.002,0.425,0c0.459,0.007,0.737,0.235,0.782,0.638
		c0.047,0.427-0.196,0.794-0.635,0.845c-0.387,0.045-0.789,0.043-1.176-0.006c-0.4-0.05-0.685-0.456-0.643-0.81
		c0.048-0.401,0.343-0.656,0.775-0.667C35.193,28.916,35.351,28.919,35.508,28.919z"/>
	<path fill="#21376D" d="M43.421,36.818c0,0.173,0.011,0.347-0.003,0.52c-0.032,0.414-0.338,0.693-0.745,0.695
		c-0.407,0.002-0.729-0.269-0.759-0.682c-0.025-0.345-0.021-0.693-0.002-1.039c0.023-0.413,0.394-0.756,0.772-0.744
		c0.393,0.013,0.715,0.351,0.735,0.778C43.427,36.503,43.421,36.661,43.421,36.818z"/>
	<path fill="#21376D" d="M27.51,36.823c0-0.173-0.01-0.347,0.002-0.52c0.03-0.396,0.359-0.721,0.732-0.735
		c0.379-0.014,0.752,0.329,0.774,0.74c0.018,0.33,0.016,0.662,0.001,0.992c-0.021,0.444-0.331,0.734-0.756,0.733
		c-0.426-0.001-0.725-0.291-0.752-0.738C27.501,37.138,27.509,36.98,27.51,36.823z"/>
	<path fill="#21376D" d="M35.481,44.736c-0.157,0-0.315,0.008-0.472-0.002c-0.415-0.027-0.759-0.38-0.753-0.762
		c0.006-0.386,0.349-0.728,0.769-0.746c0.314-0.013,0.63-0.013,0.944,0c0.445,0.018,0.747,0.322,0.755,0.739
		c0.008,0.439-0.3,0.75-0.771,0.771C35.796,44.742,35.639,44.736,35.481,44.736z"/>
</g>
</svg>
