<?xml version="1.0" encoding="utf-8"?>
<!-- Generator: Adobe Illustrator 17.0.0, SVG Export Plug-In . SVG Version: 6.00 Build 0)  -->
<!DOCTYPE svg PUBLIC "-//W3C//DTD SVG 1.1//EN" "http://www.w3.org/Graphics/SVG/1.1/DTD/svg11.dtd">
<svg version="1.1" id="Layer_1" xmlns="http://www.w3.org/2000/svg" xmlns:xlink="http://www.w3.org/1999/xlink" x="0px" y="0px"
	 width="48px" height="48px" viewBox="0 0 48 48" enable-background="new 0 0 48 48" xml:space="preserve">
<g>
	<path fill="#21376D" d="M0.5,41.81c0.201-0.453,0.563-0.604,1.039-0.582c0.411,0.019,0.823,0.004,1.293,0.004
		c0-4.704,0-9.375,0-14.075c0.553,0,1.047,0,1.584,0c0,4.68,0,9.34,0,14.037c0.534,0,1.026,0,1.558,0c0-4.679,0-9.338,0-14.033
		c0.533,0,1.027,0,1.576,0c0,4.675,0,9.346,0,14.071c0.233,0,0.412,0,0.592,0c3.533,0,7.067,0.015,10.6-0.009
		c1.046-0.007,1.875,0.281,2.449,1.211c0.117,0.19,0.447,0.343,0.683,0.349c1.406,0.032,2.815,0.037,4.221-0.003
		c0.257-0.007,0.604-0.194,0.744-0.407c0.543-0.828,1.288-1.15,2.251-1.147c3.579,0.013,7.158,0.005,10.738,0.005
		c0.181,0,0.362,0,0.602,0c0-0.53,0-1.024,0-1.543c0.543,0,1.026,0,1.553,0c0,0.491,0,0.974,0,1.5c0.535,0,1.027,0,1.57,0
		c0-0.481,0-0.963,0-1.484c0.54,0,1.031,0,1.572,0c0,0.488,0,0.971,0,1.527c0.483,0,0.92-0.004,1.357,0.001
		c0.75,0.009,1.008,0.273,1.012,1.035c0.003,0.673,0.013,1.346-0.002,2.019c-0.043,1.84-1.314,3.128-3.152,3.206
		c-0.107,0.005-0.214,0.002-0.321,0.002c-13.353,0-26.706-0.002-40.06,0.003c-1.405,0-2.496-0.518-3.144-1.807
		c-0.135-0.269-0.211-0.567-0.314-0.852C0.5,43.83,0.5,42.82,0.5,41.81z M45.904,42.823c-0.167-0.008-0.316-0.022-0.465-0.023
		c-5.445-0.001-10.889,0.004-16.334-0.009c-0.464-0.001-0.777,0.133-1.018,0.538c-0.347,0.585-0.88,0.962-1.566,0.976
		c-1.649,0.035-3.299,0.044-4.948,0.019c-0.753-0.011-1.334-0.411-1.713-1.063c-0.224-0.385-0.545-0.469-0.961-0.468
		C13.455,42.802,8.011,42.799,2.566,42.8c-0.16,0-0.321,0.014-0.502,0.023c0,0.404,0,0.754,0,1.104c0,1.451,0.548,2.003,1.989,2.003
		c13.306,0,26.611,0,39.917-0.001c0.198,0,0.4,0.003,0.595-0.026c0.717-0.11,1.254-0.604,1.328-1.32
		C45.951,44.012,45.904,43.431,45.904,42.823z"/>
	<path fill="#21376D" d="M35.107,0.502c0.32,0.277,0.661,0.533,0.957,0.834c0.461,0.468,0.905,0.955,1.33,1.457
		c0.182,0.216,0.351,0.232,0.595,0.15c0.782-0.261,1.568-0.509,2.355-0.756c0.76-0.238,1.125-0.032,1.301,0.737
		c0.181,0.789,0.375,1.576,0.513,2.373c0.062,0.355,0.229,0.471,0.553,0.534c0.794,0.154,1.584,0.335,2.372,0.519
		c0.748,0.175,0.946,0.532,0.717,1.272c-0.234,0.759-0.461,1.52-0.722,2.27c-0.113,0.326-0.103,0.539,0.192,0.781
		c0.614,0.504,1.186,1.059,1.773,1.596c0.604,0.554,0.601,0.965-0.012,1.528c-0.586,0.538-1.163,1.087-1.769,1.601
		c-0.267,0.226-0.302,0.422-0.187,0.743c0.257,0.718,0.467,1.453,0.695,2.182c0.28,0.895,0.089,1.226-0.833,1.43
		c-0.746,0.165-1.489,0.344-2.241,0.475c-0.348,0.06-0.473,0.22-0.535,0.552c-0.149,0.795-0.336,1.584-0.518,2.372
		c-0.172,0.743-0.54,0.952-1.272,0.725c-0.787-0.245-1.576-0.486-2.354-0.76c-0.294-0.104-0.465-0.045-0.664,0.186
		c-0.539,0.625-1.104,1.229-1.666,1.835c-0.521,0.561-0.939,0.556-1.464-0.013c-0.54-0.584-1.089-1.161-1.603-1.768
		c-0.23-0.272-0.428-0.345-0.776-0.218c-0.759,0.278-1.537,0.508-2.31,0.746c-0.706,0.217-1.078,0.007-1.246-0.708
		c-0.185-0.788-0.367-1.577-0.52-2.372c-0.065-0.339-0.191-0.517-0.56-0.581c-0.797-0.139-1.584-0.332-2.373-0.515
		c-0.743-0.173-0.951-0.541-0.724-1.273c0.235-0.758,0.457-1.522,0.73-2.267c0.133-0.364,0.051-0.576-0.232-0.815
		c-0.595-0.503-1.16-1.043-1.735-1.571c-0.59-0.542-0.594-0.965-0.011-1.5c0.619-0.569,1.255-1.122,1.856-1.71
		c0.118-0.115,0.192-0.381,0.148-0.538c-0.221-0.794-0.49-1.574-0.738-2.36c-0.255-0.808-0.054-1.157,0.786-1.349
		c0.759-0.173,1.518-0.356,2.285-0.491c0.362-0.064,0.5-0.233,0.565-0.577c0.154-0.81,0.338-1.615,0.529-2.417
		c0.158-0.664,0.532-0.878,1.185-0.68c0.818,0.248,1.634,0.505,2.443,0.783c0.275,0.094,0.441,0.041,0.629-0.175
		c0.553-0.634,1.125-1.252,1.699-1.866c0.143-0.152,0.324-0.268,0.488-0.401C34.862,0.502,34.984,0.502,35.107,0.502z M29.67,3.871
		c-0.185,0.843-0.378,1.614-0.519,2.394c-0.101,0.559-0.387,0.85-0.948,0.952c-0.791,0.144-1.572,0.341-2.398,0.525
		c0.242,0.773,0.429,1.514,0.707,2.218c0.256,0.647,0.106,1.096-0.418,1.521c-0.59,0.48-1.133,1.017-1.717,1.548
		c0.627,0.571,1.212,1.132,1.829,1.655c0.433,0.368,0.537,0.767,0.347,1.3c-0.27,0.756-0.494,1.528-0.751,2.334
		c0.825,0.184,1.592,0.384,2.37,0.518c0.582,0.101,0.876,0.396,0.98,0.974c0.142,0.789,0.34,1.568,0.521,2.381
		c0.84-0.266,1.629-0.498,2.406-0.767c0.486-0.169,0.86-0.062,1.185,0.323c0.237,0.28,0.49,0.546,0.738,0.817
		c0.314,0.343,0.63,0.685,0.961,1.045c0.589-0.645,1.15-1.23,1.675-1.846c0.36-0.421,0.754-0.505,1.265-0.327
		c0.76,0.266,1.532,0.496,2.342,0.755c0.125-0.556,0.247-1.072,0.358-1.591c0.375-1.75,0.189-1.545,1.923-1.926
		c0.527-0.116,1.053-0.24,1.595-0.363c-0.262-0.823-0.486-1.585-0.75-2.333c-0.188-0.532-0.083-0.93,0.353-1.298
		c0.616-0.519,1.195-1.082,1.816-1.65c-0.597-0.544-1.141-1.083-1.732-1.564c-0.514-0.418-0.64-0.864-0.403-1.487
		c0.274-0.72,0.473-1.468,0.715-2.235c-0.843-0.187-1.627-0.382-2.42-0.528c-0.541-0.1-0.821-0.379-0.921-0.921
		c-0.15-0.804-0.35-1.599-0.534-2.42c-0.77,0.242-1.499,0.424-2.19,0.701c-0.664,0.266-1.124,0.111-1.56-0.427
		c-0.475-0.586-1.009-1.123-1.535-1.701c-0.598,0.658-1.162,1.259-1.703,1.882c-0.335,0.385-0.706,0.476-1.186,0.31
		C31.294,4.37,30.507,4.136,29.67,3.871z"/>
	<path fill="#21376D" d="M0.5,18.311c0.206-0.448,0.566-0.581,1.041-0.58c3.745,0.01,7.491,0.004,11.236,0.007
		c0.782,0.001,1.033,0.26,1.034,1.054c0.002,1.911,0.002,3.822,0,5.733c-0.001,0.775-0.269,1.038-1.056,1.038
		c-3.73,0.001-7.46-0.005-11.19,0.007c-0.476,0.002-0.828-0.144-1.064-0.557C0.5,22.778,0.5,20.544,0.5,18.311z M12.228,19.339
		c-3.404,0-6.771,0-10.127,0c0,1.571,0,3.104,0,4.631c3.394,0,6.751,0,10.127,0C12.228,22.42,12.228,20.897,12.228,19.339z"/>
	<path fill="#21376D" d="M16.261,34.831c0.496,1.15,0.966,2.24,1.436,3.331c0.054,0.126,0.114,0.25,0.16,0.38
		c0.207,0.582-0.081,1.082-0.699,1.104c-1.024,0.035-2.049,0.015-3.074,0.007c-0.399-0.003-0.634-0.248-0.8-0.59
		c-0.461-0.948-0.921-1.897-1.408-2.831c-0.084-0.161-0.282-0.319-0.458-0.367c-1.267-0.35-2.04-1.176-2.253-2.447
		c-0.204-1.218,0.245-2.221,1.258-2.951c0.087-0.063,0.172-0.131,0.267-0.177c1.371-0.666,2.45-1.692,3.508-2.763
		c1.881-1.904,3.8-3.772,5.704-5.654c0.7-0.692,1.272-0.556,1.595,0.38c1.31,3.796,2.618,7.593,3.925,11.391
		c0.302,0.878-0.019,1.318-0.953,1.305c-2.539-0.036-5.078-0.076-7.618-0.114C16.685,34.829,16.517,34.831,16.261,34.831z
		 M23.668,33.344c-1.118-3.24-2.219-6.431-3.355-9.725c-2.141,2.214-4.21,4.354-6.329,6.545c0.405,0.803,0.891,1.735,1.345,2.683
		c0.144,0.301,0.315,0.418,0.656,0.42c1.788,0.01,3.575,0.052,5.363,0.075C22.095,33.353,22.843,33.344,23.668,33.344z
		 M12.618,30.943c-0.487,0.309-0.944,0.559-1.356,0.869c-0.576,0.434-0.719,1.127-0.417,1.761c0.284,0.597,1.001,0.97,1.649,0.77
		c0.513-0.159,0.991-0.432,1.507-0.665C13.529,32.744,13.09,31.876,12.618,30.943z M13.389,35.714
		c0.373,0.76,0.724,1.485,1.089,2.202c0.04,0.078,0.159,0.16,0.244,0.163c0.388,0.017,0.777,0.008,1.234,0.008
		c-0.456-1.049-0.876-2.017-1.303-2.999C14.213,35.307,13.832,35.496,13.389,35.714z"/>
	<path fill="#21376D" d="M40.437,27.126c0-0.543,0-1.015,0-1.526c0.512,0,1.006,0,1.556,0c0,0.484,0,0.979,0,1.499
		c0.536,0,1.019,0,1.552,0c0-1.793,0-3.589,0-5.424c0.542,0,1.035,0,1.581,0c0,1.803,0,3.599,0,5.45
		c0.505,0,0.959-0.006,1.412,0.001c0.661,0.011,0.953,0.296,0.954,0.962c0.005,3.013,0.005,6.026,0,9.039
		c-0.001,0.703-0.302,0.963-1.089,0.964c-4.221,0.002-8.442,0.001-12.663,0.001c-0.581,0-1.163,0.01-1.743-0.004
		c-0.676-0.016-0.941-0.285-0.942-0.962c-0.004-3.013-0.004-6.026,0-9.039c0.001-0.687,0.285-0.961,0.989-0.962
		c2.615-0.004,5.231-0.002,7.846-0.002C40.054,27.126,40.219,27.126,40.437,27.126z M32.636,36.494c4.445,0,8.844,0,13.269,0
		c0-2.603,0-5.179,0-7.772c-4.436,0-8.845,0-13.269,0C32.636,31.32,32.636,33.885,32.636,36.494z"/>
	<path fill="#21376D" d="M4.424,16.149c-0.55,0-1.019,0-1.533,0c-0.147-1.429,0.182-2.668,1.253-3.657
		c0.793-0.733,1.753-1.031,2.812-1.032c4.524-0.005,9.049-0.002,13.573-0.001c0.09,0,0.179,0.013,0.304,0.023
		c0,0.505,0,0.997,0,1.546c-0.209,0-0.403,0-0.597,0c-4.387,0-8.774,0.004-13.161-0.003c-1.043-0.002-1.906,0.323-2.382,1.301
		c-0.167,0.343-0.199,0.757-0.263,1.144C4.396,15.674,4.424,15.889,4.424,16.149z"/>
	<path fill="#21376D" d="M6.035,16.131c-0.022-0.745,0.5-1.379,1.224-1.495C7.454,14.605,7.655,14.6,7.853,14.6
		c4.692-0.002,9.384-0.002,14.077-0.002c0.15,0,0.299,0,0.477,0c0,0.528,0,1.012,0,1.533C16.96,16.131,11.512,16.131,6.035,16.131z"
		/>
	<path fill="#21376D" d="M27.492,26.427c0.18,0.52,0.337,0.976,0.51,1.476c-0.863,0.302-1.69,0.592-2.574,0.902
		c-0.174-0.486-0.339-0.951-0.525-1.472C25.756,27.034,26.594,26.741,27.492,26.427z"/>
	<path fill="#21376D" d="M22.939,21.964c0.526-0.461,1.133-0.993,1.772-1.554c0.252,0.286,0.582,0.662,0.94,1.069
		c-0.505,0.528-1.06,1.109-1.646,1.723C23.663,22.804,23.338,22.427,22.939,21.964z"/>
	<path fill="#21376D" d="M27.146,34.142c0-0.498,0-0.98,0-1.493c0.769,0,1.523,0,2.309,0c0,0.488,0,0.97,0,1.493
		C28.708,34.142,27.954,34.142,27.146,34.142z"/>
	<path fill="#21376D" d="M31.545,17.405c-0.304-0.303-0.656-0.653-0.979-0.975c2.596-2.596,5.185-5.185,7.788-7.788
		c0.293,0.326,0.626,0.696,0.925,1.028C36.747,12.203,34.148,14.802,31.545,17.405z"/>
	<path fill="#21376D" d="M36.539,15.318c0.044-1.302,1.105-2.314,2.388-2.276c1.292,0.038,2.334,1.116,2.296,2.377
		c-0.039,1.291-1.11,2.332-2.374,2.309C37.541,17.702,36.496,16.612,36.539,15.318z M38.879,16.146
		c0.435-0.002,0.777-0.356,0.763-0.791c-0.013-0.418-0.346-0.739-0.768-0.738c-0.441,0.001-0.774,0.346-0.761,0.788
		C38.125,15.823,38.461,16.147,38.879,16.146z"/>
	<path fill="#21376D" d="M33.38,10.676c0.002,1.298-1.022,2.33-2.32,2.34c-1.302,0.01-2.383-1.066-2.365-2.356
		c0.018-1.279,1.09-2.338,2.358-2.33C32.338,8.339,33.378,9.387,33.38,10.676z M31.81,10.689c0.005-0.419-0.316-0.76-0.734-0.779
		c-0.424-0.019-0.803,0.338-0.809,0.761c-0.006,0.408,0.333,0.759,0.745,0.773C31.458,11.459,31.805,11.131,31.81,10.689z"/>
	<path fill="#21376D" d="M6.781,22.394c0-0.5,0-0.982,0-1.495c1.294,0,2.57,0,3.875,0c0,0.489,0,0.973,0,1.495
		C9.389,22.394,8.113,22.394,6.781,22.394z"/>
	<path fill="#21376D" d="M3.666,20.886c0.505,0,0.986,0,1.497,0c0,0.51,0,1.002,0,1.52c-0.496,0-0.977,0-1.497,0
		C3.666,21.92,3.666,21.429,3.666,20.886z"/>
	<path fill="#21376D" d="M44.338,33.419c0,0.5,0,0.981,0,1.498c-3.377,0-6.742,0-10.131,0c0-0.497,0-0.98,0-1.498
		C37.578,33.419,40.944,33.419,44.338,33.419z"/>
	<path fill="#21376D" d="M38.899,30.278c1.825,0,3.617,0,5.438,0c0,0.504,0,0.985,0,1.504c-1.806,0-3.609,0-5.438,0
		C38.899,31.293,38.899,30.811,38.899,30.278z"/>
	<path fill="#21376D" d="M34.194,31.792c0-0.522,0-0.994,0-1.501c1.024,0,2.036,0,3.083,0c0,0.487,0,0.98,0,1.501
		C36.258,31.792,35.246,31.792,34.194,31.792z"/>
</g>
</svg>
