<?xml version="1.0" encoding="utf-8"?>
<!-- Generator: Adobe Illustrator 17.0.0, SVG Export Plug-In . SVG Version: 6.00 Build 0)  -->
<!DOCTYPE svg PUBLIC "-//W3C//DTD SVG 1.1//EN" "http://www.w3.org/Graphics/SVG/1.1/DTD/svg11.dtd">
<svg version="1.1" id="Layer_1" xmlns="http://www.w3.org/2000/svg" xmlns:xlink="http://www.w3.org/1999/xlink" x="0px" y="0px"
	 width="48px" height="48px" viewBox="0 0 48 48" enable-background="new 0 0 48 48" xml:space="preserve">
<g>
	<path fill="#21376D" d="M0.5,20.236c0.116-0.376,0.197-0.767,0.354-1.125c0.789-1.8,2.166-2.786,4.135-2.926
		c0.168-0.012,0.336-0.011,0.504-0.011c12.338,0,24.677,0.004,37.015-0.005c2.124-0.002,3.668,0.897,4.587,2.816
		c0.188,0.392,0.273,0.833,0.405,1.251c0,2.509,0,5.018,0,7.527c-0.079,0.275-0.149,0.554-0.238,0.826
		c-0.624,1.891-2.305,3.153-4.298,3.227c-0.301,0.011-0.603,0.002-0.928,0.002c0,1.202,0,2.337,0,3.53
		c0.134-0.097,0.224-0.171,0.322-0.232c0.336-0.208,0.751-0.157,1.004,0.119c0.258,0.281,0.3,0.713,0.028,1.003
		c-0.543,0.58-1.103,1.146-1.687,1.685c-0.314,0.289-0.728,0.23-1.072-0.103c-0.494-0.479-0.981-0.966-1.458-1.462
		c-0.352-0.365-0.373-0.779-0.083-1.109c0.284-0.323,0.716-0.348,1.111-0.061c0.058,0.042,0.112,0.087,0.215,0.168
		c0-1.199,0-2.334,0-3.5c-5.193,0-10.37,0-15.589,0c0,1.141,0,2.273,0,3.452c0.139-0.089,0.243-0.174,0.361-0.229
		c0.337-0.156,0.662-0.133,0.925,0.147c0.276,0.293,0.332,0.672,0.075,0.961c-0.548,0.615-1.133,1.203-1.747,1.751
		c-0.327,0.293-0.72,0.197-1.032-0.109c-0.491-0.482-0.981-0.966-1.46-1.46c-0.345-0.355-0.373-0.79-0.097-1.111
		c0.282-0.328,0.688-0.357,1.111-0.079c0.059,0.039,0.12,0.073,0.223,0.136c0-1.176,0-2.299,0-3.456c-5.197,0-10.374,0-15.59,0
		c0,1.143,0,2.288,0,3.442c0.63-0.396,1.048-0.398,1.341-0.017c0.306,0.399,0.214,0.756-0.334,1.305
		c-0.389,0.39-0.775,0.783-1.168,1.168c-0.469,0.459-0.87,0.454-1.345-0.015c-0.436-0.43-0.868-0.863-1.297-1.298
		c-0.404-0.409-0.468-0.83-0.187-1.175c0.295-0.361,0.727-0.365,1.216-0.014c0.033,0.024,0.077,0.033,0.144,0.059
		c0-1.159,0-2.294,0-3.495c-0.309,0-0.596,0.008-0.881-0.001c-2.269-0.078-4.064-1.614-4.502-3.848
		c-0.014-0.071-0.054-0.138-0.082-0.206C0.5,25.255,0.5,22.745,0.5,20.236z M24.004,30.259c6.21,0,12.42,0.003,18.63-0.002
		c1.99-0.002,3.298-1.321,3.302-3.313c0.004-1.973,0.005-3.946,0-5.919c-0.005-1.958-1.322-3.281-3.286-3.281
		c-12.435-0.004-24.871-0.004-37.306,0c-1.96,0.001-3.273,1.328-3.278,3.289c-0.005,1.912,0.056,3.826-0.017,5.735
		c-0.076,1.997,1.381,3.534,3.509,3.513C11.705,30.219,17.855,30.259,24.004,30.259z"/>
	<path fill="#21376D" d="M28.406,0.5c0.45,0.297,0.998,0.514,1.321,0.913c0.301,0.373,0.469,0.932,0.507,1.423
		c0.077,0.973,0.027,1.956,0.023,2.935c-0.005,1.623-0.938,2.547-2.572,2.553c-0.796,0.003-1.591,0.001-2.387,0.001
		c-0.149,0-0.299,0-0.48,0c0,1.175,0,2.299,0,3.483c0.135-0.085,0.237-0.162,0.349-0.218c0.353-0.176,0.69-0.149,0.96,0.152
		c0.268,0.298,0.309,0.675,0.049,0.964c-0.541,0.601-1.118,1.174-1.715,1.722c-0.29,0.266-0.673,0.245-0.964-0.027
		c-0.558-0.522-1.099-1.065-1.624-1.62c-0.291-0.307-0.277-0.756-0.004-1.04c0.295-0.307,0.637-0.331,1.001-0.127
		c0.089,0.05,0.168,0.118,0.305,0.216c0-1.193,0-2.323,0-3.509c-1.079,0-2.132,0.019-3.183-0.005
		c-1.065-0.024-1.932-0.738-2.183-1.769c-0.057-0.234-0.064-0.484-0.066-0.727c-0.007-0.933-0.006-1.866-0.002-2.8
		c0.005-1.269,0.537-2.008,1.747-2.44c0.039-0.014,0.07-0.052,0.105-0.079C22.531,0.5,25.469,0.5,28.406,0.5z M23.978,6.759
		c1.268,0,2.537,0.004,3.805-0.002c0.625-0.003,0.902-0.274,0.907-0.887c0.008-0.963,0.007-1.926,0-2.888
		c-0.004-0.635-0.287-0.915-0.933-0.916c-2.506-0.004-5.013-0.004-7.519,0c-0.644,0.001-0.926,0.283-0.93,0.919
		c-0.006,0.932-0.004,1.864-0.001,2.797c0.003,0.729,0.255,0.975,1.002,0.977C21.533,6.761,22.755,6.759,23.978,6.759z"/>
	<path fill="#21376D" d="M47.5,6.467c-0.313,0.832-0.777,1.528-1.7,1.759c-0.306,0.077-0.634,0.091-0.952,0.095
		c-0.928,0.012-1.857,0.004-2.812,0.004c0,1.192,0,2.328,0,3.52c0.131-0.094,0.221-0.167,0.319-0.228
		c0.337-0.209,0.75-0.16,1.005,0.115c0.259,0.28,0.303,0.713,0.032,1.003c-0.542,0.581-1.103,1.147-1.686,1.686
		c-0.314,0.29-0.729,0.232-1.072-0.1c-0.494-0.479-0.981-0.966-1.459-1.462c-0.353-0.366-0.375-0.779-0.086-1.109
		c0.292-0.334,0.728-0.347,1.147-0.035c0.045,0.034,0.092,0.066,0.18,0.13c0-1.188,0-2.323,0-3.519c-0.359,0-0.706,0.001-1.053,0
		c-0.749-0.003-1.5,0.018-2.248-0.017c-1.063-0.05-2.032-0.904-2.093-1.963c-0.075-1.279-0.071-2.569,0-3.849
		c0.048-0.877,0.613-1.471,1.418-1.821c0.137-0.06,0.276-0.117,0.413-0.175c2.907,0,5.814,0,8.721,0
		c1.003,0.282,1.643,0.927,1.928,1.928C47.5,3.774,47.5,5.12,47.5,6.467z M41.209,6.759c1.268,0,2.537,0.004,3.805-0.002
		c0.638-0.003,0.916-0.286,0.92-0.929c0.006-0.947,0.007-1.895,0-2.842c-0.005-0.63-0.298-0.918-0.938-0.919
		c-2.506-0.004-5.013-0.004-7.519,0c-0.646,0.001-0.93,0.274-0.937,0.915c-0.011,0.947-0.01,1.895-0.001,2.842
		c0.007,0.677,0.272,0.932,0.957,0.935C38.733,6.762,39.971,6.759,41.209,6.759z"/>
	<path fill="#21376D" d="M11.148,0.5c0.109,0.047,0.217,0.099,0.329,0.14c0.961,0.36,1.532,1.17,1.553,2.267
		c0.02,0.994,0.02,1.989,0.001,2.983c-0.028,1.483-0.986,2.421-2.467,2.434C9.588,8.332,8.611,8.325,7.557,8.325
		c0,0.604,0,1.177,0,1.75c0,0.565,0,1.13,0,1.771c0.138-0.096,0.224-0.16,0.314-0.219c0.329-0.215,0.759-0.183,1.007,0.091
		c0.283,0.312,0.342,0.689,0.061,0.998c-0.544,0.599-1.116,1.177-1.719,1.716c-0.326,0.291-0.719,0.212-1.033-0.096
		c-0.491-0.482-0.979-0.968-1.46-1.46c-0.349-0.358-0.386-0.784-0.118-1.109c0.282-0.341,0.723-0.367,1.146-0.068
		c0.057,0.04,0.115,0.079,0.236,0.163c0-1.105,0.001-2.139-0.001-3.173c0-0.103-0.016-0.206-0.03-0.363
		c-1.012,0-2.002-0.008-2.992,0.003c-0.589,0.006-1.166-0.1-1.567-0.523C1.036,7.421,0.796,6.918,0.5,6.467c0-1.346,0-2.693,0-4.039
		C0.782,1.425,1.426,0.783,2.428,0.5C5.335,0.5,8.242,0.5,11.148,0.5z M6.762,6.758c1.268,0,2.537,0.005,3.805-0.002
		c0.6-0.003,0.881-0.268,0.89-0.86c0.015-0.978,0.014-1.956,0.001-2.934c-0.008-0.614-0.296-0.895-0.909-0.896
		c-2.522-0.005-5.043-0.005-7.565,0c-0.63,0.001-0.916,0.298-0.92,0.937C2.06,3.92,2.062,4.837,2.064,5.754
		c0.002,0.737,0.26,1.002,0.984,1.004C4.287,6.762,5.525,6.759,6.762,6.758z"/>
	<path fill="#21376D" d="M36.852,47.5c-0.323-0.164-0.675-0.288-0.963-0.499c-0.649-0.475-0.923-1.155-0.924-1.951
		c-0.001-0.963-0.01-1.926,0.002-2.888c0.019-1.531,0.975-2.481,2.505-2.486c2.353-0.007,4.708,0.046,7.06-0.019
		c1.464-0.041,2.481,0.456,2.969,1.876c0,1.346,0,2.693,0,4.039c-0.285,1.001-0.927,1.643-1.928,1.928
		C42.665,47.5,39.758,47.5,36.852,47.5z M41.244,41.241c-1.253,0-2.506-0.003-3.759,0.001c-0.664,0.002-0.937,0.256-0.945,0.899
		c-0.012,0.963-0.011,1.926,0,2.888c0.007,0.618,0.292,0.903,0.902,0.904c2.522,0.005,5.043,0.005,7.565,0
		c0.633-0.001,0.923-0.296,0.928-0.931c0.007-0.932,0.005-1.864,0.001-2.797c-0.003-0.695-0.273-0.962-0.977-0.965
		C43.72,41.238,42.482,41.241,41.244,41.241z"/>
	<path fill="#21376D" d="M0.5,41.533c0.256-0.646,0.556-1.281,1.235-1.565c0.397-0.166,0.847-0.277,1.275-0.282
		c2.491-0.026,4.982-0.016,7.473-0.012c1.59,0.003,2.536,0.944,2.552,2.532c0.008,0.779-0.036,1.561,0.01,2.338
		c0.086,1.461-0.464,2.483-1.896,2.955c-2.907,0-5.814,0-8.721,0c-0.999-0.286-1.645-0.925-1.928-1.928
		C0.5,44.226,0.5,42.88,0.5,41.533z M6.766,41.241c-1.253,0-2.506-0.004-3.759,0.001c-0.667,0.003-0.938,0.279-0.941,0.953
		c-0.004,0.932-0.005,1.864,0,2.797c0.004,0.657,0.293,0.941,0.962,0.942c2.491,0.003,4.982,0.003,7.473,0
		c0.672-0.001,0.953-0.273,0.96-0.94c0.01-0.932,0.009-1.864,0.001-2.797c-0.006-0.704-0.266-0.954-0.982-0.956
		C9.242,41.239,8.004,41.241,6.766,41.241z"/>
	<path fill="#21376D" d="M19.594,47.5c-0.107-0.05-0.212-0.105-0.321-0.148c-0.948-0.374-1.513-1.164-1.527-2.185
		c-0.014-1.039-0.014-2.079-0.001-3.119c0.017-1.385,0.985-2.361,2.38-2.368c2.584-0.014,5.168-0.015,7.752,0
		c1.416,0.008,2.366,0.987,2.381,2.414c0.01,0.963,0.005,1.926,0.001,2.89c-0.005,1.268-0.539,2.006-1.748,2.438
		c-0.039,0.014-0.069,0.052-0.104,0.079C25.469,47.5,22.531,47.5,19.594,47.5z M24.037,41.241c-1.268,0-2.537-0.004-3.805,0.002
		c-0.652,0.003-0.919,0.269-0.923,0.917c-0.006,0.947-0.005,1.895,0,2.843c0.004,0.642,0.283,0.931,0.918,0.932
		c2.522,0.005,5.043,0.005,7.565,0c0.609-0.001,0.895-0.294,0.9-0.904c0.007-0.947,0.005-1.895,0.001-2.843
		c-0.003-0.681-0.263-0.942-0.942-0.945C26.512,41.238,25.274,41.241,24.037,41.241z"/>
	<path fill="#21376D" d="M36.466,23.986c-0.405-0.39-0.761-0.726-1.109-1.069c-0.388-0.383-0.498-0.842-0.283-1.343
		c0.208-0.485,0.605-0.704,1.132-0.703c1.407,0.003,2.816-0.033,4.221,0.023c0.39,0.015,0.831,0.22,1.141,0.471
		c0.556,0.45,1.039,0.992,1.536,1.511c0.649,0.678,0.643,1.578-0.012,2.259c-0.498,0.518-0.98,1.062-1.537,1.51
		c-0.31,0.25-0.754,0.445-1.145,0.461c-1.39,0.055-2.783,0.018-4.175,0.023c-0.546,0.002-0.958-0.215-1.167-0.721
		c-0.208-0.503-0.086-0.958,0.303-1.34C35.718,24.727,36.064,24.384,36.466,23.986z M37.174,25.561c1.082,0,2.127,0.003,3.172-0.005
		c0.079-0.001,0.171-0.06,0.234-0.118c0.489-0.455,0.972-0.916,1.492-1.41c-0.343-0.334-0.654-0.569-0.878-0.869
		c-0.458-0.61-1.032-0.8-1.779-0.736c-0.732,0.063-1.473,0.014-2.263,0.014C38.29,23.866,38.291,24.017,37.174,25.561z"/>
	<path fill="#21376D" d="M5.946,24.006c-0.435-0.415-0.794-0.747-1.14-1.092c-0.385-0.383-0.494-0.842-0.277-1.343
		c0.21-0.485,0.607-0.701,1.133-0.7c1.407,0.003,2.815-0.033,4.219,0.023c0.389,0.016,0.828,0.224,1.138,0.475
		c0.555,0.45,1.037,0.993,1.536,1.51c0.631,0.655,0.641,1.571,0.018,2.224c-0.507,0.531-1.001,1.082-1.569,1.542
		c-0.309,0.25-0.753,0.447-1.144,0.462c-1.389,0.055-2.782,0.018-4.173,0.023c-0.544,0.002-0.955-0.212-1.166-0.72
		c-0.209-0.505-0.09-0.96,0.299-1.339C5.169,24.731,5.527,24.401,5.946,24.006z M6.613,25.563c1.07,0,2.077,0.002,3.084-0.004
		c0.098-0.001,0.222-0.028,0.289-0.091c0.498-0.467,0.985-0.946,1.507-1.452c-0.386-0.383-0.75-0.689-1.046-1.052
		c-0.352-0.431-0.759-0.573-1.309-0.541c-0.826,0.047-1.657,0.012-2.537,0.012C7.744,23.877,7.745,24.06,6.613,25.563z"/>
	<path fill="#21376D" d="M16.1,23.992c-0.39-0.377-0.74-0.714-1.089-1.052c-0.39-0.379-0.516-0.833-0.314-1.338
		c0.204-0.509,0.612-0.733,1.158-0.731c1.391,0.004,2.783,0.005,4.175-0.001c0.471-0.002,0.864,0.16,1.194,0.49
		c0.508,0.508,1.025,1.008,1.522,1.527c0.63,0.657,0.631,1.567,0.001,2.225c-0.507,0.53-1.001,1.083-1.569,1.541
		c-0.309,0.249-0.755,0.438-1.148,0.454c-1.389,0.054-2.782,0.018-4.174,0.022c-0.546,0.001-0.955-0.222-1.159-0.731
		c-0.202-0.505-0.077-0.958,0.313-1.338C15.359,24.721,15.705,24.38,16.1,23.992z M16.747,25.564c1.059,0,2.017,0,2.974,0
		c0.076,0,0.154,0.009,0.229-0.004c0.071-0.012,0.158-0.027,0.205-0.074c0.496-0.489,0.985-0.985,1.516-1.519
		c-0.474-0.457-0.901-0.893-1.359-1.295c-0.143-0.125-0.364-0.22-0.552-0.225c-0.885-0.023-1.771-0.012-2.657-0.008
		c-0.092,0-0.184,0.028-0.307,0.048C17.92,23.54,17.917,24.468,16.747,25.564z"/>
	<path fill="#21376D" d="M26.285,23.992c-0.414-0.4-0.769-0.737-1.117-1.081c-0.374-0.37-0.483-0.818-0.291-1.304
		c0.202-0.508,0.607-0.739,1.155-0.737c1.392,0.004,2.783,0.006,4.175-0.001c0.471-0.002,0.866,0.157,1.196,0.485
		c0.509,0.507,1.025,1.008,1.523,1.527c0.632,0.66,0.638,1.565,0.009,2.225c-0.506,0.532-1.001,1.084-1.568,1.542
		c-0.309,0.25-0.755,0.442-1.147,0.457c-1.39,0.054-2.783,0.018-4.174,0.023c-0.546,0.002-0.957-0.219-1.162-0.727
		c-0.204-0.504-0.082-0.958,0.308-1.339C25.54,24.724,25.886,24.383,26.285,23.992z M31.87,23.991
		c-0.319-0.304-0.635-0.534-0.86-0.833c-0.459-0.609-1.033-0.8-1.78-0.736c-0.732,0.063-1.473,0.014-2.339,0.014
		c1.258,1.072,1.19,2.087,0.035,3.128c1.113,0,2.105,0.008,3.097-0.008c0.146-0.002,0.321-0.085,0.431-0.186
		C30.914,24.944,31.353,24.498,31.87,23.991z"/>
	<path fill="#21376D" d="M23.98,5.193c-0.748,0-1.496,0.006-2.244-0.002c-0.526-0.006-0.846-0.295-0.86-0.748
		c-0.014-0.47,0.32-0.806,0.853-0.81c1.511-0.01,3.023-0.009,4.534,0c0.536,0.003,0.871,0.334,0.86,0.804
		c-0.01,0.454-0.331,0.749-0.854,0.755C25.507,5.199,24.743,5.192,23.98,5.193z"/>
	<path fill="#21376D" d="M41.211,5.192c-0.748,0-1.496,0.006-2.244-0.002c-0.526-0.006-0.84-0.293-0.852-0.753
		c-0.012-0.476,0.314-0.802,0.853-0.806c1.511-0.009,3.022-0.009,4.534,0c0.523,0.003,0.88,0.355,0.865,0.807
		C44.352,4.88,44.012,5.185,43.5,5.19C42.737,5.199,41.974,5.192,41.211,5.192z"/>
	<path fill="#21376D" d="M6.743,5.192c-0.748,0-1.496,0.006-2.244-0.002C3.985,5.184,3.648,4.882,3.634,4.439
		C3.619,3.986,3.975,3.635,4.498,3.632c1.511-0.009,3.022-0.01,4.534,0c0.539,0.003,0.865,0.33,0.853,0.806
		C9.873,4.897,9.559,5.185,9.032,5.19C8.269,5.199,7.506,5.193,6.743,5.192z"/>
	<path fill="#21376D" d="M41.21,42.807c0.748,0,1.496-0.004,2.244,0.001c0.549,0.004,0.897,0.297,0.912,0.751
		c0.015,0.467-0.352,0.807-0.91,0.81c-1.481,0.007-2.961,0.007-4.442,0c-0.576-0.003-0.911-0.316-0.9-0.807
		c0.011-0.474,0.331-0.749,0.897-0.754C39.745,42.803,40.477,42.807,41.21,42.807z"/>
	<path fill="#21376D" d="M6.787,42.808c0.748,0,1.496-0.006,2.244,0.002c0.528,0.006,0.842,0.291,0.854,0.75
		c0.012,0.476-0.313,0.805-0.852,0.808c-1.511,0.01-3.022,0.009-4.534,0c-0.524-0.003-0.879-0.353-0.866-0.806
		c0.013-0.441,0.352-0.747,0.864-0.752C5.26,42.802,6.024,42.808,6.787,42.808z"/>
	<path fill="#21376D" d="M24.012,42.807c0.748,0,1.496-0.006,2.244,0.002c0.546,0.006,0.875,0.313,0.868,0.786
		c-0.007,0.447-0.337,0.769-0.847,0.772c-1.511,0.01-3.023,0.009-4.534,0.001c-0.538-0.003-0.874-0.329-0.868-0.797
		c0.006-0.471,0.334-0.757,0.892-0.762C22.516,42.802,23.264,42.807,24.012,42.807z"/>
</g>
</svg>
